<?xml version="1.0" encoding="utf-8"?>
<!-- Generator: Adobe Illustrator 18.0.0, SVG Export Plug-In . SVG Version: 6.00 Build 0)  -->
<!DOCTYPE svg PUBLIC "-//W3C//DTD SVG 1.1//EN" "http://www.w3.org/Graphics/SVG/1.1/DTD/svg11.dtd">
<svg version="1.1" id="Layer_1" xmlns="http://www.w3.org/2000/svg" xmlns:xlink="http://www.w3.org/1999/xlink" x="0px" y="0px"
	 viewBox="0 0 1024 768" enable-background="new 0 0 1024 768" xml:space="preserve">
<path fill="none" stroke="#3882C2" stroke-width="4.5323" stroke-linecap="round" stroke-linejoin="round" stroke-miterlimit="10" d="
	M341.9,528.3l3.3-25.6c0,0-7.3-0.9-18.3-2.4l4.1-31.9c0,0-8.5-1.1-24.1-3.2c-10-1.3-21.2,16.2-28,29c-19.2-2.4-38.1-4.7-49.5-5.9
	c-19.2-2.1-29.7,14.1-34.8,26.4l-98.7-1.6c24.1,55.2,49,80.9,62.2,97.4h196.7c17.5-29.4,19.9-71.8,19.9-71.8L341.9,528.3z"/>
<rect x="196.9" y="531.7" transform="matrix(0.9958 9.122369e-02 -9.122369e-02 0.9958 50.1138 -16.4705)" fill="#3882C2" width="16.6" height="16.6"/>
<rect x="222.9" y="534" transform="matrix(0.9958 9.122369e-02 -9.122369e-02 0.9958 50.4384 -18.8321)" fill="#3882C2" width="16.6" height="16.6"/>
<polygon fill="#3882C2" points="264.7,553.7 248.2,552.2 249.7,535.7 266.2,537.2 "/>
<polygon fill="#3882C2" points="290.7,556.1 274.2,554.6 275.7,538.1 292.2,539.6 "/>
<rect x="300.9" y="541.2" transform="matrix(0.9958 9.124009e-02 -9.124009e-02 0.9958 51.4243 -25.9208)" fill="#3882C2" width="16.6" height="16.6"/>
<path fill="none" stroke="#12A14A" stroke-width="4.5323" stroke-linecap="round" stroke-linejoin="round" stroke-miterlimit="10" d="
	M913.3,515.4l-0.6-0.5c-30-23.9-65.9-23.5-68.2-23.4H722.2v105.2h18c1.3-10.5,10.3-18.7,21.2-18.7h101.4c10.8,0,19.9,8.2,21.2,18.7
	h30.9c29.2,0,44.6-5.2,48.5-16.5C969.7,562.2,942.1,538.3,913.3,515.4z"/>
<path fill="#12A14A" d="M850,520.1c-17.2-10.5-35.5-10.1-35.5-10.1H722v45.4H860C908,555.4,867.8,531,850,520.1"/>
<path fill="#12A14A" d="M909.1,510c0,0-42.6-3.9-26.8,9.4c0,0,33.2,36.4,76.9,36C959.2,555.4,926,520.6,909.1,510"/>
<path fill="#12A14A" d="M774.2,599c0,6.7-5.4,12.1-12.1,12.1c-6.7,0-12.1-5.4-12.1-12.1s5.4-12.1,12.1-12.1
	C768.8,586.9,774.2,592.3,774.2,599"/>
<path fill="#12A14A" d="M807.3,599c0,6.7-5.4,12.1-12.1,12.1c-6.7,0-12.1-5.4-12.1-12.1s5.4-12.1,12.1-12.1
	C801.9,586.9,807.3,592.3,807.3,599"/>
<path fill="#12A14A" d="M840.4,599c0,6.7-5.4,12.1-12.1,12.1c-6.7,0-12.1-5.4-12.1-12.1s5.4-12.1,12.1-12.1
	C834.9,586.9,840.4,592.3,840.4,599"/>
<path fill="#12A14A" d="M873.5,598c0,6.7-5.4,12.1-12.1,12.1c-6.7,0-12.1-5.4-12.1-12.1s5.4-12.1,12.1-12.1
	C868,586,873.5,591.4,873.5,598"/>
<path fill="none" stroke="#CCCCCC" stroke-width="4.5323" stroke-miterlimit="10" d="M63.5,229.6c3,0.3,7.9-0.4,10.8-1.2
	c8.8-2.4,26.6-3.8,45.8,3.4c2.1,0.8,4.1,1.7,6.1,2.6c2.4,1.2,180.3,90.9,231,117.5l-61.8,24.1c-4-1.6-7.6-3.2-10.7-4.8l-181.1-91.7
	c0,0-6.9-3.5-10.2-5.2c-30.2-15.1-44.2-30-42.8-36.8C50.5,237.8,50.9,228.2,63.5,229.6z M449.1,414.9c-8-1.1-33.8-4.7-63.3-10.3
	c-2.9-0.5-3.3-4.5-0.6-5.7l49.8-20.7c2.2-0.9,4,1.9,2.3,3.6l-10.2,9.6c-0.8,0.8-1.2,1.9-1.2,3c0.1,1.1,0.7,2.1,1.6,2.8
	c9.7,6.6,17.1,12.3,21.9,16.9L449.1,414.9z M501.7,329.4l-0.6,0.5c-1,0.9-2.1,1.6-3.3,2.1l-155.9,59.2c-2,0.7-4.1,0.8-6.1,0.3
	c-1.7-0.5-3.5-1-5.3-1.5c-9.1-2.7-9.7-15.4-0.9-18.9l35.4-13.8L474,319.6c2.4-0.8,5-0.7,7.4,0.4L501.7,329.4z"/>
<path fill="#CCCCCC" d="M84.2,291.6c-0.8,2.1-0.8,4.5,0.2,6.6c0.9,2.1,2.6,3.7,4.8,4.5c0,0,0.1,0,0.1,0c4.4,1.6,9.3-0.6,11-4.9
	c1.7-4.4-0.5-9.4-4.9-11.1C90.8,285,85.9,287.2,84.2,291.6"/>
<path fill="#999999" d="M511.9,332.5l-2.1,2l-149,61.8c-3.3,1.4-6.9,1.6-10.3,0.9c-7.8-1.8-11.3-2.3-19.7-5.2l61.1-23.1l111.6-41.8
	L511.9,332.5z"/>
<path fill="none" stroke="#999999" stroke-width="1.5108" stroke-miterlimit="10" d="M511.9,332.5l-2.1,2l-149,61.8
	c-3.3,1.4-6.9,1.6-10.3,0.9c-7.8-1.8-11.3-2.3-19.7-5.2l61.1-23.1l111.6-41.8L511.9,332.5z"/>
<path fill="#CCCCCC" d="M262.3,382.9c-1,2.1-1.1,4.4-0.4,6.5c0.7,2.2,2.3,3.9,4.3,4.9c0,0,0.1,0,0.1,0.1c4.2,2,9.3,0.2,11.4-4
	c2.1-4.3,0.3-9.4-3.9-11.5C269.5,376.9,264.4,378.7,262.3,382.9"/>
<path fill="#CCCCCC" d="M240.2,372.4c-1,2.1-1.1,4.4-0.4,6.5c0.7,2.2,2.3,3.9,4.3,4.9c0,0,0.1,0,0.1,0.1c4.2,2,9.3,0.2,11.4-4
	c2.1-4.3,0.3-9.4-3.9-11.5C247.4,366.5,242.3,368.3,240.2,372.4"/>
<path fill="#CCCCCC" d="M218.1,362c-1,2.1-1.1,4.4-0.4,6.5c0.7,2.2,2.3,3.9,4.3,4.9c0,0,0.1,0,0.1,0c4.2,2,9.3,0.2,11.4-4
	c2.1-4.3,0.3-9.4-3.9-11.5C225.2,356,220.1,357.8,218.1,362"/>
<path fill="none" stroke="#BF1F42" stroke-width="4.5323" stroke-linecap="round" stroke-linejoin="round" stroke-miterlimit="10" d="
	M712.7,386.9l10.4-22.4 M693.2,380.3l4.8-24.3 M744.8,370.4l-12.1,23.1 M674.9,375.7l2.7-26"/>
<path fill="#FFFFFF" d="M735.6,393.6l-5.4,17.7c-3.2,10.4-15,16.1-26.2,12.6l-22-6.8c-11.2-3.5-17.8-14.8-14.7-25.2l5.4-17.7
	L735.6,393.6z"/>
<path fill="none" stroke="#BF1F42" stroke-width="4.5323" stroke-miterlimit="10" d="M735.6,393.6l-5.4,17.7
	c-3.2,10.4-15,16.1-26.2,12.6l-22-6.8c-11.2-3.5-17.8-14.8-14.7-25.2l5.4-17.7L735.6,393.6z"/>
<path fill="none" stroke="#BF1F42" stroke-width="4.5323" stroke-linecap="round" stroke-linejoin="round" stroke-miterlimit="10" d="
	M808.5,195.3c12.8,5.4,24.4,11.1,34.6,16.9c-3.1-30.9-22.1-58.8-50.9-72.5C792.3,139.8,806.4,164.1,808.5,195.3z M722.7,169
	c13.9,2.7,28.5,6.4,43.6,11l13.7-45.1c-4.2-1.3-8.5-2.3-12.7-2.9C767.2,132.1,741.9,144.3,722.7,169z"/>
<path fill="none" stroke="#BF1F42" stroke-width="4.5323" stroke-miterlimit="10" d="M702.1,235.3c-2-27.9,8.1-50.1,21-66.7
	c-13.6-2.7-26.5-4.4-38.2-5.3c-7.3,8.9-13.1,19.3-16.6,31c-3.1,10.2-4.3,20.5-3.8,30.6c11,6.5,23.9,12.8,38.1,18.8
	C702.5,240.9,702.3,238.1,702.1,235.3z M808.8,194.8c-12.9-5.4-26.9-10.6-41.8-15.1c-0.1,0-0.3-0.1-0.4-0.1l-24,78.6
	c0.1,0,0.3,0.1,0.4,0.1c14,4.3,27.7,7.8,40.7,10.4c1.7-2.3,3.4-4.5,5.2-6.7C806.3,239.9,810.3,215.8,808.8,194.8z"/>
<path fill="none" stroke="#BF1F42" stroke-width="4.5323" stroke-linecap="round" stroke-linejoin="round" stroke-miterlimit="10" d="
	M840.2,246.6c14.5-47.2-12.1-97.3-59.4-111.7c-47.3-14.5-97.4,12.1-111.9,59.4c-4,13.2-4.9,26.5-3,39.3l0,0c0,0,0,0,0,0
	c0.5,3.5,1.3,6.9,2.2,10.3c16.7,80.7,10.2,106.7,10.2,106.7l33.3,10.2h0l33.3,10.2c0,0,9.2-25.2,68.2-82.7c2.7-2.3,5.2-4.7,7.6-7.4
	c0,0,0,0,0,0l0,0C829.4,271.3,836.2,259.8,840.2,246.6z M723.4,364.6c0,0,24-48.7,60.3-96.3l0,0c0,0,19.8,4.8,40,8.5
	c0,0-21.2,21.1-47.9,49.9c0,0-29.5,32.2-31.6,44.3L723.4,364.6z M711,360.8l31.6-103c-11.6-3.4-40-14.4-40-14.4l0,0
	c3.3,59.8-4,113.6-4,113.6"/>
<path fill="#F79433" d="M589.3,363.9H480.3c-1.2,0-2.3-1-2.3-2.3v-21.6c0-1.2,1-2.3,2.3-2.3h108.9c1.2,0,2.3,1,2.3,2.3v21.6
	C591.5,362.9,590.5,363.9,589.3,363.9"/>
<path fill="#F0BA29" d="M728.4,612.8H345.1c-2.4,0-4.3-1.9-4.3-4.3v-221c0-2.4,1.9-4.3,4.3-4.3h383.3c2.4,0,4.3,1.9,4.3,4.3v221
	C732.7,610.9,730.8,612.8,728.4,612.8"/>
<path fill="#F79433" d="M745.8,391.1v22.9c0,1.9-1.4,3.5-3.2,3.8c-8.5,1.6-18,0.1-30.1-12.4c-4-4.1-7.2-9.2-8.4-14.9
	c-1.1-5-0.7-9.7,0.4-14.1c0.5-1.9,2.2-3.2,4.1-3.2h19.3C737.8,373.1,745.8,381.2,745.8,391.1"/>
<path fill="#F79433" d="M327.7,391.1v22.9c0,1.9,1.4,3.5,3.2,3.8c8.5,1.6,18,0.1,30.1-12.4c4-4.1,7.2-9.2,8.4-14.9
	c1.1-5,0.7-9.7-0.4-14.1c-0.5-1.9-2.2-3.2-4.1-3.2h-19.3C335.7,373.1,327.7,381.2,327.7,391.1"/>
<path fill="#F79433" d="M327.7,604.9v-22.9c0-1.9,1.4-3.5,3.2-3.8c8.5-1.6,18-0.1,30.1,12.4c4,4.1,7.2,9.2,8.4,14.9
	c1.1,5,0.7,9.7-0.4,14.1c-0.5,1.9-2.2,3.2-4.1,3.2h-19.3C335.7,622.8,327.7,614.8,327.7,604.9"/>
<path fill="#F79433" d="M745.8,604.9v-22.9c0-1.9-1.4-3.5-3.2-3.8c-8.5-1.6-18-0.1-30.1,12.4c-4,4.1-7.2,9.2-8.4,14.9
	c-1.1,5-0.7,9.7,0.4,14.1c0.5,1.9,2.2,3.2,4.1,3.2h19.3C737.8,622.8,745.8,614.8,745.8,604.9"/>
<path fill="none" stroke="#F79433" stroke-width="10.5753" stroke-miterlimit="10" d="M571.8,357.5v25.7 M497.8,357.5v25.7"/>
<rect x="412.7" y="383.2" fill="#F79433" width="29.6" height="229.6"/>
<rect x="627.3" y="383.2" fill="#F79433" width="29.6" height="229.6"/>
<path fill="#FFFFFF" d="M610.8,429l-0.7,21.2c-0.1,4.2-1.9,7.9-4.8,10.3l-39.5,32.3c-5.2,4.3-13.7,2.6-18.9-3.7l-16.9-20.7
	c-5.2-6.3-5.1-15,0.1-19.3l39.3-32.1c3.1-2.5,7.2-3.5,11.5-2.8l20.6,3.4C606.7,418.4,611,423.6,610.8,429"/>
<path fill="#F79433" d="M560.1,482.7c-0.4-1.3-2-20,6.1-32.9l-1.3-0.1c0,0-15.1,16-11.4,33.1H560.1z"/>
<path fill="#F0BA29" d="M568.4,448.6c0.4-0.4,0.7-0.9,0.7-1.6c0-1.1-0.8-2-1.8-2c-0.8,0-1.5,0.6-1.8,1.5c-0.3-0.3-0.7-0.5-1.2-0.5
	c-1,0-1.8,0.9-1.8,2c0,1.1,0.8,2,1.8,2c0.5,0,0.9-0.2,1.2-0.5c0,0.2-0.1,0.4-0.1,0.6c0,1.1,0.8,2,1.8,2c1,0,1.8-0.9,1.8-2
	C569.1,449.6,568.8,449,568.4,448.6"/>
<path fill="#12A14A" d="M564,447.8c0.1,0.4-0.7,0.9-1.8,1.7c-0.6-0.6-2-0.3-2.1-0.2c-0.1,0.1,1.4,0.3,1.3,0.7
	c-0.4,0.3-0.9,0.7-1.4,1.1c-0.1-0.2-1.2-0.2-1.3-0.1c0,0,0.9,0.5,0.6,0.7c-1.5,1.3-2.9,3-3.9,5.2C553.6,456.2,556.4,443,564,447.8"
	/>
<path fill="#12A14A" d="M566.6,450.7c-0.2,0.3,0.4,1.1,1.3,2.2c0.7-0.4,2,0.4,2.1,0.5c0.1,0.1-1.4-0.2-1.5,0.3
	c0.3,0.5,0.7,1,1.1,1.5c0.1-0.2,1.2,0.2,1.3,0.3c0,0-1,0.2-0.8,0.5c1.1,1.7,2,3.8,2.3,6.2C574.4,461.9,575.1,448.5,566.6,450.7"/>
<path fill="#12A14A" d="M568.6,448.8c0.1,0.5,1.2,0.5,2.9,0.6c0.3-1,1.9-1.6,2.1-1.6c0.2,0-1.3,1.3-1,1.7c0.6,0,1.4,0.1,2.1,0.2
	c-0.1-0.3,1.1-1,1.3-1c0,0-0.6,1.1-0.3,1.2c2.3,0.4,4.8,1.1,7,2.8C584.2,450.4,573.8,438.5,568.6,448.8"/>
<path fill="#12A14A" d="M569.2,447.1c0.4,0.3,1.5-0.5,3-1.7c-0.4-1.2,0.7-3,0.9-3.1c0.2-0.1-0.4,2.1,0.2,2.3c0.6-0.5,1.3-1,2-1.4
	c-0.2-0.2,0.4-1.8,0.6-1.9c0,0,0.1,1.5,0.5,1.3c2.3-1.4,5.1-2.6,8.2-2.8C584.5,436.6,567.5,433.7,569.2,447.1"/>
<path fill="#12A14A" d="M566.5,446.1c-0.3,0.3-1.2-0.4-2.5-1.3c0.3-1-0.6-2.4-0.8-2.5c-0.1-0.1,0.4,1.7-0.1,1.9
	c-0.5-0.4-1.1-0.8-1.7-1.1c0.2-0.2-0.4-1.5-0.5-1.6c0,0-0.1,1.2-0.4,1c-1.9-1.1-4.2-2-6.8-2.1C553.8,437.8,567.6,435.1,566.5,446.1"
	/>
<path fill="#FFFFFF" d="M559.9,482.7c0-0.2,0.1-0.3,0.1-0.5"/>
<path fill="#F0BA29" d="M602.2,431.2c0,3.3-2.6,5.9-5.9,5.9s-5.9-2.6-5.9-5.9c0-3.3,2.6-5.9,5.9-5.9S602.2,427.9,602.2,431.2"/>
<path fill="#FFFFFF" d="M538.2,594.1l-65.3-16.8c-7.2-1.9-11.6-9.3-9.8-16.6l8.1-31.3c1.9-7.2,9.3-11.6,16.6-9.8l65.3,16.8
	c7.2,1.9,11.6,9.3,9.8,16.6l-8.1,31.3C552.9,591.5,545.4,595.9,538.2,594.1"/>
<path fill="#F0BA29" d="M533.1,581.9l-2.9-0.8c0,0,1.2-7.4,4.8-6.5l0,0c3.6,0.9,0.9,8,0.9,8L533.1,581.9z M532.1,570l-3-0.3
	l-2.9-0.7c0,0,1.4-8.3,5.1-7.4l0,0C534.9,562.5,532.1,570,532.1,570 M527.8,580.5l-2.9-0.8l-2.9-0.8c0,0,1.2-7.4,4.8-6.4l0,0
	C530.4,573.5,527.8,580.5,527.8,580.5 M523.9,567.6l-2.9-0.7l-2.8-0.9c0,0,1.2-7.5,4.9-6.6l0,0C526.6,560.3,523.9,567.6,523.9,567.6
	 M519.5,578.3l-2.9-0.8l-2.9-0.7c0,0,1.2-7.3,4.8-6.4l0,0C522.2,571.3,519.5,578.3,519.5,578.3 M515.6,565.4l-2.9-0.7l-2.8-0.9
	c0,0,1.2-7.5,4.8-6.5l0,0C518.3,558.2,515.6,565.4,515.6,565.4 M511.2,576.1l-2.9-0.8l-2.9-0.7c0,0,1.2-7.3,4.8-6.3l0,0
	C513.9,569.2,511.2,576.1,511.2,576.1 M507.3,563.2l-2.9-0.7l-2.8-0.8c0,0,1.2-7.4,4.8-6.5l0,0C510,556.1,507.3,563.2,507.3,563.2
	 M502.9,573.9l-2.9-0.9l-2.9-0.6c0,0,1.2-7.2,4.8-6.3l0,0C505.6,567.1,502.9,573.9,502.9,573.9 M499,561l-2.9-0.8l-2.9-0.8
	c0,0,1.2-7.4,4.8-6.5l0,0C501.7,553.9,499,561,499,561 M494.7,571.8l-2.9-0.9l-2.9-0.6c0,0,1.2-7.2,4.8-6.3l0,0
	C497.3,564.9,494.7,571.8,494.7,571.8 M490.8,558.8l-2.9-0.8l-2.9-0.8c0,0,1.2-7.4,4.8-6.4l0,0C493.4,551.8,490.8,558.8,490.8,558.8
	 M486.4,569.5l-2.8-1.1l-2.9-0.7c0,0,1-6.7,4.6-5.7l0,0C489,562.8,486.4,569.5,486.4,569.5 M495.4,538.4L495.4,538.4
	c3.6,0.9,1,7.9,1,7.9l-2.9-0.8l-2.9-0.7C490.6,544.8,491.8,537.5,495.4,538.4 M503.7,540.6L503.7,540.6c3.6,0.9,1,7.9,1,7.9
	l-2.9-0.8l-2.9-0.7C498.9,546.9,500.1,539.6,503.7,540.6 M512,542.7L512,542.7c3.6,0.9,1,8,1,8l-2.9-0.8l-2.9-0.8
	C507.2,549.1,508.4,541.8,512,542.7 M538.4,558.8l-19.6-5.3c0,0,0.5-5-2.3-13c-1.8-5.2-11.4-8.8-19.3-10.9c0,0-11.9,7.2-21.4,40.7
	l63,17.1C538.8,587.3,541.3,568.7,538.4,558.8"/>
</svg>
