<?xml version="1.0" encoding="utf-8"?>
<!-- Generator: Adobe Illustrator 18.0.0, SVG Export Plug-In . SVG Version: 6.00 Build 0)  -->
<!DOCTYPE svg PUBLIC "-//W3C//DTD SVG 1.1//EN" "http://www.w3.org/Graphics/SVG/1.1/DTD/svg11.dtd">
<svg version="1.1" id="Layer_1" xmlns="http://www.w3.org/2000/svg" xmlns:xlink="http://www.w3.org/1999/xlink" x="0px" y="0px"
	 viewBox="0 0 314 82.5" enable-background="new 0 0 314 82.5" xml:space="preserve">
<g>
	
		<line fill="none" stroke="#68B6D5" stroke-width="2" stroke-linecap="round" stroke-linejoin="round" stroke-miterlimit="10" x1="9.5" y1="55.1" x2="235.9" y2="55.1"/>
	
		<path id="path27_2_" fill="none" stroke="#68B6D5" stroke-width="2" stroke-linecap="round" stroke-linejoin="round" stroke-miterlimit="10" d="
		M235.7,54.7l5.6-14.1l-5.6-14.1h7.1l5.6,10.6l13.5-0.7L250.5,6.6h7.1L281,36.3h15.6c2.8,0,5.7,1,7.8,2.9c0.4,0.3,0.6,0.8,0.6,1.3
		c0,0.5-0.2,1-0.6,1.3c-2.1,1.9-5,2.9-7.8,2.9H281l-23.4,29.7h-7.1l11.3-29.7l-13.5-0.7l-5.6,11"/>
	<rect x="9" y="24.7" fill="none" width="212.7" height="25.8"/>
	<text transform="matrix(1 0 0 1 8.9983 46.4937)"><tspan x="0" y="0" fill="#68B6D5" font-family="'Roboto-Black'" font-size="28.567">AIRPLANE</tspan><tspan x="133.5" y="0" fill="#68B6D5" font-family="'Roboto-Light'" font-size="28.567">MODE</tspan></text>
</g>
</svg>
