<?xml version="1.0" encoding="utf-8"?>
<!-- Generator: Adobe Illustrator 18.0.0, SVG Export Plug-In . SVG Version: 6.00 Build 0)  -->
<!DOCTYPE svg PUBLIC "-//W3C//DTD SVG 1.1//EN" "http://www.w3.org/Graphics/SVG/1.1/DTD/svg11.dtd">
<svg version="1.1" id="Layer_1" xmlns="http://www.w3.org/2000/svg" xmlns:xlink="http://www.w3.org/1999/xlink" x="0px" y="0px"
	 viewBox="0 0 600 300" enable-background="new 0 0 600 300" xml:space="preserve">
<g>
	<path fill="none" stroke="#EFBA2A" stroke-width="7" stroke-linecap="round" stroke-linejoin="round" stroke-miterlimit="10" d="
		M352.9,242.2H194.3c-11.5,0-20.8-9.3-20.8-20.8v-83.5c0-11.5,9.3-20.8,20.8-20.8h158.6c7,0,13.6,3.6,17.5,9.5l27.1,41.5
		c4.6,7.1,4.6,16.2,0,23.2l-27.1,41.5C366.5,238.7,360,242.2,352.9,242.2z"/>
	<path fill="none" stroke="#0BB0A1" stroke-width="7" stroke-linecap="round" stroke-linejoin="round" stroke-miterlimit="10" d="
		M380.2,178.2c-0.7,6.1,3.1,11.9,7.8,15.8c4.7,3.9,10.3,6.6,15.2,10.2c9,6.8,15.3,17.2,16.9,28.5c0.1,0.8,0.2,1.6,0.1,2.4
		c-0.8,9.5-7.9,10.4-13.9,10.1c-1.1,0-2.2-0.1-3.2-0.5c-3-1.2-4.1-5-4.2-8.3c-0.1-10.9,7.2-20.5,10-31.1c1-3.6,1.4-7.4,1.5-11.2
		c0.1-4-0.1-8-1.4-11.8s-3.9-7.2-7.5-8.9"/>
	<g>
		<path fill="#0BB0A1" d="M197.1,185.1v-12.9l45.4-19.9v13.2l-31.7,13l31.7,13V205L197.1,185.1z"/>
		<path fill="#0BB0A1" d="M289.7,136.8h12.1l-41.6,86.9h-12.1L289.7,136.8z"/>
		<path fill="#0BB0A1" d="M308.7,191.7l31.7-13l-31.7-13v-13.4l45.4,19.9v12.9L308.7,205V191.7z"/>
	</g>
	<g>
		<path fill="none" stroke="#EFBA2A" stroke-width="7" stroke-linecap="round" stroke-linejoin="round" stroke-miterlimit="10" d="
			M355.4,85.9c20.7,0,35.5,16.8,35.5,37.5c0-20.7,17.5-37.5,35.5-37.5v-2.1c-18,0-35.5-16.8-35.5-37.5c0,20.7-15.8,37.5-36.5,37.5"
			/>
	</g>
	<g>
		<path fill="#EFBA2A" d="M309.4,60.1c13.2,0.2,23.4,11.1,23.2,24.3c0.2-13.2,12-23.7,24-23.5l0-1.3c-12-0.2-23.4-11.1-23.2-24.3
			c-0.2,13.2-10.9,23.7-24.1,23.5"/>
	</g>
</g>
</svg>
