<?xml version="1.0" encoding="utf-8"?>
<!-- Generator: Adobe Illustrator 18.0.0, SVG Export Plug-In . SVG Version: 6.00 Build 0)  -->
<!DOCTYPE svg PUBLIC "-//W3C//DTD SVG 1.1//EN" "http://www.w3.org/Graphics/SVG/1.1/DTD/svg11.dtd">
<svg version="1.1" id="Layer_1" xmlns="http://www.w3.org/2000/svg" xmlns:xlink="http://www.w3.org/1999/xlink" x="0px" y="0px"
	 viewBox="0 0 600 208" enable-background="new 0 0 600 208" xml:space="preserve">
<g>
	<path fill="none" stroke="#EFBA29" stroke-width="7" stroke-linecap="round" stroke-linejoin="round" stroke-miterlimit="10" d="
		M414,100c-3.1,11.5-7.6,32.2-6.8,52.4l-11.6,0"/>
	<path fill="none" stroke="#EFBA29" stroke-width="7" stroke-linecap="round" stroke-linejoin="round" stroke-miterlimit="10" d="
		M297.6,98.8c-6.9-25.1-21.3-43.3-28.3-50.9"/>
	<path fill="none" stroke="#EFBA29" stroke-width="7" stroke-linecap="round" stroke-linejoin="round" stroke-miterlimit="10" d="
		M414,100c-25.2-1-63.1,12.3-68.7,52.4h0.5h49.8C395.9,122,408.3,105.8,414,100"/>
	<path fill="none" stroke="#EFBA29" stroke-width="7" stroke-linecap="round" stroke-linejoin="round" stroke-miterlimit="10" d="
		M367,112.7c-9.8-31.3-29.9-52-60-61.4c-16.4-5.2-31.3-5.4-38.3-5.1"/>
	
		<polyline fill="none" stroke="#EFBA29" stroke-width="7" stroke-linecap="round" stroke-linejoin="round" stroke-miterlimit="10" points="
		345.8,152.4 345.8,152.4 328.7,152.4 	"/>
	<path fill="none" stroke="#EFBA29" stroke-width="7" stroke-linecap="round" stroke-linejoin="round" stroke-miterlimit="10" d="
		M268.7,46.2c-0.3,0-0.6,0-0.9,0c0.4,0.5,0.9,1,1.5,1.6"/>
	<path fill="none" stroke="#EFBA29" stroke-width="7" stroke-linecap="round" stroke-linejoin="round" stroke-miterlimit="10" d="
		M268.7,46.2C268.7,46.2,268.7,46.1,268.7,46.2"/>
	<path fill="none" stroke="#EFBA29" stroke-width="7" stroke-linecap="round" stroke-linejoin="round" stroke-miterlimit="10" d="
		M279.8,87.4c-1-8.8-8.5-31.4-12-41.2"/>
	<path fill="none" stroke="#EFBA29" stroke-width="7" stroke-linecap="round" stroke-linejoin="round" stroke-miterlimit="10" d="
		M261.9,152.4c-1.5-13-5.9-27.8-11.2-40c-0.5-1.2-1.1-2.4-1.6-3.6c-7.5-16.1-16-29.4-19.7-35c20.9,2,37.4,7,50.5,13.6
		c6.9,3.4,12.8,7.3,17.8,11.4c28.9,23.2,31.1,53.7,31.1,53.7L261.9,152.4"/>
	<path fill="none" stroke="#EFBA29" stroke-width="7" stroke-linecap="round" stroke-linejoin="round" stroke-miterlimit="10" d="
		M249,108.8c-4-2.8-8.7-5-13.7-6.8c-0.8-5.6-4.4-23.8-6-28.2"/>
	<path fill="none" stroke="#EFBA29" stroke-width="7" stroke-linecap="round" stroke-linejoin="round" stroke-miterlimit="10" d="
		M249,108.8c-4-2.8-8.7-5-13.7-6.8c-19-6.6-43.1-6.5-52.3-6.2c7.7,7.3,28.6,31.5,30.2,46.5h13l35.7,10.1"/>
	<path fill="none" stroke="#EFBA29" stroke-width="7" stroke-linecap="round" stroke-linejoin="round" stroke-miterlimit="10" d="
		M192.3,148.6c1.5-14.1-4-42.4-9.3-52.9"/>
	
		<polygon fill="none" stroke="#EFBA29" stroke-width="7" stroke-linecap="round" stroke-linejoin="round" stroke-miterlimit="10" points="
		261.9,152.4 414,152.4 419,155.9 430.8,159.4 430.8,162.5 169.2,162.5 169.2,162.5 169.2,158.2 180,158.2 180,148.6 202.1,148.6 
		208.4,142.3 226.2,142.3 	"/>
</g>
</svg>
