<?xml version="1.0" encoding="utf-8"?>
<!-- Generator: Adobe Illustrator 18.0.0, SVG Export Plug-In . SVG Version: 6.00 Build 0)  -->
<!DOCTYPE svg PUBLIC "-//W3C//DTD SVG 1.1//EN" "http://www.w3.org/Graphics/SVG/1.1/DTD/svg11.dtd">
<svg version="1.1" id="Layer_1" xmlns="http://www.w3.org/2000/svg" xmlns:xlink="http://www.w3.org/1999/xlink" x="0px" y="0px"
	 viewBox="0 0 600 300" enable-background="new 0 0 600 300" xml:space="preserve">
<g>
	<g>
		<g>
			<ellipse fill="none" stroke="#666666" stroke-width="7" stroke-miterlimit="10" cx="340.3" cy="205.8" rx="61.7" ry="27.8"/>
			<ellipse fill="none" stroke="#666666" stroke-width="7" stroke-miterlimit="10" cx="340.3" cy="205.8" rx="43.3" ry="16.4"/>
			<path fill="none" stroke="#666666" stroke-width="7" stroke-miterlimit="10" d="M402.1,233.7c0,15.4-27.6,27.8-61.7,27.8
				s-61.7-12.5-61.7-27.8"/>
			<path fill="none" stroke="#666666" stroke-width="7" stroke-miterlimit="10" d="M278.6,205.8"/>
			<line fill="none" stroke="#666666" stroke-width="7" stroke-miterlimit="10" x1="278.6" y1="205.8" x2="278.6" y2="233.7"/>
			<line fill="none" stroke="#666666" stroke-width="7" stroke-miterlimit="10" x1="402.1" y1="205.8" x2="402.1" y2="233.7"/>
		</g>
		
			<ellipse transform="matrix(0.5179 -0.8554 0.8554 0.5179 35.9809 322.0761)" fill="none" stroke="#666666" stroke-width="7" stroke-miterlimit="10" cx="303.7" cy="129.1" rx="62.3" ry="39.9"/>
		
			<ellipse transform="matrix(0.5179 -0.8554 0.8554 0.5179 35.9809 322.0761)" fill="none" stroke="#666666" stroke-width="7" stroke-miterlimit="10" cx="303.7" cy="129.1" rx="46.1" ry="27"/>
	</g>
	<g>
		<g>
			
				<path fill="#FFFFFF" stroke="#000000" stroke-width="7" stroke-linecap="round" stroke-linejoin="round" stroke-miterlimit="10" d="
				M277.7,149.2v98.9c0,7.1-17.9,12.9-39.9,12.9s-39.9-5.8-39.9-12.9v-98.9"/>
			
				<ellipse fill="#FFFFFF" stroke="#000000" stroke-width="7" stroke-linecap="round" stroke-linejoin="round" stroke-miterlimit="10" cx="237.8" cy="149.2" rx="39.9" ry="12.9"/>
		</g>
		<g>
			
				<path fill="#FFFFFF" stroke="#000000" stroke-width="7" stroke-linecap="round" stroke-linejoin="round" stroke-miterlimit="10" d="
				M269.1,129.1v15.1c0,5.6-14,10.1-31.2,10.1s-31.2-4.5-31.2-10.1v-15.1"/>
			
				<ellipse fill="#FFFFFF" stroke="#000000" stroke-width="7" stroke-linecap="round" stroke-linejoin="round" stroke-miterlimit="10" cx="237.8" cy="129.1" rx="31.2" ry="10.1"/>
		</g>
		<g>
			
				<path fill="#FFFFFF" stroke="#CC0033" stroke-width="7" stroke-linecap="round" stroke-linejoin="round" stroke-miterlimit="10" d="
				M259.6,55.2V126c0,3.8-9.7,6.9-21.8,6.9s-21.8-3.1-21.8-6.9V73.4"/>
		</g>
		
			<ellipse transform="matrix(0.9502 0.3116 -0.3116 0.9502 31.4258 -70.9871)" fill="#FFFFFF" stroke="#CC0033" stroke-width="7" stroke-linecap="round" stroke-linejoin="round" stroke-miterlimit="10" cx="237.8" cy="62.8" rx="20.3" ry="32.4"/>
		
			<line fill="#FFFFFF" stroke="#000000" stroke-width="7" stroke-linecap="round" stroke-linejoin="round" stroke-miterlimit="10" x1="223.9" y1="162.1" x2="223.9" y2="260.2"/>
	</g>
</g>
</svg>
