<?xml version="1.0" encoding="utf-8"?>
<!-- Generator: Adobe Illustrator 18.0.0, SVG Export Plug-In . SVG Version: 6.00 Build 0)  -->
<!DOCTYPE svg PUBLIC "-//W3C//DTD SVG 1.1//EN" "http://www.w3.org/Graphics/SVG/1.1/DTD/svg11.dtd">
<svg version="1.1" id="Layer_1" xmlns="http://www.w3.org/2000/svg" xmlns:xlink="http://www.w3.org/1999/xlink" x="0px" y="0px"
	 viewBox="0 0 600 300" enable-background="new 0 0 600 300" xml:space="preserve">
<g>
	<g>
		
			<path fill="none" stroke="#8CC63F" stroke-width="5.9019" stroke-linecap="round" stroke-linejoin="round" stroke-miterlimit="10" d="
			M341.9,197.7c-1.9-3.9-5.9-5.5-10.5-5.5c-4.7,0-8.8,2.8-10.6,6.8c0.1-0.7,0.2-1.5,0.2-2.3c0-6.5-5.3-11.8-11.8-11.8
			c-6.5,0-11.8,5.3-11.8,11.8c0,2,0.5,3.9,1.4,5.5c-2.8-2.3-6.4-3.7-10.3-3.7c-8.6,0-15.6,6.6-16.2,15c-1.7-1.4-3.8-2.2-6.1-2.2
			c-5.4,0-9.7,2.8-9.7,8.2"/>
		
			<path fill="none" stroke="#666666" stroke-width="5.9019" stroke-linecap="round" stroke-linejoin="round" stroke-miterlimit="10" d="
			M284.6,147.5c-3.5-3.4-6.6-6.5-6.6-6.5l-1.6,0.6c-4.1,1.3-8,3-11.9,4.9l-1.6,0.9l-0.8,19.4c-4,3.1-7.6,6.7-10.7,10.6l-19.3,0.7
			l-0.9,1.7c-1,1.9-1.9,3.8-2.8,5.9c-0.9,2-1.6,4.1-2.2,6.1l-0.6,1.8l13.1,14.3c-0.3,2.5-0.5,5.1-0.5,7.7c0,2.5,0.2,5,0.5,7.4
			l-13.2,14.2l0.6,1.8c1.3,4.1,3,8.2,4.9,12l0.9,1.7l19.5,0.8c3.1,3.9,6.6,7.5,10.5,10.5l0.7,19.5l1.7,0.9c1.9,1,3.8,1.9,5.9,2.8
			c2,0.9,4.1,1.6,6.1,2.2l1.8,0.6l14.5-13.3c2.4,0.3,4.9,0.5,7.3,0.5c2.5,0,4.9-0.2,7.3-0.4l14.4,13.4l1.8-0.6c4.1-1.3,8.2-3,12-4.9
			l1.7-0.9l0.8-19.7c3.8-3,7.3-6.4,10.3-10.2l19.7-0.7l0.9-1.7c1-1.9,1.9-3.8,2.8-5.9c0.9-2,1.6-4.1,2.2-6.1l0.6-1.8l-13.4-14.5
			c0.3-2.5,0.5-4.9,0.5-7.4c0-1.9-0.1-3.9-0.3-5.8c0-0.3-0.1-0.6-0.1-0.9c0-0.1,0-0.3,0-0.4l13.5-14.5l-0.6-1.8
			c-1.3-4.1-3-8.2-4.9-12l-0.9-1.7l-19.7-0.8c-3-3.9-6.5-7.4-10.3-10.4l-0.7-19.6l-1.7-0.9c-1.9-1-3.8-1.9-5.9-2.8
			c-2-0.9-4.1-1.6-6.1-2.2l-1.7-0.6l-4.7,4.8"/>
		
			<circle fill="none" stroke="#8CC63F" stroke-width="5.9019" stroke-linecap="round" stroke-linejoin="round" stroke-miterlimit="10" cx="290.1" cy="59.1" r="5.1"/>
		
			<circle fill="none" stroke="#8CC63F" stroke-width="5.9019" stroke-linecap="round" stroke-linejoin="round" stroke-miterlimit="10" cx="309.6" cy="12.8" r="5.1"/>
		
			<circle fill="none" stroke="#8CC63F" stroke-width="5.9019" stroke-linecap="round" stroke-linejoin="round" stroke-miterlimit="10" cx="304" cy="34.7" r="10.9"/>
		
			<path fill="none" stroke="#3981C1" stroke-width="5.9019" stroke-linecap="round" stroke-linejoin="round" stroke-miterlimit="10" d="
			M284.6,153v21.4c-16.4,6.4-28.3,22.6-28.3,41.7c0,24.6,20.2,44.6,44.9,44.6c24.6,0,44.8-20,44.8-44.6c0-19.1-12.2-35.3-28.6-41.7
			v-21.7v-9.5V91.5c2.3-1,5.6-4.1,5.6-7.7c0-4.4-3.6-8.1-8-8.1h-27.8c-4.4,0-8.5,3.7-8.5,8.1c0,3.9,3.5,7.2,5.9,7.9v51.7V153z"/>
	</g>
</g>
</svg>
