<?xml version="1.0" encoding="utf-8"?>
<!-- Generator: Adobe Illustrator 18.0.0, SVG Export Plug-In . SVG Version: 6.00 Build 0)  -->
<!DOCTYPE svg PUBLIC "-//W3C//DTD SVG 1.1//EN" "http://www.w3.org/Graphics/SVG/1.1/DTD/svg11.dtd">
<svg version="1.1" id="Layer_1" xmlns="http://www.w3.org/2000/svg" xmlns:xlink="http://www.w3.org/1999/xlink" x="0px" y="0px"
	 viewBox="0 0 600 404" enable-background="new 0 0 600 404" xml:space="preserve">
<g>
	<path fill="none" stroke="#059F49" stroke-width="7" stroke-linecap="round" stroke-linejoin="round" stroke-miterlimit="10" d="
		M310.3,200.9c0.8,80.6,11.3,161.3,11.3,161.3h-29.8h14.9h-29.8c0,0,10.5-80.6,11.3-161.3"/>
	<g>
		
			<rect x="286.1" y="88.3" fill="none" stroke="#059F49" stroke-width="7" stroke-linecap="round" stroke-linejoin="round" stroke-miterlimit="10" width="27.9" height="18.8"/>
		
			<line fill="none" stroke="#059F49" stroke-width="7" stroke-linecap="round" stroke-linejoin="round" stroke-miterlimit="10" x1="273.4" y1="88.3" x2="326.6" y2="88.3"/>
		
			<line fill="none" stroke="#059F49" stroke-width="7" stroke-linecap="round" stroke-linejoin="round" stroke-miterlimit="10" x1="273.4" y1="107.2" x2="326.6" y2="107.2"/>
		
			<rect x="294.8" y="30.5" fill="none" stroke="#059F49" stroke-width="7" stroke-linecap="round" stroke-linejoin="round" stroke-miterlimit="10" width="10.3" height="28.8"/>
		
			<rect x="294.8" y="59.1" fill="none" stroke="#059F49" stroke-width="7" stroke-linecap="round" stroke-linejoin="round" stroke-miterlimit="10" width="10.3" height="14.5"/>
		
			<rect x="294.8" y="73.6" fill="none" stroke="#059F49" stroke-width="7" stroke-linecap="round" stroke-linejoin="round" stroke-miterlimit="10" width="10.3" height="14.5"/>
	</g>
	<g>
		
			<circle fill="none" stroke="#059F49" stroke-width="7" stroke-linecap="round" stroke-linejoin="round" stroke-miterlimit="10" cx="300" cy="154.3" r="47.1"/>
		
			<line fill="none" stroke="#059F49" stroke-width="7" stroke-linecap="round" stroke-linejoin="round" stroke-miterlimit="10" x1="252.9" y1="154.3" x2="347.1" y2="154.3"/>
		
			<line fill="none" stroke="#059F49" stroke-width="7" stroke-linecap="round" stroke-linejoin="round" stroke-miterlimit="10" x1="260.9" y1="180.6" x2="339.1" y2="180.6"/>
		
			<line fill="none" stroke="#059F49" stroke-width="7" stroke-linecap="round" stroke-linejoin="round" stroke-miterlimit="10" x1="254.8" y1="144.8" x2="344.7" y2="144.8"/>
		<path fill="none" stroke="#059F49" stroke-width="7" stroke-linecap="round" stroke-linejoin="round" stroke-miterlimit="10" d="
			M300,143.7v-36.6c0,0-13,16.6-13,37.6"/>
		<path fill="none" stroke="#059F49" stroke-width="7" stroke-linecap="round" stroke-linejoin="round" stroke-miterlimit="10" d="
			M300,107.2c0,0-26.8,11-31.1,37.6"/>
		<path fill="none" stroke="#059F49" stroke-width="7" stroke-linecap="round" stroke-linejoin="round" stroke-miterlimit="10" d="
			M300,107.2c0,0,13,16.6,13,37.6"/>
		<path fill="none" stroke="#059F49" stroke-width="7" stroke-linecap="round" stroke-linejoin="round" stroke-miterlimit="10" d="
			M300,107.2c0,0,26.8,11,31.1,37.6"/>
		
			<line fill="none" stroke="#059F49" stroke-width="7" stroke-linecap="round" stroke-linejoin="round" stroke-miterlimit="10" x1="300" y1="160.3" x2="300" y2="173.6"/>
		
			<line fill="none" stroke="#059F49" stroke-width="7" stroke-linecap="round" stroke-linejoin="round" stroke-miterlimit="10" x1="286.9" y1="160.4" x2="288.6" y2="173.9"/>
		
			<line fill="none" stroke="#059F49" stroke-width="7" stroke-linecap="round" stroke-linejoin="round" stroke-miterlimit="10" x1="273.5" y1="160.9" x2="278.5" y2="173.7"/>
		
			<line fill="none" stroke="#059F49" stroke-width="7" stroke-linecap="round" stroke-linejoin="round" stroke-miterlimit="10" x1="261.2" y1="160.8" x2="265.8" y2="173.8"/>
		<g>
			
				<line fill="none" stroke="#059F49" stroke-width="7" stroke-linecap="round" stroke-linejoin="round" stroke-miterlimit="10" x1="313.1" y1="160.2" x2="311.4" y2="173.8"/>
			
				<line fill="none" stroke="#059F49" stroke-width="7" stroke-linecap="round" stroke-linejoin="round" stroke-miterlimit="10" x1="326.5" y1="160.7" x2="321.5" y2="173.5"/>
			
				<line fill="none" stroke="#059F49" stroke-width="7" stroke-linecap="round" stroke-linejoin="round" stroke-miterlimit="10" x1="338.8" y1="160.7" x2="334.2" y2="173.6"/>
		</g>
	</g>
</g>
</svg>
