<?xml version="1.0" encoding="utf-8"?>
<!-- Generator: Adobe Illustrator 18.0.0, SVG Export Plug-In . SVG Version: 6.00 Build 0)  -->
<!DOCTYPE svg PUBLIC "-//W3C//DTD SVG 1.1//EN" "http://www.w3.org/Graphics/SVG/1.1/DTD/svg11.dtd">
<svg version="1.1" id="Layer_1" xmlns="http://www.w3.org/2000/svg" xmlns:xlink="http://www.w3.org/1999/xlink" x="0px" y="0px"
	 viewBox="0 0 600 300" enable-background="new 0 0 600 300" xml:space="preserve">
<g>
	<g>
		<g>
			
				<path fill="#FFFFFF" stroke="#999999" stroke-width="7" stroke-linecap="round" stroke-linejoin="round" stroke-miterlimit="10" d="
				M354.1,241.4v37.6c0,3-2.4,5.4-5.4,5.4h-76.3c-3,0-5.4-2.4-5.4-5.4l0-37.6c0-3,2.4-5.4,5.4-5.4h76.3
				C351.6,236,354.1,238.5,354.1,241.4z"/>
			
				<line fill="#FFFFFF" stroke="#999999" stroke-width="7" stroke-linecap="round" stroke-linejoin="round" stroke-miterlimit="10" x1="297" y1="284.5" x2="297" y2="236"/>
			
				<line fill="none" stroke="#999999" stroke-width="7" stroke-linecap="round" stroke-linejoin="round" stroke-miterlimit="10" x1="297" y1="260.2" x2="266.9" y2="260.2"/>
		</g>
		<path fill="none" stroke="#999999" stroke-width="7" stroke-linecap="round" stroke-linejoin="round" stroke-miterlimit="10" d="
			M300,15.5c58,0,105,27.7,105,61.9s-47,61.9-105,61.9s-105,27.7-105,61.9c0,27.5,30.4,50.8,72.4,58.9"/>
	</g>
	<g>
		<g>
			
				<polygon fill="#FFFFFF" stroke="#BF1E43" stroke-width="7" stroke-linecap="round" stroke-linejoin="round" stroke-miterlimit="10" points="
				220.5,205.1 209,193.5 328.6,74.4 340.1,85.9 			"/>
			
				<polygon fill="#FFFFFF" stroke="#BF1E43" stroke-width="7" stroke-linecap="round" stroke-linejoin="round" stroke-miterlimit="10" points="
				232.5,217 221,205.5 340.6,86.4 352.1,97.9 			"/>
			
				<polygon fill="#FFFFFF" stroke="#BF1E43" stroke-width="7" stroke-linecap="round" stroke-linejoin="round" stroke-miterlimit="10" points="
				244.5,229 233,217.5 352.6,98.4 364.1,109.9 			"/>
		</g>
		<g>
			<polygon fill="#FFFFFF" stroke="#EFBA2A" stroke-width="7" stroke-linejoin="round" stroke-miterlimit="10" points="328.4,74.2 
				378.9,59.5 364.2,110 			"/>
			
				<polygon fill="none" stroke="#BF1E43" stroke-width="7" stroke-linecap="round" stroke-linejoin="round" stroke-miterlimit="10" points="
				355.9,66.3 378.9,59.6 372.2,82.6 			"/>
		</g>
	</g>
	<g>
		
			<path fill="#FFFFFF" stroke="#3981C1" stroke-width="7" stroke-linecap="round" stroke-linejoin="round" stroke-miterlimit="10" d="
			M286.9,146.2C248.2,105.9,247.6,95,253.8,89c6.2-6,17.1-5.1,55.9,35.4s90.9,104.6,84.5,110.6C388.1,241,325.9,186.4,286.9,146.2z"
			/>
		<g>
			<g>
				<path id="XMLID_6_" fill="#FFFFFF" d="M241.2,52.5c18.6,7.7,20.7,28.8,13.5,35.6c-10.9,10.5-27.3,9-38.4-2.6"/>
			</g>
			<g>
				
					<path id="XMLID_5_" fill="none" stroke="#F29224" stroke-width="7" stroke-linecap="round" stroke-linejoin="round" stroke-miterlimit="10" d="
					M241.2,52.5c18.6,7.7,20.7,28.8,13.5,35.6c-10.9,10.5-27.3,9-38.4-2.6"/>
			</g>
		</g>
		<g>
			<g>
				
					<path id="XMLID_4_" fill="none" stroke="#3981C1" stroke-width="7" stroke-linecap="round" stroke-linejoin="round" stroke-miterlimit="10" d="
					M216.4,85.4c-8.3-8.7-16-29.9-17.1-41.4c18.1,10.7,26,4.9,41.8,8.5C241.2,52.5,244.6,80.9,216.4,85.4z"/>
			</g>
		</g>
	</g>
</g>
</svg>
