<?xml version="1.0" encoding="utf-8"?>
<!-- Generator: Adobe Illustrator 18.0.0, SVG Export Plug-In . SVG Version: 6.00 Build 0)  -->
<!DOCTYPE svg PUBLIC "-//W3C//DTD SVG 1.1//EN" "http://www.w3.org/Graphics/SVG/1.1/DTD/svg11.dtd">
<svg version="1.1" id="Layer_1" xmlns="http://www.w3.org/2000/svg" xmlns:xlink="http://www.w3.org/1999/xlink" x="0px" y="0px"
	 viewBox="0 0 640 480" enable-background="new 0 0 640 480" xml:space="preserve">
<g>
	
		<polyline fill="none" stroke="#676767" stroke-width="7" stroke-linecap="round" stroke-linejoin="round" stroke-miterlimit="10" points="
		314.7,154.1 232,154.1 232,206.4 352,206.4 	"/>
	
		<polyline fill="none" stroke="#676767" stroke-width="7" stroke-linecap="round" stroke-linejoin="round" stroke-miterlimit="10" points="
		392.5,206.4 408,206.4 408,154.1 359.5,154.1 	"/>
	
		<polyline fill="none" stroke="#676767" stroke-width="7" stroke-linecap="round" stroke-linejoin="round" stroke-miterlimit="10" points="
		355.2,225.6 232,225.6 232,281.1 404.3,281.1 	"/>
	
		<polyline fill="none" stroke="#676767" stroke-width="7" stroke-linecap="round" stroke-linejoin="round" stroke-miterlimit="10" points="
		408,236.8 408,225.6 404.3,225.6 	"/>
	
		<rect x="232" y="298.8" fill="none" stroke="#676767" stroke-width="7" stroke-linecap="round" stroke-linejoin="round" stroke-miterlimit="10" width="176" height="59.7"/>
	<g>
		<g>
			<path stroke="#000000" stroke-width="3.5" stroke-miterlimit="10" d="M310.2,128.4"/>
		</g>
		<g>
			<path fill="#F2BD05" d="M331.9,149.5l-0.5-2.6c-0.6-3.2-2.3-6.9-4.9-10.6c-2.5-3.6-5.3-6.6-8.1-8.4l-2.2-1.5l2.7-0.5
				c3.2-0.6,6.9-2.3,10.6-4.9c3.6-2.6,6.6-5.3,8.4-8.1l1.5-2.2l0.5,2.6c0.6,3.2,2.3,6.9,4.9,10.6c2.5,3.6,5.3,6.6,8.1,8.4l2.2,1.5
				l-2.7,0.5c-3.2,0.6-6.9,2.3-10.6,4.9c-3.6,2.5-6.6,5.3-8.4,8.1L331.9,149.5z"/>
		</g>
		<g>
			<path stroke="#000000" stroke-width="3.5" stroke-miterlimit="10" d="M325.2,150.5"/>
		</g>
		<g>
			<g>
				<path fill="#F2BD05" d="M287.8,114.2"/>
			</g>
			<g>
				<path fill="#F2BD05" d="M296,130l-0.5-2.7c-0.4-2-1.6-4.5-3.1-6.8c-1.6-2.3-3.4-4.3-5.2-5.3l-2.2-1.5l2.7-0.5
					c2-0.4,4.5-1.6,6.8-3.1c2.3-1.6,4.3-3.4,5.3-5.2l1.5-2.2l0.5,2.7c0.4,2,1.6,4.5,3.1,6.8c1.6,2.3,3.4,4.3,5.2,5.3l2.2,1.5
					l-2.7,0.5c-2,0.4-4.5,1.6-6.8,3.1c-2.3,1.6-4.3,3.4-5.3,5.2L296,130z"/>
			</g>
			<g>
				<path fill="#F2BD05" d="M296.5,127.1"/>
			</g>
		</g>
		<g>
			<g>
				<path fill="#F2BD05" d="M309.5,162.7"/>
			</g>
			<g>
				<path fill="#F2BD05" d="M315.4,174.8l-0.5-2.7c-0.3-1.4-1.1-3.2-2.2-4.8c-1.1-1.6-2.5-3-3.6-3.8l-2.2-1.5l2.7-0.5
					c1.4-0.3,3.2-1.1,4.8-2.2c1.6-1.1,3-2.5,3.8-3.6l1.5-2.2l0.5,2.7c0.3,1.4,1.1,3.2,2.2,4.8c1.1,1.6,2.5,3,3.6,3.8l2.2,1.5
					l-2.7,0.5c-1.4,0.3-3.2,1.1-4.8,2.2c-1.6,1.1-3,2.5-3.8,3.6L315.4,174.8z"/>
			</g>
			<g>
				<path fill="#F2BD05" d="M315.9,171.9"/>
			</g>
		</g>
		
			<rect x="351" y="164.8" transform="matrix(-0.826 0.5637 -0.5637 -0.826 756.1082 136.1233)" fill="#CCCCCC" width="12.1" height="40"/>
		
			<rect x="403.3" y="189.2" transform="matrix(-0.826 0.5637 -0.5637 -0.826 894.7553 246.6675)" fill="#009639" width="12.1" height="144.4"/>
	</g>
	<circle fill="#3680C2" cx="251.3" cy="179.8" r="8.6"/>
	<circle fill="#3680C2" cx="277.1" cy="179.8" r="8.6"/>
</g>
</svg>
