<?xml version="1.0" encoding="utf-8"?>
<!-- Generator: Adobe Illustrator 18.1.1, SVG Export Plug-In . SVG Version: 6.00 Build 0)  -->
<!DOCTYPE svg PUBLIC "-//W3C//DTD SVG 1.1//EN" "http://www.w3.org/Graphics/SVG/1.1/DTD/svg11.dtd">
<svg version="1.1" id="Layer_1" xmlns="http://www.w3.org/2000/svg" xmlns:xlink="http://www.w3.org/1999/xlink" x="0px" y="0px"
	 viewBox="17 354.3 562.2 130.5" enable-background="new 17 354.3 562.2 130.5" xml:space="preserve">
<g>
	<g>
		<path fill="#68B6D5" d="M447.2,448.2H18c-0.6,0-1-0.4-1-1s0.4-1,1-1h429.2c0.6,0,1,0.4,1,1S447.8,448.2,447.2,448.2z"/>
	</g>
	<g id="path27_2_">
		<path fill="#68B6D5" d="M488.4,484.8h-13.5c-0.3,0-0.6-0.2-0.8-0.4s-0.2-0.6-0.1-0.9l20.9-55l-23.6-1.2L461,447.5
			c-0.3,0.5-0.9,0.7-1.3,0.4c-0.5-0.3-0.7-0.9-0.4-1.3l10.6-20.9c0.2-0.4,0.5-0.6,0.9-0.5l25.6,1.3c0.3,0,0.6,0.2,0.8,0.5
			s0.2,0.6,0.1,0.9l-20.9,54.9h11.5l44.1-55.9c0.2-0.2,0.5-0.4,0.8-0.4h29.6c5.3,0,10.4-1.9,14.1-5.2c0.5-0.4,0.8-1,0.8-1.7
			c0-0.7-0.3-1.3-0.7-1.7c-3.8-3.4-8.9-5.3-14.2-5.3h-29.6c-0.3,0-0.6-0.1-0.8-0.4l-44.1-55.9h-11.5l21.1,55.1
			c0.1,0.3,0.1,0.6-0.1,0.9c-0.2,0.3-0.5,0.4-0.8,0.5l-25.6,1.3c-0.4,0-0.8-0.2-0.9-0.5L459.7,394h-11.4l10.1,25.4
			c0.1,0.2,0.1,0.5,0,0.7l-10.6,26.7c-0.2,0.5-0.8,0.8-1.3,0.6c-0.5-0.2-0.8-0.8-0.6-1.3l10.5-26.4l-10.5-26.4
			c-0.1-0.3-0.1-0.7,0.1-0.9c0.2-0.3,0.5-0.4,0.8-0.4h13.5c0.4,0,0.7,0.2,0.9,0.5l10.3,19.5l23.6-1.2L474,355.6
			c-0.1-0.3-0.1-0.7,0.1-0.9s0.5-0.4,0.8-0.4h13.5c0.3,0,0.6,0.1,0.8,0.4l44.1,55.9h29.1c5.8,0,11.4,2.1,15.5,5.8
			c0.9,0.7,1.5,1.9,1.5,3.2s-0.6,2.5-1.5,3.3c-4,3.6-9.6,5.7-15.4,5.7h-29.1l-44.1,55.9C489,484.6,488.7,484.8,488.4,484.8z"/>
	</g>
	<g>
		<rect x="17.1" y="389.6" fill="none" width="403.2" height="48.9"/>
	</g>
	<g enable-background="new    ">
		<path fill="#68B6D5" d="M40.5,423.4H28.4l-2.2,7.5h-9l12.4-38.5h9.6l12.5,38.5h-9L40.5,423.4z M30.4,416.5h8.2l-4-13.8h-0.2
			L30.4,416.5z"/>
		<path fill="#68B6D5" d="M64,430.9h-8.9v-38.5H64V430.9z"/>
		<path fill="#68B6D5" d="M79.6,416.1v14.8h-9v-38.5h14.8c4.5,0,8,1,10.6,3.1c2.6,2.1,3.9,4.9,3.9,8.5c0,2-0.5,3.7-1.6,5.1
			c-1,1.4-2.6,2.6-4.6,3.5c2.4,0.7,4.1,1.8,5.1,3.3c1,1.6,1.5,3.5,1.5,5.8v2.4c0,1,0.1,2.2,0.4,3.4c0.3,1.3,0.8,2.2,1.6,2.8v0.5
			h-9.2c-0.7-0.5-1.2-1.5-1.4-2.9c-0.2-1.4-0.3-2.7-0.3-3.9v-2.3c0-1.8-0.5-3.2-1.5-4.2c-1-1-2.4-1.5-4.3-1.5H79.6z M79.6,409.3h5.9
			c1.8,0,3.2-0.4,4.1-1.2c1-0.8,1.4-2,1.4-3.5c0-1.6-0.5-2.8-1.5-3.8c-1-1-2.4-1.4-4.1-1.4h-5.8V409.3z"/>
		<path fill="#68B6D5" d="M115.3,417.7v13.2h-9v-38.5H122c4.6,0,8.2,1.2,10.9,3.5s4,5.4,4,9.2c0,3.8-1.3,6.8-4,9.2
			c-2.7,2.3-6.3,3.5-10.9,3.5H115.3z M115.3,410.8h6.7c1.9,0,3.4-0.5,4.4-1.6c1-1.1,1.5-2.4,1.5-4.1c0-1.7-0.5-3.1-1.5-4.2
			c-1-1.1-2.5-1.6-4.4-1.6h-6.7V410.8z"/>
		<path fill="#68B6D5" d="M150.9,424h16.6v6.9h-25.5v-38.5h9V424z"/>
		<path fill="#68B6D5" d="M192.2,423.4h-12.1l-2.2,7.5h-9l12.4-38.5h9.6l12.5,38.5h-9L192.2,423.4z M182,416.5h8.2l-4-13.8H186
			L182,416.5z"/>
		<path fill="#68B6D5" d="M238.2,430.9h-8.9l-14.1-24.5l-0.2,0.1v24.5h-9v-38.5h9l14.1,24.5l0.2-0.1v-24.5h8.9V430.9z"/>
		<path fill="#68B6D5" d="M268.4,414.4h-15.1v9.6h17.8v6.9h-26.8v-38.5h26.8v6.9h-17.8v8.3h15.1V414.4z"/>
	</g>
	<g enable-background="new    ">
		<path fill="#68B6D5" d="M279.4,392.4l14.1,33.9h0.2l14.2-33.9h4.2v38.5h-3.1v-17l0.3-16.8L309,397l-14.3,33.9h-2.2l-14.3-33.7
			l-0.2,0l0.3,16.7v17h-3.1v-38.5H279.4z"/>
		<path fill="#68B6D5" d="M350.2,414.8c0,5-1.4,9-4.1,12.1s-6.4,4.6-11,4.6c-4.5,0-8.1-1.5-10.8-4.6s-4-7.1-4-12.1v-6.3
			c0-5,1.3-9,4-12.1c2.7-3.1,6.3-4.6,10.8-4.6c4.6,0,8.2,1.5,11,4.6c2.7,3.1,4.1,7.1,4.1,12.1V414.8z M347.1,408.5
			c0-4.2-1.1-7.5-3.2-10.1c-2.1-2.5-5-3.8-8.8-3.8c-3.7,0-6.5,1.3-8.6,3.8c-2,2.5-3.1,5.9-3.1,10.1v6.3c0,4.2,1,7.6,3.1,10.1
			c2.1,2.5,4.9,3.8,8.6,3.8c3.8,0,6.7-1.3,8.8-3.8c2.1-2.5,3.1-5.9,3.1-10.1V408.5z"/>
		<path fill="#68B6D5" d="M358.6,430.9v-38.5h11.2c4.7,0,8.6,1.6,11.7,4.7c3.1,3.1,4.6,7.2,4.6,12.1v4.9c0,4.9-1.5,9-4.6,12.1
			s-7,4.7-11.7,4.7H358.6z M361.7,395.1v33.1h8c3.8,0,6.9-1.3,9.4-4c2.5-2.7,3.7-6,3.7-10.1v-5c0-4-1.2-7.4-3.7-10s-5.6-4-9.4-4
			H361.7z"/>
		<path fill="#68B6D5" d="M415.8,412.2h-18.5v15.9h21.2v2.7h-24.4v-38.5h24.2v2.7h-21.1v14.5h18.5V412.2z"/>
	</g>
</g>
</svg>
