<?xml version="1.0" encoding="utf-8"?>
<!-- Generator: Adobe Illustrator 18.0.0, SVG Export Plug-In . SVG Version: 6.00 Build 0)  -->
<!DOCTYPE svg PUBLIC "-//W3C//DTD SVG 1.1//EN" "http://www.w3.org/Graphics/SVG/1.1/DTD/svg11.dtd">
<svg version="1.1" id="Layer_1" xmlns="http://www.w3.org/2000/svg" xmlns:xlink="http://www.w3.org/1999/xlink" x="0px" y="0px"
	 viewBox="380 180 200 200" enable-background="new 380 180 200 200" xml:space="preserve">
<g>
	<path fill="none" stroke="#000000" stroke-width="3" stroke-miterlimit="10" d="M461,286.4c-0.7-0.4-1-0.7-1-0.7
		c-0.6-1-0.6-5.2-0.6-8c0-7.7,0.1-14.3-5.9-27.1c-1.2-2.7-2.4-5.1-3.4-7.4c-8-17.1-11.7-21.1-11.7-31.5c0-6.4,3-15,9.6-18.5
		c7.2-3.9,19.7-6,31.9-6s24.7,2.1,31.9,6c6.5,3.5,9.6,12.1,9.6,18.5c0,10.3-3.7,14.4-11.7,31.5c-1.1,2.3-2.2,4.7-3.4,7.4
		c-5.9,12.9-5.9,19.4-5.9,27.1c0,2.8,0,7-0.6,8c0,0-0.2,0.2-0.9,0.6H461z"/>
	<rect x="396.9" y="316" fill="none" stroke="#000000" stroke-width="3" stroke-miterlimit="10" width="166.3" height="32.8"/>
	<rect x="459.7" y="291.9" fill="none" stroke="#000000" stroke-width="3" stroke-miterlimit="10" width="40.6" height="18.7"/>
	<polygon fill="none" stroke="#000000" stroke-width="3" stroke-miterlimit="10" points="547.8,372.7 412.2,372.7 409.5,354.2 
		550.5,354.2 	"/>
</g>
</svg>
