<?xml version="1.0" encoding="utf-8"?>
<!-- Generator: Adobe Illustrator 18.0.0, SVG Export Plug-In . SVG Version: 6.00 Build 0)  -->
<!DOCTYPE svg PUBLIC "-//W3C//DTD SVG 1.1//EN" "http://www.w3.org/Graphics/SVG/1.1/DTD/svg11.dtd">
<svg version="1.1" id="Layer_1" xmlns="http://www.w3.org/2000/svg" xmlns:xlink="http://www.w3.org/1999/xlink" x="0px" y="0px"
	 viewBox="987.9 180 200 200" enable-background="new 987.9 180 200 200" xml:space="preserve">
<g>
	<polygon fill="none" stroke="#000000" stroke-width="3" stroke-miterlimit="10" points="1097.5,358.8 1088.1,358.8 1088.1,340.4 
		1078.8,340.4 1078.8,322 1069.4,322 1069.4,331.4 1060,331.4 1060,340.7 1050.7,340.7 1050.7,350.1 1041.3,350.1 1032,350.1 
		1032,191.8 1041.3,191.8 1041.3,201.4 1050.7,201.4 1050.7,210.7 1060,210.7 1060,220.1 1069.1,220.1 1069.1,229.4 1078.4,229.4 
		1078.4,238.8 1087.8,238.8 1087.8,248.1 1097.2,248.1 1097.2,257.5 1106.5,257.5 1106.5,266.8 1115.9,266.8 1115.9,276.2 
		1125.2,276.2 1125.2,285.6 1134.4,285.6 1134.4,294.9 1143.8,294.9 1143.8,304.3 1134.4,304.3 1134.4,313.3 1133.8,313.3 
		1125.1,313.3 1106.5,313.3 1106.5,322.4 1115.9,322.4 1115.9,340.7 1125.2,340.7 1125.2,359.1 1115.9,359.1 1115.9,368.2 
		1097.5,368.2 	"/>
</g>
</svg>
