<?xml version="1.0" encoding="utf-8"?>
<!-- Generator: Adobe Illustrator 18.0.0, SVG Export Plug-In . SVG Version: 6.00 Build 0)  -->
<!DOCTYPE svg PUBLIC "-//W3C//DTD SVG 1.1//EN" "http://www.w3.org/Graphics/SVG/1.1/DTD/svg11.dtd">
<svg version="1.1" id="Layer_1" xmlns="http://www.w3.org/2000/svg" xmlns:xlink="http://www.w3.org/1999/xlink" x="0px" y="0px"
	 viewBox="672.9 180 200 200" enable-background="new 672.9 180 200 200" xml:space="preserve">
<g>
	<path fill="none" stroke="#000000" stroke-width="3" stroke-miterlimit="10" d="M725,320.1h-21.1c-9.4,0-17-7.6-17-17v-48
		c0-9.4,7.6-17,17-17h138c9.4,0,17,7.6,17,17v48c0,9.4-7.6,17-17,17h-21.1"/>
	<g>
		<line fill="none" stroke="#000000" stroke-width="3" stroke-miterlimit="10" x1="738.8" y1="304" x2="807" y2="304"/>
		<line fill="none" stroke="#000000" stroke-width="3" stroke-miterlimit="10" x1="738.8" y1="318.6" x2="807" y2="318.6"/>
		<line fill="none" stroke="#000000" stroke-width="3" stroke-miterlimit="10" x1="738.8" y1="333.3" x2="807" y2="333.3"/>
		<line fill="none" stroke="#000000" stroke-width="3" stroke-miterlimit="10" x1="738.8" y1="348" x2="807" y2="348"/>
	</g>
	<polyline fill="none" stroke="#000000" stroke-width="3" stroke-miterlimit="10" points="725,238.3 725,198.9 820.8,198.9 
		820.8,238.3 	"/>
	<rect x="725" y="290.2" fill="none" stroke="#000000" stroke-width="3" stroke-miterlimit="10" width="95.7" height="71"/>
</g>
</svg>
