<?xml version="1.0" encoding="utf-8"?>
<!-- Generator: Adobe Illustrator 18.0.0, SVG Export Plug-In . SVG Version: 6.00 Build 0)  -->
<!DOCTYPE svg PUBLIC "-//W3C//DTD SVG 1.1//EN" "http://www.w3.org/Graphics/SVG/1.1/DTD/svg11.dtd">
<svg version="1.1" id="Layer_1" xmlns="http://www.w3.org/2000/svg" xmlns:xlink="http://www.w3.org/1999/xlink" x="0px" y="0px"
	 viewBox="0 0 600 300" enable-background="new 0 0 600 300" xml:space="preserve">
<g>
	<path fill="none" stroke="#989899" stroke-width="7" stroke-linecap="round" stroke-linejoin="round" stroke-miterlimit="10" d="
		M286.8,216.1c16-71.9-13.2-105.7-13.2-105.7c-68.7,37.7-66.1,69.4-66.1,69.4s28-38.4,154.5-26.4"/>
	<path fill="none" stroke="#989899" stroke-width="7" stroke-linecap="round" stroke-linejoin="round" stroke-miterlimit="10" d="
		M392.5,206c0,0,4.9-85.3-42.9-125.9"/>
	<path fill="none" stroke="#989899" stroke-width="7" stroke-linecap="round" stroke-linejoin="round" stroke-miterlimit="10" d="
		M207.5,179.8c60.2,0.6,77.3,36.3,77.3,36.3s42.5-25,107.7-6.6c16.8,4.7-30.4-56.2-30.4-56.2c-20.9-37.7-88.5-42.9-88.5-42.9
		c18.2-25.7,76-33,76-33"/>
	<path fill="#3680C2" d="M299.3,216.1c0,6.9-5.6,12.5-12.5,12.5c-6.9,0-12.5-5.6-12.5-12.5c0-6.9,5.6-12.5,12.5-12.5
		C293.7,203.6,299.3,209.2,299.3,216.1"/>
	<path fill="#08AFA1" d="M372,153.4c0,6.9-5.6,12.5-12.5,12.5s-12.5-5.6-12.5-12.5c0-6.9,5.6-12.5,12.5-12.5S372,146.5,372,153.4"/>
	<path fill="#EFBA29" d="M405,209.5c0,6.9-5.6,12.5-12.5,12.5c-6.9,0-12.5-5.6-12.5-12.5c0-6.9,5.6-12.5,12.5-12.5
		C399.4,197,405,202.6,405,209.5"/>
	<path fill="#EFBA29" d="M362.1,77.4c0,6.9-5.6,12.5-12.5,12.5c-6.9,0-12.5-5.6-12.5-12.5c0-6.9,5.6-12.5,12.5-12.5
		C356.5,64.9,362.1,70.5,362.1,77.4"/>
	<path fill="#3680C2" d="M220,179.8c0,6.9-5.6,12.5-12.5,12.5c-6.9,0-12.5-5.6-12.5-12.5c0-6.9,5.6-12.5,12.5-12.5
		C214.4,167.3,220,172.9,220,179.8"/>
	<path fill="#08AFA1" d="M286.1,110.4c0,6.9-5.6,12.5-12.5,12.5c-6.9,0-12.5-5.6-12.5-12.5c0-6.9,5.6-12.5,12.5-12.5
		C280.5,97.9,286.1,103.5,286.1,110.4"/>
</g>
</svg>
