<?xml version="1.0" encoding="utf-8"?>
<!-- Generator: Adobe Illustrator 18.0.0, SVG Export Plug-In . SVG Version: 6.00 Build 0)  -->
<!DOCTYPE svg PUBLIC "-//W3C//DTD SVG 1.1//EN" "http://www.w3.org/Graphics/SVG/1.1/DTD/svg11.dtd">
<svg version="1.1" id="Layer_1" xmlns="http://www.w3.org/2000/svg" xmlns:xlink="http://www.w3.org/1999/xlink" x="0px" y="0px"
	 viewBox="0 0 600 300" enable-background="new 0 0 600 300" xml:space="preserve">
<g>
	<g>
		<g>
			<g>
				<path fill="none" stroke="#009739" stroke-width="7" stroke-linecap="round" stroke-miterlimit="10" d="M309.8,208.1
					c1.1-0.4,2.2-0.8,3.3-1.2"/>
				
					<path fill="none" stroke="#009739" stroke-width="7" stroke-linecap="round" stroke-miterlimit="10" stroke-dasharray="7.0351,14.0702" d="
					M326.5,202.7c21.9-5.6,40.5-4.6,55.7-0.6"/>
				<path fill="none" stroke="#009739" stroke-width="7" stroke-linecap="round" stroke-miterlimit="10" d="M389,204.1
					c1.1,0.4,2.2,0.8,3.3,1.2"/>
			</g>
		</g>
		<g>
			<g>
				<path fill="none" stroke="#009739" stroke-width="7" stroke-linecap="round" stroke-miterlimit="10" d="M261.1,89.9
					c-1.2-0.2-2.3-0.4-3.5-0.5"/>
				
					<path fill="none" stroke="#009739" stroke-width="7" stroke-linecap="round" stroke-miterlimit="10" stroke-dasharray="6.6775,13.355" d="
					M244.4,87.7c-71.2-6.5-95,27.4-95.8,65.6c-0.2,11.7,2.8,25.5,9.2,38.4"/>
				<path fill="none" stroke="#009739" stroke-width="7" stroke-linecap="round" stroke-miterlimit="10" d="M161,197.6
					c0.6,1,1.2,2,1.8,3"/>
			</g>
		</g>
		<g>
			<g>
				<path fill="none" stroke="#009739" stroke-width="7" stroke-linecap="round" stroke-miterlimit="10" d="M430.5,70.5
					c0,0-0.9,0.9-2.6,2.4"/>
				
					<path fill="none" stroke="#009739" stroke-width="7" stroke-linecap="round" stroke-miterlimit="10" stroke-dasharray="7.7306,15.4612" d="
					M415.4,81.9c-3.8,2.3-8.4,4.8-13.7,7.2"/>
				<path fill="none" stroke="#009739" stroke-width="7" stroke-linecap="round" stroke-miterlimit="10" d="M394.5,92
					c-1.1,0.4-2.2,0.8-3.3,1.2"/>
			</g>
		</g>
	</g>
	<g>
		<g>
			<rect x="217.4" y="218.4" fill="#3981C1" width="38" height="49"/>
			
				<rect x="238.4" y="202.2" transform="matrix(0.9603 0.2788 -0.2788 0.9603 71.8164 -64.0646)" fill="#EFBA2A" width="45.4" height="36.3"/>
			
				<rect x="187.1" y="191.9" transform="matrix(0.9555 -0.2949 0.2949 0.9555 -55.3172 71.9732)" fill="#BF1E43" width="47.8" height="55"/>
		</g>
		<g>
			<g>
				
					<path fill="none" stroke="#999999" stroke-width="7" stroke-linecap="round" stroke-linejoin="round" stroke-miterlimit="10" d="
					M235.7,274.1h30.6c5.6,0,10.5-3.7,12.1-9l14.5-48.2h-57.2h-57.2l14.5,48.2c1.6,5.3,6.5,9,12.1,9H235.7z"/>
				
					<polyline fill="none" stroke="#999999" stroke-width="7" stroke-linecap="round" stroke-linejoin="round" stroke-miterlimit="10" points="
					286,237.5 237.2,237.5 187,237.5 				"/>
				
					<polyline fill="none" stroke="#999999" stroke-width="7" stroke-linecap="round" stroke-linejoin="round" stroke-miterlimit="10" points="
					279,254.5 235.7,254.5 191,254.5 				"/>
			</g>
			
				<line fill="none" stroke="#999999" stroke-width="7" stroke-linecap="round" stroke-linejoin="round" stroke-miterlimit="10" x1="208.5" y1="274" x2="208.5" y2="219"/>
			
				<line fill="none" stroke="#999999" stroke-width="7" stroke-linecap="round" stroke-linejoin="round" stroke-miterlimit="10" x1="261.5" y1="274" x2="261.5" y2="219"/>
			
				<line fill="none" stroke="#999999" stroke-width="7" stroke-linecap="round" stroke-linejoin="round" stroke-miterlimit="10" x1="233.5" y1="274" x2="233.5" y2="178"/>
		</g>
	</g>
	<g>
		<g>
			
				<line fill="none" stroke="#999999" stroke-width="7" stroke-linecap="round" stroke-linejoin="round" stroke-miterlimit="10" x1="311.2" y1="53.4" x2="324.9" y2="48.3"/>
			<path fill="none" stroke="#999999" stroke-width="7" stroke-linecap="round" stroke-linejoin="round" stroke-miterlimit="10" d="
				M323.6,31.8c0-4.5,4.2-8.1,8.9-7c2,0.4,3.7,1.8,4.6,3.5c2.4,4.4-0.4,8.7-4.3,10.1c-1.7,0.6-2.8,2.1-2.8,3.9v0.3
				c0,2.1,1.3,4,3.3,4.8l16.3,6"/>
		</g>
		
			<polyline fill="none" stroke="#EE7AAA" stroke-width="7" stroke-linecap="round" stroke-linejoin="round" stroke-miterlimit="10" points="
			361.8,113.3 361.9,84.1 380.5,89.7 387.5,61.4 361.9,52.6 356,52.6 330.8,66.1 329.9,66.1 304.8,52.6 298.9,52.6 273.2,61.4 
			280.3,89.7 298.9,84.1 298.9,140.2 337.8,140.2 		"/>
		
			<polyline fill="none" stroke="#EE7AAA" stroke-width="7" stroke-linecap="round" stroke-linejoin="round" stroke-miterlimit="10" points="
			321.8,140.2 329.6,140.2 330.8,140.2 		"/>
		
			<polyline fill="none" stroke="#EE7AAA" stroke-width="7" stroke-linecap="round" stroke-linejoin="round" stroke-miterlimit="10" points="
			342,149.5 366.5,149.5 366.5,118 		"/>
		<g>
			
				<circle fill="none" stroke="#3981C1" stroke-width="7" stroke-linecap="round" stroke-linejoin="round" stroke-miterlimit="10" cx="362.5" cy="140.5" r="24.6"/>
			
				<line fill="none" stroke="#3981C1" stroke-width="7" stroke-linecap="round" stroke-linejoin="round" stroke-miterlimit="10" x1="383.3" y1="159" x2="399.2" y2="174.9"/>
		</g>
	</g>
	<path fill="none" stroke="#999999" stroke-width="7" stroke-linecap="round" stroke-linejoin="round" stroke-miterlimit="10" d="
		M437.8,271.7c0.6,0.9,1.8,1.2,2.7,0.6l9.8-5.8c0.5-0.3,0.8-0.7,0.9-1.3c0.1-0.5,0-1.1-0.3-1.6l-11-17.1l9.9-2.7
		c0.8-0.2,1.3-0.8,1.5-1.6c0.1-0.8-0.2-1.5-0.8-2l-37.8-26.7c-0.7-0.5-1.5-0.5-2.2-0.1c-0.7,0.4-1.1,1.2-0.9,2l7.2,46.5
		c0.1,0.8,0.7,1.4,1.5,1.6c0.8,0.2,1.6-0.1,2.1-0.7l6.6-8.5l0,0L437.8,271.7z"/>
</g>
</svg>
