<?xml version="1.0" encoding="utf-8"?>
<!-- Generator: Adobe Illustrator 18.0.0, SVG Export Plug-In . SVG Version: 6.00 Build 0)  -->
<!DOCTYPE svg PUBLIC "-//W3C//DTD SVG 1.1//EN" "http://www.w3.org/Graphics/SVG/1.1/DTD/svg11.dtd">
<svg version="1.1" id="Layer_1" xmlns="http://www.w3.org/2000/svg" xmlns:xlink="http://www.w3.org/1999/xlink" x="0px" y="0px"
	 viewBox="0 0 600 300" enable-background="new 0 0 600 300" xml:space="preserve">
<g>
	
		<polyline fill="none" stroke="#999999" stroke-width="6.2671" stroke-linecap="round" stroke-linejoin="round" stroke-miterlimit="10" points="
		367.6,65.6 394,65.6 394,286.8 206,286.8 206,65.6 232.4,65.6 	"/>
	<path fill="none" stroke="#3981C1" stroke-width="7" stroke-linecap="round" stroke-linejoin="round" stroke-miterlimit="10" d="
		M368.9,74.5H231.1c0-13,9.4-23,20.8-23h27.9c-3.2-2-5.1-9.7-5.1-15.4c0-14,11.3-25.2,25.3-25.2s25.3,11.5,25.3,25.5
		c0,5.7-1.9,13.2-5.1,15.2h27.9C359.5,51.5,368.9,61.5,368.9,74.5z M300,26.9c-5.1,0-9.2,4.1-9.2,9.2s4.1,9.2,9.2,9.2
		c5.1,0,9.2-4.1,9.2-9.2S305.1,26.9,300,26.9z"/>
	<g>
		<g>
			
				<polyline fill="none" stroke="#13A04A" stroke-width="6.2671" stroke-linecap="round" stroke-linejoin="round" stroke-miterlimit="10" points="
				238.9,104.5 243.5,115.5 262,92.1 			"/>
			
				<polyline fill="none" stroke="#EFBA2A" stroke-width="6.2671" stroke-linecap="round" stroke-linejoin="round" stroke-miterlimit="10" points="
				260.6,110.3 260.6,126.4 226.4,126.4 226.4,92.2 248.2,92.2 			"/>
		</g>
		
			<line fill="none" stroke="#CCCCCC" stroke-width="7" stroke-linecap="round" stroke-linejoin="round" stroke-miterlimit="10" x1="274" y1="114.5" x2="371" y2="114.5"/>
	</g>
	<g>
		<g>
			
				<polyline fill="none" stroke="#13A04A" stroke-width="6.2671" stroke-linecap="round" stroke-linejoin="round" stroke-miterlimit="10" points="
				238.9,151.8 243.5,162.7 262,139.4 			"/>
			
				<polyline fill="none" stroke="#EFBA2A" stroke-width="6.2671" stroke-linecap="round" stroke-linejoin="round" stroke-miterlimit="10" points="
				260.6,157.5 260.6,173.6 226.4,173.6 226.4,139.4 248.2,139.4 			"/>
		</g>
		
			<line fill="none" stroke="#CCCCCC" stroke-width="7" stroke-linecap="round" stroke-linejoin="round" stroke-miterlimit="10" x1="274" y1="158.5" x2="371" y2="158.5"/>
	</g>
	<g>
		
			<rect x="226.4" y="186.6" fill="none" stroke="#EFBA2A" stroke-width="6.2671" stroke-linecap="round" stroke-linejoin="round" stroke-miterlimit="10" width="34.2" height="34.2"/>
		
			<line fill="none" stroke="#CCCCCC" stroke-width="7" stroke-linecap="round" stroke-linejoin="round" stroke-miterlimit="10" x1="274" y1="201.5" x2="371" y2="201.5"/>
	</g>
	<g>
		
			<rect x="226.4" y="233.8" fill="none" stroke="#EFBA2A" stroke-width="6.2671" stroke-linecap="round" stroke-linejoin="round" stroke-miterlimit="10" width="34.2" height="34.2"/>
		
			<line fill="none" stroke="#CCCCCC" stroke-width="7" stroke-linecap="round" stroke-linejoin="round" stroke-miterlimit="10" x1="274" y1="246.5" x2="371" y2="246.5"/>
	</g>
</g>
</svg>
