<?xml version="1.0" encoding="utf-8"?>
<!-- Generator: Adobe Illustrator 18.0.0, SVG Export Plug-In . SVG Version: 6.00 Build 0)  -->
<!DOCTYPE svg PUBLIC "-//W3C//DTD SVG 1.1//EN" "http://www.w3.org/Graphics/SVG/1.1/DTD/svg11.dtd">
<svg version="1.1" id="Layer_1" xmlns="http://www.w3.org/2000/svg" xmlns:xlink="http://www.w3.org/1999/xlink" x="0px" y="0px"
	 viewBox="0 0 600 409" enable-background="new 0 0 600 409" xml:space="preserve">
<g>
	<g>
		<g>
			<path fill="none" stroke="#3980C1" stroke-width="7" stroke-linecap="round" stroke-linejoin="round" stroke-miterlimit="10" d="
				M257.6,95.4c0,0-9.1-0.6-2.5,13.5c0,0-4.3,26.2,4,48.5c8.2,22.3,11,3.1,11,3.1s3.2-26.3-5.2-41.5S272.2,99.3,257.6,95.4z"/>
			<path fill="none" stroke="#3980C1" stroke-width="7" stroke-linecap="round" stroke-linejoin="round" stroke-miterlimit="10" d="
				M266.4,94.8h-15.9c-0.3,0-0.6-0.3-0.6-0.6v-4c0-0.3,0.3-0.6,0.6-0.6h15.9c0.3,0,0.6,0.3,0.6,0.6v4
				C267,94.5,266.7,94.8,266.4,94.8z"/>
			<path fill="none" stroke="#3980C1" stroke-width="7" stroke-linecap="round" stroke-linejoin="round" stroke-miterlimit="10" d="
				M266.4,88.8h-15.9c-0.3,0-0.6-0.3-0.6-0.6v-4c0-0.3,0.3-0.6,0.6-0.6h15.9c0.3,0,0.6,0.3,0.6,0.6v4
				C267,88.5,266.7,88.8,266.4,88.8z"/>
			<path fill="none" stroke="#3980C1" stroke-width="7" stroke-linecap="round" stroke-linejoin="round" stroke-miterlimit="10" d="
				M266.4,82.7h-15.9c-0.3,0-0.6-0.3-0.6-0.6v-4c0-0.3,0.3-0.6,0.6-0.6h15.9c0.3,0,0.6,0.3,0.6,0.6v4
				C267,82.4,266.7,82.7,266.4,82.7z"/>
			<path fill="none" stroke="#3980C1" stroke-width="7" stroke-linecap="round" stroke-linejoin="round" stroke-miterlimit="10" d="
				M259.6,158.9c0,0-12.2,21.2,2,16c0,0,25.3-17.6,9-20.8"/>
			<path fill="none" stroke="#3980C1" stroke-width="7" stroke-linecap="round" stroke-linejoin="round" stroke-miterlimit="10" d="
				M254.8,174.5c0,0,5,5.7,6.9,18.8c0,0-1.9,16.5,5.4,8.2c0,0,14.2-12.8,9.1-43.7C276.1,157.7,266.2,179.7,254.8,174.5z"/>
			<path fill="none" stroke="#3980C1" stroke-width="7" stroke-linecap="round" stroke-linejoin="round" stroke-miterlimit="10" d="
				M277.2,166.4c0,0,10.5,14.2,29.5,14.3c0,0-1.1,16.1-18.1,27.8c-16.9,11.7-23.8,22.4-24.3,27.2c0,0-9.9,2.7,2.6-34.3
				C267,201.5,278.4,189.6,277.2,166.4z"/>
			<path fill="none" stroke="#3980C1" stroke-width="7" stroke-linecap="round" stroke-linejoin="round" stroke-miterlimit="10" d="
				M264.4,235.8c0,0-6.2,36.6,3.2,59c0,0,15.6-6.9,33-33.9c0,0-1.2-55.9,1.2-66.3c0,0-4.7,9.5-19.7,18.7
				C282.1,213.4,268.3,223.7,264.4,235.8z"/>
			<path fill="none" stroke="#3980C1" stroke-width="7" stroke-linecap="round" stroke-linejoin="round" stroke-miterlimit="10" d="
				M267.6,294.8c0,0-8.9,25.9-2.7,52.6c0,0,6-14,15.1-19.9c0,0,19.3-12.3,26.8-14.9c0,0,0.2-3.9-7.3-7.8l1.1-43.9
				C300.6,261,280.7,290.5,267.6,294.8z"/>
			<path fill="none" stroke="#3980C1" stroke-width="7" stroke-linecap="round" stroke-linejoin="round" stroke-miterlimit="10" d="
				M264.9,347.5c0,0-4.1,6.2-6,6.4h48.7c0,0-3.7-26.1-0.9-41.2C306.7,312.7,276.8,321.2,264.9,347.5z"/>
			<path fill="none" stroke="#3980C1" stroke-width="7" stroke-linecap="round" stroke-linejoin="round" stroke-miterlimit="10" d="
				M299.4,304.9l21.5-13.5c0,0-7.8,43.3,0,62.5h-13.3"/>
			<path fill="none" stroke="#3980C1" stroke-width="7" stroke-linecap="round" stroke-linejoin="round" stroke-miterlimit="10" d="
				M300.3,234.2c0,0,7.4-3.2,9.9-12.8c0,0,2.2-17.2,6.4-1.4c0,0,2,15.2,0,26.1c-2,10.9,6,34.6,8.9,42.8l-4.6,2.5"/>
			<path fill="none" stroke="#3980C1" stroke-width="7" stroke-linecap="round" stroke-linejoin="round" stroke-miterlimit="10" d="
				M306.7,182.5c0,0,10.1-1.1,13,8.7c0,0,8.2,79.7,10.8,94.5l2.1,11l-5.7,3.9l2.5,21.1l-4.6,6c-2.3,14,6,26.3,6,26.3h-9.8"/>
			<path fill="none" stroke="#3980C1" stroke-width="7" stroke-linecap="round" stroke-linejoin="round" stroke-miterlimit="10" d="
				M347.5,215.9c0,0-11.9-5-10.8,17.9c0,0,3.4,4.8,9.2-2.5C345.9,231.2,355.3,220.2,347.5,215.9z"/>
			<path fill="none" stroke="#3980C1" stroke-width="7" stroke-linecap="round" stroke-linejoin="round" stroke-miterlimit="10" d="
				M336.7,233.7l-11,13c0,0,1.1,6.2,9.6,9.2C335.4,255.9,342.4,255,336.7,233.7z"/>
			
				<polyline fill="none" stroke="#3980C1" stroke-width="7" stroke-linecap="round" stroke-linejoin="round" stroke-miterlimit="10" points="
				322.9,220.9 336.6,199.9 351.8,208.8 347.5,215.9 			"/>
			<path fill="none" stroke="#3980C1" stroke-width="7" stroke-linecap="round" stroke-linejoin="round" stroke-miterlimit="10" d="
				M300.6,180.2l5.5-24.9c2.2-14.6-11.8-14.4-11.8-14.4l-0.3,0.1c0,0-14.1-0.2-11.8,14.4l4.4,19.2"/>
			
				<polyline fill="none" stroke="#3980C1" stroke-width="7" stroke-linecap="round" stroke-linejoin="round" stroke-miterlimit="10" points="
				281.5,153.2 271.9,150.9 278.3,145.8 274.7,137.8 282.5,137.8 281.1,128.9 289.1,131.8 294.2,121.6 293.7,121.6 298.7,131.8 
				306.8,128.9 305.4,137.8 313.1,137.8 309.6,145.8 316,150.9 306.3,153.2 			"/>
		</g>
		
			<rect x="254.8" y="361" fill="none" stroke="#3980C1" stroke-width="7" stroke-linecap="round" stroke-linejoin="round" stroke-miterlimit="10" width="84.1" height="14.6"/>
		<path fill="none" stroke="#3980C1" stroke-width="7" stroke-linecap="round" stroke-linejoin="round" stroke-miterlimit="10" d="
			M253,75.5c0,0-7.3-1.5-3.9-10.9c0,0,4.1-7.7,7-13.6c0,0,0.3,5,2.4,8c0,0,1.8-4.8,6.9-7c0,0,3.6-2.3,4.8-5c0,0-3.1,10.9-2.5,15.2
			c0,0,2.1,11.7-4.8,13.3H253z"/>
	</g>
</g>
</svg>
