<?xml version="1.0" encoding="utf-8"?>
<!-- Generator: Adobe Illustrator 18.0.0, SVG Export Plug-In . SVG Version: 6.00 Build 0)  -->
<!DOCTYPE svg PUBLIC "-//W3C//DTD SVG 1.1//EN" "http://www.w3.org/Graphics/SVG/1.1/DTD/svg11.dtd">
<svg version="1.1" id="Layer_1" xmlns="http://www.w3.org/2000/svg" xmlns:xlink="http://www.w3.org/1999/xlink" x="0px" y="0px"
	 viewBox="0 0 600 300" enable-background="new 0 0 600 300" xml:space="preserve">
<g>
	<g>
		<g>
			<path fill="none" stroke="#EFBA2A" stroke-width="7" stroke-miterlimit="10" d="M344.8,182.1l-17.7,17.7c-0.5,0.5-1.4,0.5-2,0
				l-4.9-4.9c-0.5-0.5-0.5-1.4,0-2l17.7-17.7c0.5-0.5,1.4-0.5,2,0l4.9,4.9C345.3,180.7,345.3,181.6,344.8,182.1z"/>
			<path fill="none" stroke="#EFBA2A" stroke-width="7" stroke-miterlimit="10" d="M405.1,244.2l-15.9,15.9c-1,1-2.7,1-3.7,0
				l-51.3-51.3c-1-1-1-2.7,0-3.7l15.9-15.9c1-1,2.7-1,3.7,0l51.3,51.3C406.1,241.5,406.1,243.2,405.1,244.2z"/>
		</g>
		<g>
			<defs>
				<circle id="SVGID_7_" cx="269" cy="124" r="74.8"/>
			</defs>
			<clipPath id="SVGID_2_">
				<use xlink:href="#SVGID_7_"  overflow="visible"/>
			</clipPath>
			<g clip-path="url(#SVGID_2_)">
				<g>
					
						<path fill="none" stroke="#EFBA2A" stroke-width="7" stroke-linecap="round" stroke-linejoin="round" stroke-miterlimit="10" d="
						M209.8,205c-44.9,0-81.4-36.5-81.4-81.4c0-44.9,36.5-81.4,81.4-81.4c3.2,0,6.5,0.2,10.5,0.7l6.1,0.8l-0.9,6.1
						c-0.2,1.2-0.3,2-0.3,2.8c0,10.4,8.5,18.9,18.9,18.9c1.7,0,3.6-0.3,5.7-1l6.2-2l1.5,6.4c1.2,5.2,4.7,9.7,9.5,12.2l3.7,2
						l-0.6,4.9c-0.1,0.5-0.2,1-0.2,1.5c0,9.3,6.7,17.2,16,18.6l4.9,0.8l0.3,6c0.1,0.9,0.1,1.7,0.1,2.6
						C291.2,168.4,254.7,205,209.8,205z"/>
				</g>
				<g>
					<path fill="#F79432" stroke="#F79432" stroke-width="3.5" stroke-miterlimit="10" d="M212.7,153.8c3.7,5.3,8.8,9.3,14.8,11.5
						c2.1,0.8,5.4,0,6.9-1.8c3-3.7,5.5-7.4,6-12.3c0.5-4.5-2.2-8.8-6.2-10.8c-2.5-1.3-5.1-1.7-7.9-1.9c-2.9-0.2-4.9,0.7-7.1,2.4
						c-1.8,1.4-3.6,2.9-5.4,4.3c-3,2.4-2.5,7.5,0,10c2.9,3,7,2.4,10,0c2-1.6,3.9-3.1,5.9-4.7c-1.7,0.7-3.3,1.4-5,2.1
						c0.8,0,1.6,0,2.4,0.1c-1.4-0.1,0.9,0.3,1.2,0.4c-1.8-0.6,0.5,0.8-1.1-0.6c0.5,0.6,0.4,0.4-0.4-0.5c-0.4-1.1-0.5-1.3-0.3-0.6
						c-0.5-2-0.4,0.2,0-1.6c-0.1,0.4-0.9,2.3-0.2,0.8c-0.3,0.5-0.6,1.1-0.9,1.6c-0.2,0.4-0.5,0.7-0.7,1.1c0.4-0.5,0.3-0.4-0.2,0.3
						c2.3-0.6,4.6-1.2,6.9-1.8c-1.9-0.7,1.2,0.6-0.8-0.4c-0.9-0.5-1.8-1.1-2.6-1.7c0.4,0.3,0.2,0.2-0.5-0.4
						c-0.4-0.3-0.8-0.7-1.2-1.1c-0.2-0.2-1.8-2.2-1.3-1.5c-2.2-3.2-6.1-4.6-9.7-2.5C212.2,145.9,210.5,150.6,212.7,153.8z"/>
				</g>
				<g>
					<path fill="#F79432" stroke="#F79432" stroke-width="3.5" stroke-miterlimit="10" d="M231.9,106.2c4.5,3.5,7.3,8.2,10.7,12.7
						c3.2-3.2,6.4-6.5,9.7-9.7c-4.3-3.1-9.4-3.7-14.1-5.9c1.1,2.7,2.2,5.3,3.3,8c0.8-2.7,1.6-5.5,2.3-8.2
						c2.5-8.8-11.1-12.5-13.6-3.8c-0.8,2.7-1.6,5.5-2.4,8.3c-0.8,2.8,0.4,6.6,3.2,8c4.7,2.2,9.9,2.9,14.1,5.9c5.7,4,13.9-4,9.7-9.7
						c-4-5.4-7.5-11.4-12.9-15.6c-3-2.4-7-3-10,0C229.5,98.7,228.9,103.8,231.9,106.2z"/>
				</g>
				<g>
					<path fill="#F79432" stroke="#F79432" stroke-width="3.5" stroke-miterlimit="10" d="M183.5,156.8c0,1.3,0,2.6-0.1,3.9
						c-0.1,0.9-0.1,0.9,0,0.1c0,0.2-0.7,2.1-0.1,0.7c2-1.2,4.1-2.3,6.1-3.5c-0.6,0-1.1,0-1.7-0.1c1.9,0.2-0.1-0.1-0.5-0.2
						c1.7,0.5,0.6,0.3,0.1,0c-0.6-0.4-0.5-0.3,0.5,0.3c-0.5-0.5-0.4-0.4,0.3,0.5c-0.2-0.3-0.4-0.7-0.6-1.1c0.9,1.8,0.1,0-0.1-0.6
						c-0.1-0.4-0.1-0.7-0.2-1c0.1,0.9,0.1,1,0,0.1c-0.1-0.9-0.1-1.8-0.1-2.6c-3,2.3-6,4.5-8.9,6.8c3.5,1.2,7.1,2.4,10.6,3.5
						c3.7,1.2,7.7-1.4,8.7-4.9c1.1-3.9-1.3-7.5-4.9-8.7c-3.5-1.2-7.1-2.4-10.6-3.5c-4.4-1.5-9,2.4-8.9,6.8c0,4.2,0.5,9.2,3.2,12.7
						c3.4,4.4,7.9,6.1,13.3,6.1c2.3,0,5.1-1.3,6.1-3.5c1.8-3.8,2.1-7.6,2.2-11.8C197.6,147.7,183.5,147.7,183.5,156.8z"/>
				</g>
				<g>
					<path fill="#F79432" stroke="#F79432" stroke-width="3.5" stroke-miterlimit="10" d="M178.2,112c-0.2,1.2,1.8-3.9,1.3-2.6
						c0.5-1.4,0.6-2.8,0.8-4.2c0.4-3.2-2.5-5.9-5.2-6.8c-1.5-0.5-3.2-0.6-4.7-1.1c-2.8-0.9-6.6,0.5-8,3.2c-4,7.9-11.1,20.1-6.4,29.1
						c3.7,7.1,12.7,5,18.2,1.7c5.2-3.1,11.9-8.7,8.5-15.5c-4.5-9.1-18,0.3-23.2,3.4c3.5,2,7.1,4.1,10.6,6.1c0.1-2.3,1-4.4,1.2-6.7
						c0.5-3.9-3.1-7.5-5.3-10.2c0.7,1.7,1.4,3.3,2.1,5c-0.2,0.4-0.4,0.8-0.6,1.2c-1.4,1.1-2.8,2.2-4.2,3.2c-1.4,0.6-0.3,0,0.5,0
						c1.9-0.1,3.4-0.6,5-1.5c-1.8,0.2-3.6,0.5-5.4,0.7c1.9,0.5,3.8,1.1,5.8,1.6c8.8,2.5,12.5-11.2,3.8-13.6
						c-1.9-0.5-3.9-1.1-5.8-1.6c-1.3-0.3-2.5-0.3-3.8,0c-5.5,1.5,1.8,0.3-0.9,0.3c-3,0-5.4,1.4-7.1,3.7c-1.3,1.7-1.5,3.9-1.4,5.9
						c0.1,3,2,4.6,3.5,6.9c-0.8-1.2,0.2-4.2-0.7-1.4c-0.7,2-0.8,4.3-0.9,6.4c-0.2,5.4,6.1,8.8,10.6,6.1c2.9-1.7,5.8-3.4,8.8-4.9
						c1.7-0.8-1.1,0.3,1.2-0.4c0.7-0.2,2-0.3-0.8,0c-2.8,0.3-6.1-3.3-6.3-6.6c0-0.7,0.7-2.8,0.8-3c-0.3,0.5-1.1,1.4,0.6-0.7
						c-0.4,0.5-0.9,1-1.4,1.5c-0.2,0.2-0.4,0.4-0.7,0.6c-1.3,1.1,1.2-0.9,0.2-0.1c-0.7,0.5-1.5,1-2.2,1.5c-0.7,0.4-1.3,0.7-2,1.1
						c2.4-1.1-0.1,0-0.8,0.1c2.3-0.5,1.5-0.2,0.9-0.1c-1.5,0,1.7,0.4,0.7,0.1c2,0.5,2.7,1.7,3.1,3c-0.2-0.5-0.2-1.7,0,0.7
						c-0.1-0.5,0-1,0-1.5c0.1-1.1-0.3,1.5,0.1-0.5c0.2-0.8,0.4-1.6,0.6-2.4c1.2-4.2,3.2-8.2,5.2-12.1c-2.7,1.1-5.3,2.2-8,3.2
						c1.6,0.5,3.2,0.6,4.7,1.1c-1.7-2.3-3.5-4.5-5.2-6.8c0.2-1.2-1.8,3.9-1.3,2.6c-0.5,1.4-0.6,2.8-0.8,4.2
						c-0.5,3.8,3.6,7.1,7.1,7.1C175.4,119.1,177.7,115.9,178.2,112z"/>
				</g>
				<g>
					<path fill="#F79432" stroke="#F79432" stroke-width="3.5" stroke-miterlimit="10" d="M194.3,112.8c3.1,3,7.2,5.3,11.7,5.1
						c4.1-0.2,8.3-2.3,10.2-6.1c2.2-4.3,1.4-8.9-1.9-12.4c-3.4-3.7-9.2-4.5-13.9-4.6c-3,0-6.2,2.2-6.8,5.2c-0.4,2-0.8,3.9-1.2,5.9
						c-0.8,3.8,1,7.6,4.9,8.7c3.5,1,7.9-1.2,8.7-4.9c0.4-2,0.8-3.9,1.2-5.9c-2.3,1.7-4.5,3.5-6.8,5.2c0.7,0,1.3,0,2,0.1
						c0.9,0.1,0.8,0.1-0.1,0c0.3,0,0.7,0.1,1,0.2c0.5,0.1,2.5,0.9,0.4,0c0.4,0.2,0.9,0.5,1.3,0.7c-1.7-1.1-0.9-0.7-0.5-0.3
						c-0.8-1.1-1-1.4-0.6-0.8c-0.5-1.3-0.6-1.6-0.4-1c0.3,1-0.1-2.2-0.1-0.7c0.3-1.5,0.3-1.9,0.1-1.2c-0.2,0.7-0.1,0.3,0.4-1
						c-0.3,0.5-1,1.1,0.5-0.6c-1,1.1,1.3-0.9,0.4-0.3c-1.3,0.9,1.5-0.5,0.4-0.2c-1.6,0.5,1.6-0.1,0.4,0c-0.6,0-1.7-0.2,0.6,0.1
						c-0.5-0.1-2.1-0.7-0.1,0.2c-0.5-0.2-1-0.5-1.5-0.8c-0.6-0.4-0.5-0.4,0.3,0.2c-0.3-0.2-0.5-0.5-0.8-0.7c-2.8-2.7-7.2-2.8-10,0
						C191.6,105.5,191.5,110.1,194.3,112.8z"/>
				</g>
				<g>
					<path fill="#F79432" stroke="#F79432" stroke-width="3.5" stroke-miterlimit="10" d="M262,50.9c9.1,0,9.1-14.1,0-14.1
						C252.9,36.8,252.9,50.9,262,50.9L262,50.9z"/>
				</g>
				<g>
					<path fill="#F79432" stroke="#F79432" stroke-width="3.5" stroke-miterlimit="10" d="M278.5,71.3c9.1,0,9.1-14.1,0-14.1
						C269.4,57.2,269.4,71.3,278.5,71.3L278.5,71.3z"/>
				</g>
				<g>
					<path fill="#F79432" stroke="#F79432" stroke-width="3.5" stroke-miterlimit="10" d="M288.7,105.9c5.1,0,5.1-7.9,0-7.9
						C283.6,98,283.6,105.9,288.7,105.9L288.7,105.9z"/>
				</g>
			</g>
		</g>
	</g>
	
		<circle fill="none" stroke="#3980C1" stroke-width="7" stroke-linecap="round" stroke-linejoin="round" stroke-miterlimit="10" cx="269" cy="124" r="74.8"/>
</g>
</svg>
