<?xml version="1.0" encoding="utf-8"?>
<!-- Generator: Adobe Illustrator 18.0.0, SVG Export Plug-In . SVG Version: 6.00 Build 0)  -->
<!DOCTYPE svg PUBLIC "-//W3C//DTD SVG 1.1//EN" "http://www.w3.org/Graphics/SVG/1.1/DTD/svg11.dtd">
<svg version="1.1" id="Layer_1" xmlns="http://www.w3.org/2000/svg" xmlns:xlink="http://www.w3.org/1999/xlink" x="0px" y="0px"
	 viewBox="0 0 600 300" enable-background="new 0 0 600 300" xml:space="preserve">
<g>
	
		<polyline fill="none" stroke="#666666" stroke-width="7" stroke-linecap="round" stroke-linejoin="round" stroke-miterlimit="10" points="
		194.2,115.4 203.8,105.8 213.4,115.4 	"/>
	<g>
		
			<polyline fill="none" stroke="#666666" stroke-width="7" stroke-linecap="round" stroke-linejoin="round" stroke-miterlimit="10" points="
			339.6,221.7 203.8,221.7 203.8,119 		"/>
		
			<polyline fill="none" stroke="#13A04A" stroke-width="7" stroke-linecap="round" stroke-linejoin="round" stroke-miterlimit="10" points="
			213.6,207.9 242.8,169.8 266.1,194.8 335.4,160.1 		"/>
		
			<polyline fill="none" stroke="#85C555" stroke-width="7" stroke-linecap="round" stroke-linejoin="round" stroke-miterlimit="10" points="
			213.6,194.8 276.8,166.3 304.6,194.8 335.4,137.8 		"/>
		
			<polyline fill="none" stroke="#666666" stroke-width="7" stroke-linecap="round" stroke-linejoin="round" stroke-miterlimit="10" points="
			344.4,212.1 354,221.7 344.4,231.3 		"/>
		<g>
			<g>
				<g>
					
						<circle fill="#FFFFFF" stroke="#999999" stroke-width="7" stroke-linecap="round" stroke-linejoin="round" stroke-miterlimit="10" cx="311.1" cy="137.6" r="51.9"/>
					<path fill="#F79432" d="M363.7,178.6l-12.3,12.3c-0.4,0.4-1,0.4-1.4,0l-3.4-3.4c-0.4-0.4-0.4-1,0-1.4l12.3-12.3
						c0.4-0.4,1-0.4,1.4,0l3.4,3.4C364.1,177.6,364.1,178.2,363.7,178.6z"/>
					<path fill="#F79432" d="M405,222.2l-9.9,9.9c-1,1-2.7,1-3.7,0l-34.5-34.5c-1-1-1-2.7,0-3.7l9.9-9.9c1-1,2.7-1,3.7,0l34.5,34.5
						C406.1,219.5,406.1,221.2,405,222.2z"/>
				</g>
			</g>
			<g>
				<defs>
					<circle id="SVGID_5_" cx="311.1" cy="137.6" r="50.6"/>
				</defs>
				<clipPath id="SVGID_2_">
					<use xlink:href="#SVGID_5_"  overflow="visible"/>
				</clipPath>
				
					<polyline clip-path="url(#SVGID_2_)" fill="none" stroke="#13A04A" stroke-width="7" stroke-linecap="round" stroke-linejoin="round" stroke-miterlimit="10" points="
					135.9,186.9 199.6,104 250.3,158.3 401.1,82.8 				"/>
				
					<polyline clip-path="url(#SVGID_2_)" fill="none" stroke="#85C555" stroke-width="7" stroke-linecap="round" stroke-linejoin="round" stroke-miterlimit="10" points="
					135.9,158.3 273.7,96.3 334.1,158.3 401.1,34.3 				"/>
			</g>
		</g>
	</g>
</g>
</svg>
