<?xml version="1.0" encoding="utf-8"?>
<!-- Generator: Adobe Illustrator 18.0.0, SVG Export Plug-In . SVG Version: 6.00 Build 0)  -->
<!DOCTYPE svg PUBLIC "-//W3C//DTD SVG 1.1//EN" "http://www.w3.org/Graphics/SVG/1.1/DTD/svg11.dtd">
<svg version="1.1" id="Layer_1" xmlns="http://www.w3.org/2000/svg" xmlns:xlink="http://www.w3.org/1999/xlink" x="0px" y="0px"
	 viewBox="0 0 65 65" enable-background="new 0 0 65 65" xml:space="preserve">
<g>
	<path fill="none" stroke="#000000" stroke-linecap="round" stroke-linejoin="round" stroke-miterlimit="10" d="M15.8,48.4V27
		c0-0.5,0.4-0.8,0.8-0.8h7c0.5,0,0.8,0.4,0.8,0.8v21.4c0,0.5-0.4,0.8-0.8,0.8h-7C16.1,49.2,15.8,48.8,15.8,48.4z"/>
	<path fill="none" stroke="#000000" stroke-linecap="round" stroke-linejoin="round" stroke-miterlimit="10" d="M15.4,18.7
		c0-2.6,1.9-4.5,4.8-4.5c2.8,0,4.7,2,4.7,4.5c0,2.5-1.9,4.5-4.8,4.5C17.2,23.2,15.4,21.2,15.4,18.7z"/>
	<path fill="none" stroke="#000000" stroke-linecap="round" stroke-linejoin="round" stroke-miterlimit="10" d="M36.6,27.5
		c1.2-0.9,2.8-1.7,5.2-1.7c5.2,0,9,3.5,9,10.4v11.9c0,0.6-0.5,1.1-1.1,1.1h-6.5c-0.6,0-1.1-0.5-1.1-1.1V37c0-2.6-0.8-3.9-2.8-4
		c-1.9,0-2.7,1.1-2.9,2.1c-0.1,0.3-0.2,0.8-0.2,1.4v11.5c0,0.6-0.5,1.1-1.1,1.1h-6.8c-0.5,0-0.8-0.4-0.8-0.8c0,0,0.1-19.2,0-21.2
		c0-0.5,0.4-0.9,0.8-0.9l6.8,0c0.5,0,1.1,0.4,1.1,1C36.3,27.9,36.6,27.5,36.6,27.5z"/>
	<path fill="none" stroke="#000000" stroke-linecap="round" stroke-linejoin="round" stroke-miterlimit="10" d="M57.5,54.3V10.7
		c0-1.8-1.4-3.2-3.2-3.2H10.7c-1.8,0-3.2,1.4-3.2,3.2v43.6c0,1.8,1.4,3.2,3.2,3.2h43.6C56.1,57.5,57.5,56.1,57.5,54.3z"/>
</g>
</svg>
