<?xml version="1.0" encoding="utf-8"?>
<!-- Generator: Adobe Illustrator 18.1.1, SVG Export Plug-In . SVG Version: 6.00 Build 0)  -->
<!DOCTYPE svg PUBLIC "-//W3C//DTD SVG 1.1//EN" "http://www.w3.org/Graphics/SVG/1.1/DTD/svg11.dtd">
<svg version="1.1" id="Layer_1" xmlns="http://www.w3.org/2000/svg" xmlns:xlink="http://www.w3.org/1999/xlink" x="0px" y="0px"
	 viewBox="0 0 40 40" enable-background="new 0 0 40 40" xml:space="preserve">
<g id="XMLID_56_">
	<polyline id="XMLID_161_" fill="#FFFFFF" points="39.4,25.5 39.3,25.1 37,25.2 18.4,25.9 16,26 16.1,26.4 	"/>
	<g id="XMLID_146_">
		<g>
			<defs>
				<rect id="SVGID_1_" x="0.6" y="11.9" width="38.8" height="16.5"/>
			</defs>
			<clipPath id="SVGID_2_">
				<use xlink:href="#SVGID_1_"  overflow="visible"/>
			</clipPath>
			
				<polyline id="XMLID_160_" clip-path="url(#SVGID_2_)" fill="none" stroke="#4D4E4E" stroke-width="8.945766e-02" stroke-miterlimit="10" points="
				39.4,25.5 39.3,25.1 37,25.2 18.4,25.9 16,26 16.1,26.4 			"/>
		</g>
		<g>
			<defs>
				<rect id="SVGID_3_" x="0.6" y="11.9" width="38.8" height="16.5"/>
			</defs>
			<clipPath id="SVGID_4_">
				<use xlink:href="#SVGID_3_"  overflow="visible"/>
			</clipPath>
			<path id="XMLID_159_" clip-path="url(#SVGID_4_)" fill="#FFFFFF" d="M27.3,13.3c0-0.1,0-0.1-0.1-0.1s-0.1,0-0.1,0.1
				s0,0.1,0.1,0.1S27.3,13.3,27.3,13.3"/>
		</g>
		<g>
			<defs>
				<rect id="SVGID_5_" x="0.6" y="11.9" width="38.8" height="16.5"/>
			</defs>
			<clipPath id="SVGID_6_">
				<use xlink:href="#SVGID_5_"  overflow="visible"/>
			</clipPath>
			
				<circle id="XMLID_158_" clip-path="url(#SVGID_6_)" fill="none" stroke="#4D4E4E" stroke-width="8.945766e-02" stroke-miterlimit="10" cx="27.2" cy="13.3" r="0.1"/>
		</g>
		<g>
			<defs>
				<rect id="SVGID_7_" x="0.6" y="11.9" width="38.8" height="16.5"/>
			</defs>
			<clipPath id="SVGID_8_">
				<use xlink:href="#SVGID_7_"  overflow="visible"/>
			</clipPath>
			<path id="XMLID_157_" clip-path="url(#SVGID_8_)" fill="#FFFFFF" d="M27.7,25.5L27.7,25.5L26,25.6c0,0,0.1,0.3,0.3,0.3
				c0.2,0,1.1,0,1.3-0.1h0.1c0.2,0,1.1,0,1.3-0.1c0.3,0,0.3-0.3,0.3-0.3L27.7,25.5z"/>
		</g>
		<g>
			<defs>
				<rect id="SVGID_9_" x="0.6" y="11.9" width="38.8" height="16.5"/>
			</defs>
			<clipPath id="SVGID_10_">
				<use xlink:href="#SVGID_9_"  overflow="visible"/>
			</clipPath>
			
				<path id="XMLID_156_" clip-path="url(#SVGID_10_)" fill="none" stroke="#4D4E4E" stroke-width="8.945766e-02" stroke-miterlimit="10" d="
				M27.7,25.5L27.7,25.5L26,25.6c0,0,0.1,0.3,0.3,0.3c0.2,0,1.1,0,1.3-0.1h0.1c0.2,0,1.1,0,1.3-0.1c0.3,0,0.3-0.3,0.3-0.3L27.7,25.5
				z"/>
		</g>
		<g>
			<defs>
				<rect id="SVGID_11_" x="0.6" y="11.9" width="38.8" height="16.5"/>
			</defs>
			<clipPath id="SVGID_12_">
				<use xlink:href="#SVGID_11_"  overflow="visible"/>
			</clipPath>
			<path id="XMLID_155_" clip-path="url(#SVGID_12_)" fill="#FFFFFF" d="M16.1,26.4L16.1,26.4c0,0,0.2,0.3,1.4,0.3
				c1.2,0,10.2-0.4,10.2-0.4h0.1c0,0,9-0.4,10.2-0.4c1.2,0,1.3-0.4,1.3-0.4l0,0"/>
		</g>
		<g>
			<defs>
				<rect id="SVGID_13_" x="0.6" y="11.9" width="38.8" height="16.5"/>
			</defs>
			<clipPath id="SVGID_14_">
				<use xlink:href="#SVGID_13_"  overflow="visible"/>
			</clipPath>
			
				<path id="XMLID_154_" clip-path="url(#SVGID_14_)" fill="none" stroke="#4D4E4E" stroke-width="8.945766e-02" stroke-miterlimit="10" d="
				M16.1,26.4L16.1,26.4c0,0,0.2,0.3,1.4,0.3c1.2,0,10.2-0.4,10.2-0.4h0.1c0,0,9-0.4,10.2-0.4c1.2,0,1.3-0.4,1.3-0.4l0,0"/>
		</g>
		<g>
			<defs>
				<rect id="SVGID_15_" x="0.6" y="11.9" width="38.8" height="16.5"/>
			</defs>
			<clipPath id="SVGID_16_">
				<use xlink:href="#SVGID_15_"  overflow="visible"/>
			</clipPath>
			<path id="XMLID_151_" clip-path="url(#SVGID_16_)" fill="#FFFFFF" d="M36.5,24.4l-17.8,0.7L18.3,14l17.8-0.7L36.5,24.4z
				 M37.2,24.7l-0.5-11.4c0-0.4-0.4-0.7-0.8-0.7l-17.6,0.7c-0.4,0-0.7,0.4-0.7,0.8l0.5,11.4c0,0.2,0.1,0.4,0.2,0.5L37,25.2
				C37.1,25,37.2,24.8,37.2,24.7"/>
		</g>
		<g>
			<defs>
				<rect id="SVGID_17_" x="0.6" y="11.9" width="38.8" height="16.5"/>
			</defs>
			<clipPath id="SVGID_18_">
				<use xlink:href="#SVGID_17_"  overflow="visible"/>
			</clipPath>
			
				<path id="XMLID_148_" clip-path="url(#SVGID_18_)" fill="none" stroke="#333333" stroke-width="8.945766e-02" stroke-miterlimit="10" d="
				M36.5,24.4l-17.8,0.7L18.3,14l17.8-0.7L36.5,24.4z M37.2,24.7l-0.5-11.4c0-0.4-0.4-0.7-0.8-0.7l-17.6,0.7c-0.4,0-0.7,0.4-0.7,0.8
				l0.5,11.4c0,0.2,0.1,0.4,0.2,0.5L37,25.2C37.1,25,37.2,24.8,37.2,24.7z"/>
		</g>
	</g>
	
		<rect id="XMLID_145_" x="18.5" y="13.7" transform="matrix(0.9992 -3.949352e-02 3.949352e-02 0.9992 -0.7372 1.0952)" fill="#FFFFFF" width="17.8" height="11.1"/>
	
		<rect id="XMLID_144_" x="18.5" y="13.7" transform="matrix(0.9992 -3.949352e-02 3.949352e-02 0.9992 -0.7372 1.0952)" fill="none" stroke="#333333" stroke-width="8.945766e-02" stroke-miterlimit="10" width="17.8" height="11.1"/>
	<g id="XMLID_140_">
		<g>
			<defs>
				<rect id="SVGID_19_" x="0.6" y="11.9" width="38.8" height="16.5"/>
			</defs>
			<clipPath id="SVGID_20_">
				<use xlink:href="#SVGID_19_"  overflow="visible"/>
			</clipPath>
			<path id="XMLID_143_" clip-path="url(#SVGID_20_)" fill="#FFFFFF" d="M18.2,25.2c0.4-0.1,0.6-0.4,0.5-0.8l-2.3-10.8
				c-0.1-0.4-0.4-0.6-0.8-0.5l-14.4,3c-0.4,0.1-0.6,0.4-0.5,0.8L3,27.7c0,0.4,0.4,0.6,0.7,0.6L18.2,25.2z"/>
		</g>
		<g>
			<defs>
				<rect id="SVGID_21_" x="0.6" y="11.9" width="38.8" height="16.5"/>
			</defs>
			<clipPath id="SVGID_22_">
				<use xlink:href="#SVGID_21_"  overflow="visible"/>
			</clipPath>
			
				<path id="XMLID_142_" clip-path="url(#SVGID_22_)" fill="none" stroke="#4D4E4E" stroke-width="9.262764e-02" stroke-miterlimit="10" d="
				M18.2,25.2c0.4-0.1,0.6-0.4,0.5-0.8l-2.3-10.8c-0.1-0.4-0.4-0.6-0.8-0.5l-14.4,3c-0.4,0.1-0.6,0.4-0.5,0.8L3,27.7
				c0,0.4,0.4,0.6,0.7,0.6L18.2,25.2z"/>
		</g>
	</g>
	
		<rect id="XMLID_139_" x="4.1" y="14.2" transform="matrix(-0.2053 -0.9787 0.9787 -0.2053 -8.6222 34.4567)" fill="#FFFFFF" width="11.2" height="13"/>
	
		<rect id="XMLID_138_" x="4.1" y="14.2" transform="matrix(-0.2053 -0.9787 0.9787 -0.2053 -8.6222 34.4567)" fill="none" stroke="#333333" stroke-width="8.945766e-02" stroke-miterlimit="10" width="11.2" height="13"/>
	<g id="XMLID_134_">
		<g>
			<defs>
				<rect id="SVGID_23_" x="0.6" y="11.9" width="38.8" height="16.5"/>
			</defs>
			<clipPath id="SVGID_24_">
				<use xlink:href="#SVGID_23_"  overflow="visible"/>
			</clipPath>
			<path id="XMLID_137_" clip-path="url(#SVGID_24_)" fill="#FFFFFF" d="M16.8,19.3c0.1,0,0.1-0.1,0.1-0.1c0-0.1-0.1-0.1-0.1-0.1
				c-0.1,0-0.1,0.1-0.1,0.1C16.7,19.3,16.8,19.3,16.8,19.3"/>
		</g>
		<g>
			<defs>
				
					<rect id="SVGID_25_" x="-2.9" y="14.3" transform="matrix(-0.2052 -0.9787 0.9787 -0.2052 -2.1821 43.3609)" width="38.8" height="16.5"/>
			</defs>
			<clipPath id="SVGID_26_">
				<use xlink:href="#SVGID_25_"  overflow="visible"/>
			</clipPath>
			
				<ellipse id="XMLID_136_" clip-path="url(#SVGID_26_)" fill="none" stroke="#4D4E4E" stroke-width="9.262764e-02" stroke-miterlimit="10" cx="16.8" cy="19.2" rx="0.1" ry="0.1"/>
		</g>
	</g>
	
		<rect id="XMLID_133_" x="15.7" y="14.2" transform="matrix(-0.9958 -9.194047e-02 9.194047e-02 -0.9958 35.53 40.7081)" fill="#FFFFFF" width="6" height="10.6"/>
	
		<rect id="XMLID_132_" x="15.7" y="14.2" transform="matrix(-0.9958 -9.194047e-02 9.194047e-02 -0.9958 35.53 40.7081)" fill="none" stroke="#9A9A9A" stroke-width="8.945766e-02" stroke-miterlimit="10" width="6" height="10.6"/>
	<g id="XMLID_128_">
		<g>
			<defs>
				<rect id="SVGID_27_" x="0.6" y="11.9" width="38.8" height="16.5"/>
			</defs>
			<clipPath id="SVGID_28_">
				<use xlink:href="#SVGID_27_"  overflow="visible"/>
			</clipPath>
			<path id="XMLID_131_" clip-path="url(#SVGID_28_)" fill="#A4702A" d="M33.5,22.6l-28.1,1c-0.1-0.1-0.2-0.1-0.2-0.2L5,18.1
				c0-0.1,0.1-0.2,0.2-0.2l28.1-1c0.1,0,0.2,0.1,0.2,0.2l0.2,5.2C33.7,22.5,33.6,22.5,33.5,22.6"/>
		</g>
		<g>
			<defs>
				<rect id="SVGID_29_" x="0.6" y="11.9" width="38.8" height="16.5"/>
			</defs>
			<clipPath id="SVGID_30_">
				<use xlink:href="#SVGID_29_"  overflow="visible"/>
			</clipPath>
			<path id="XMLID_130_" clip-path="url(#SVGID_30_)" fill="#F4C016" d="M33.5,22.2l-28.2,1c-0.1,0-0.2-0.1-0.2-0.2L5,17.8
				c0-0.1,0.1-0.2,0.2-0.2l28.2-1c0.1,0,0.2,0.1,0.2,0.2l0.2,5.2C33.7,22.1,33.6,22.2,33.5,22.2"/>
		</g>
	</g>
	<polygon id="XMLID_127_" fill="#FFFFFF" points="7.4,21.6 7.4,19.3 7.8,19.2 7.9,21.1 8.9,21.1 8.9,21.5 	"/>
	<g id="XMLID_120_">
		<g>
			<defs>
				<rect id="SVGID_31_" x="0.6" y="11.9" width="38.8" height="16.5"/>
			</defs>
			<clipPath id="SVGID_32_">
				<use xlink:href="#SVGID_31_"  overflow="visible"/>
			</clipPath>
			<path id="XMLID_124_" clip-path="url(#SVGID_32_)" fill="#FFFFFF" d="M11.1,21.1c0.1,0,0.2,0,0.3-0.1c0.1,0,0.2-0.1,0.2-0.2
				c0.1-0.1,0.1-0.2,0.1-0.2c0-0.1,0-0.2,0-0.3c0-0.1,0-0.2-0.1-0.3c0-0.1-0.1-0.2-0.2-0.2c-0.1-0.1-0.1-0.1-0.2-0.2
				c-0.1,0-0.2-0.1-0.3,0c-0.1,0-0.2,0-0.3,0.1c-0.1,0-0.2,0.1-0.2,0.2c-0.1,0.1-0.1,0.2-0.1,0.2c0,0.1,0,0.2,0,0.3
				c0,0.1,0,0.2,0.1,0.3c0,0.1,0.1,0.2,0.1,0.2c0.1,0.1,0.1,0.1,0.2,0.2C10.9,21,10.9,21.1,11.1,21.1 M11.1,21.5
				c-0.2,0-0.3,0-0.5-0.1s-0.3-0.1-0.4-0.2c-0.1-0.1-0.2-0.2-0.3-0.4c-0.1-0.1-0.1-0.3-0.1-0.5s0-0.3,0.1-0.5
				c0.1-0.1,0.1-0.3,0.2-0.4c0.1-0.1,0.2-0.2,0.4-0.3c0.2,0,0.3,0,0.5,0s0.3,0,0.5,0.1s0.3,0.1,0.4,0.2c0.1,0.1,0.2,0.2,0.3,0.4
				c0.1,0.1,0.1,0.3,0.1,0.5s0,0.3-0.1,0.5c-0.1,0.1-0.1,0.3-0.2,0.4c-0.1,0.1-0.2,0.2-0.4,0.3C11.4,21.5,11.2,21.5,11.1,21.5"/>
		</g>
		<g>
			<defs>
				<rect id="SVGID_33_" x="0.6" y="11.9" width="38.8" height="16.5"/>
			</defs>
			<clipPath id="SVGID_34_">
				<use xlink:href="#SVGID_33_"  overflow="visible"/>
			</clipPath>
			<path id="XMLID_123_" clip-path="url(#SVGID_34_)" fill="#FFFFFF" d="M14.4,21.4c-0.2,0-0.3,0-0.5-0.1s-0.3-0.1-0.4-0.2
				c-0.1-0.1-0.2-0.2-0.3-0.4c-0.1-0.1-0.1-0.3-0.1-0.5s0-0.4,0.1-0.5c0.1-0.2,0.1-0.3,0.3-0.4c0.1-0.1,0.2-0.2,0.4-0.3
				c0.1-0.1,0.3-0.1,0.5-0.1c0.1,0,0.2,0,0.3,0S14.9,19,15,19s0.2,0.1,0.2,0.2c0.1,0.1,0.1,0.1,0.2,0.2L15,19.6
				c-0.1-0.1-0.1-0.1-0.2-0.2c-0.1-0.1-0.2-0.1-0.3-0.1s-0.2,0-0.3,0.1c-0.1,0-0.2,0.1-0.2,0.2c-0.1,0.1-0.1,0.2-0.1,0.2
				c0,0.1,0,0.2,0,0.3c0,0.1,0,0.2,0.1,0.3c0,0.1,0.1,0.2,0.2,0.2c0.1,0.1,0.1,0.1,0.2,0.2c0.1,0,0.2,0.1,0.3,0c0.1,0,0.2,0,0.3-0.1
				c0.1,0,0.2-0.1,0.2-0.1v-0.3h-0.6v-0.4h1.1v0.9c-0.1,0.1-0.3,0.2-0.4,0.3C14.8,21.3,14.6,21.4,14.4,21.4"/>
		</g>
		<g>
			<defs>
				<rect id="SVGID_35_" x="0.6" y="11.9" width="38.8" height="16.5"/>
			</defs>
			<clipPath id="SVGID_36_">
				<use xlink:href="#SVGID_35_"  overflow="visible"/>
			</clipPath>
			<path id="XMLID_122_" clip-path="url(#SVGID_36_)" fill="#FFFFFF" d="M17.5,21.3c-0.2,0-0.3,0-0.5-0.1s-0.3-0.1-0.4-0.2
				s-0.2-0.2-0.3-0.4c-0.1-0.1-0.1-0.3-0.1-0.5s0-0.4,0.1-0.5c0.1-0.2,0.1-0.3,0.3-0.4c0.1-0.1,0.2-0.2,0.4-0.3
				c0.1-0.1,0.3-0.1,0.5-0.1c0.1,0,0.2,0,0.3,0c0.1,0,0.2,0.1,0.3,0.1c0.1,0,0.2,0.1,0.2,0.2c0.1,0.1,0.1,0.1,0.2,0.2L18,19.6
				c-0.1-0.1-0.1-0.1-0.2-0.2s-0.2-0.1-0.3-0.1c-0.1,0-0.2,0-0.3,0.1c-0.1,0-0.2,0.1-0.2,0.2c-0.1,0.1-0.1,0.2-0.1,0.2
				c0,0.1,0,0.2,0,0.3c0,0.1,0,0.2,0.1,0.3c0,0.1,0.1,0.2,0.2,0.2c0.1,0.1,0.1,0.1,0.2,0.2c0.1,0,0.2,0.1,0.3,0c0.1,0,0.2,0,0.3-0.1
				c0.1,0,0.2-0.1,0.2-0.1v-0.3h-0.6v-0.4h1.1v0.9c-0.1,0.1-0.3,0.2-0.4,0.3C17.9,21.2,17.7,21.3,17.5,21.3"/>
		</g>
	</g>
	<polygon id="XMLID_119_" fill="#FFFFFF" points="19.6,21.2 19.5,18.8 21.1,18.8 21.2,19.2 20,19.2 20,19.7 21.1,19.7 21.2,20.1 
		20,20.2 20.1,20.7 21.2,20.7 21.2,21.1 	"/>
	<g id="XMLID_114_">
		<g>
			<defs>
				<rect id="SVGID_37_" x="0.6" y="11.9" width="38.8" height="16.5"/>
			</defs>
			<clipPath id="SVGID_38_">
				<use xlink:href="#SVGID_37_"  overflow="visible"/>
			</clipPath>
			<path id="XMLID_116_" clip-path="url(#SVGID_38_)" fill="#FFFFFF" d="M23.2,20.6c0.1,0,0.2,0,0.3-0.1c0.1,0,0.2-0.1,0.2-0.2
				c0.1-0.1,0.1-0.1,0.1-0.2s0-0.2,0-0.3c0-0.1,0-0.2-0.1-0.3c0-0.1-0.1-0.2-0.1-0.2c-0.1-0.1-0.1-0.1-0.2-0.1s-0.2,0-0.3,0h-0.4
				l0.1,1.5L23.2,20.6z M22.3,21.1l-0.1-2.3h0.9c0.2,0,0.3,0,0.5,0.1s0.3,0.1,0.4,0.2s0.2,0.2,0.3,0.4c0.1,0.1,0.1,0.3,0.1,0.5
				s0,0.3-0.1,0.5c-0.1,0.1-0.1,0.3-0.2,0.4s-0.2,0.2-0.4,0.2c-0.2,0.1-0.3,0.1-0.5,0.1L22.3,21.1z"/>
		</g>
	</g>
	
		<rect id="XMLID_113_" x="26" y="19.5" transform="matrix(-3.599145e-02 -0.9994 0.9994 -3.599145e-02 8.4455 47.5477)" fill="#FFFFFF" width="2.3" height="0.5"/>
	<polygon id="XMLID_112_" fill="#FFFFFF" points="30.2,20.8 29,19.3 29.1,20.8 28.6,20.8 28.5,18.5 29,18.5 30.2,19.9 30.1,18.4 
		30.6,18.4 30.7,20.8 	"/>
	<g id="XMLID_106_">
		<g>
			<defs>
				<rect id="SVGID_39_" x="0.6" y="11.9" width="38.8" height="16.5"/>
			</defs>
			<clipPath id="SVGID_40_">
				<use xlink:href="#SVGID_39_"  overflow="visible"/>
			</clipPath>
			<path id="XMLID_111_" clip-path="url(#SVGID_40_)" fill="#FFFFFF" d="M18,26.4c0.3,0,0.6-0.2,0.6-0.5s-0.2-0.6-0.5-0.6
				s-0.6,0.2-0.6,0.5C17.5,26.1,17.7,26.4,18,26.4"/>
		</g>
		<g>
			<defs>
				<rect id="SVGID_41_" x="0.6" y="11.9" width="38.8" height="16.5"/>
			</defs>
			<clipPath id="SVGID_42_">
				<use xlink:href="#SVGID_41_"  overflow="visible"/>
			</clipPath>
			
				<circle id="XMLID_110_" clip-path="url(#SVGID_42_)" fill="none" stroke="#4D4E4E" stroke-width="7.581067e-02" stroke-miterlimit="10" cx="18.1" cy="25.9" r="0.5"/>
		</g>
		<g>
			<defs>
				<rect id="SVGID_43_" x="0.6" y="11.9" width="38.8" height="16.5"/>
			</defs>
			<clipPath id="SVGID_44_">
				<use xlink:href="#SVGID_43_"  overflow="visible"/>
			</clipPath>
			<path id="XMLID_109_" clip-path="url(#SVGID_44_)" fill="#FFFFFF" d="M19.7,13.6c0.1,0,0.1,0,0.1-0.1s0-0.1-0.1-0.1l-1-0.1
				c-0.1,0-0.1,0-0.1,0.1s0,0.1,0.1,0.1L19.7,13.6z"/>
		</g>
		<g>
			<defs>
				<rect id="SVGID_45_" x="0.6" y="11.9" width="38.8" height="16.5"/>
			</defs>
			<clipPath id="SVGID_46_">
				<use xlink:href="#SVGID_45_"  overflow="visible"/>
			</clipPath>
			
				<path id="XMLID_108_" clip-path="url(#SVGID_46_)" fill="none" stroke="#4D4E4E" stroke-width="7.581067e-02" stroke-miterlimit="10" d="
				M19.7,13.6c0.1,0,0.1,0,0.1-0.1s0-0.1-0.1-0.1l-1-0.1c-0.1,0-0.1,0-0.1,0.1s0,0.1,0.1,0.1L19.7,13.6z"/>
		</g>
	</g>
	
		<rect id="XMLID_105_" x="22" y="16.1" transform="matrix(9.199809e-02 -0.9958 0.9958 9.199809e-02 4.2997 37.0972)" fill="#FFFFFF" width="1" height="0.2"/>
	
		<rect id="XMLID_104_" x="22" y="16.1" transform="matrix(9.199809e-02 -0.9958 0.9958 9.199809e-02 4.2997 37.0972)" fill="none" stroke="#9A9A9A" stroke-width="7.006174e-02" stroke-miterlimit="10" width="1" height="0.2"/>
	<g id="XMLID_87_">
		<g>
			<defs>
				<rect id="SVGID_47_" x="0.6" y="11.9" width="38.8" height="16.5"/>
			</defs>
			<clipPath id="SVGID_48_">
				<use xlink:href="#SVGID_47_"  overflow="visible"/>
			</clipPath>
			<path id="XMLID_103_" clip-path="url(#SVGID_48_)" fill="#FFFFFF" d="M19.3,13c0.1,0,0.1,0,0.1-0.1s0-0.1-0.1-0.1s-0.1,0-0.1,0.1
				C19.1,12.9,19.2,13,19.3,13"/>
		</g>
		<g>
			<defs>
				<rect id="SVGID_49_" x="0.6" y="11.9" width="38.8" height="16.5"/>
			</defs>
			<clipPath id="SVGID_50_">
				<use xlink:href="#SVGID_49_"  overflow="visible"/>
			</clipPath>
			
				<circle id="XMLID_102_" clip-path="url(#SVGID_50_)" fill="none" stroke="#4D4E4E" stroke-width="7.581067e-02" stroke-miterlimit="10" cx="19.3" cy="12.9" r="0.1"/>
		</g>
		<g>
			<defs>
				<rect id="SVGID_51_" x="0.6" y="11.9" width="38.8" height="16.5"/>
			</defs>
			<clipPath id="SVGID_52_">
				<use xlink:href="#SVGID_51_"  overflow="visible"/>
			</clipPath>
			<path id="XMLID_99_" clip-path="url(#SVGID_52_)" fill="#FFFFFF" d="M21.8,12.4L17,11.9c-0.6-0.1-1.1,0.4-1.2,1l-1.2,12.5
				c-0.1,0.6,0.4,1.1,1,1.2l4.8,0.4c0.6,0.1,1.1-0.4,1.2-1l1.2-12.5C22.8,13,22.4,12.4,21.8,12.4 M21.2,25.1l-6-0.6l1-10.6l6,0.6
				L21.2,25.1z"/>
		</g>
		<g>
			<defs>
				<rect id="SVGID_53_" x="0.6" y="11.9" width="38.8" height="16.5"/>
			</defs>
			<clipPath id="SVGID_54_">
				<use xlink:href="#SVGID_53_"  overflow="visible"/>
			</clipPath>
			<path id="XMLID_94_" clip-path="url(#SVGID_54_)" fill="#4D4E4E" d="M16.2,14l-1,10.5L21,25l1-10.5 M21.2,25.2l-6.1-0.6v-0.1
				l1-10.7l6.1,0.6v0.1L21.2,25.2z M16.9,12c-0.5,0-1,0.4-1,0.9l-1.2,12.5c-0.1,0.6,0.4,1.1,0.9,1.1l4.8,0.4h0.1c0.5,0,1-0.4,1-0.9
				l1.2-12.5c0.1-0.6-0.4-1.1-0.9-1.1L16.9,12L16.9,12 M20.5,27.1L20.5,27.1h-0.1l-4.8-0.4c-0.6-0.1-1.1-0.6-1.1-1.3l1.2-12.5
				c0.1-0.6,0.6-1.1,1.2-1.1H17l4.8,0.4c0.6,0.1,1.1,0.6,1.1,1.3l-1.2,12.6C21.6,26.7,21.1,27.1,20.5,27.1"/>
		</g>
		<g>
			<defs>
				<rect id="SVGID_55_" x="0.6" y="11.9" width="38.8" height="16.5"/>
			</defs>
			<clipPath id="SVGID_56_">
				<use xlink:href="#SVGID_55_"  overflow="visible"/>
			</clipPath>
			<path id="XMLID_93_" clip-path="url(#SVGID_56_)" fill="#FFFFFF" d="M18,26.4c0.3,0,0.6-0.2,0.6-0.5s-0.2-0.6-0.5-0.6
				s-0.6,0.2-0.6,0.5C17.5,26.1,17.7,26.4,18,26.4"/>
		</g>
		<g>
			<defs>
				<rect id="SVGID_57_" x="0.6" y="11.9" width="38.8" height="16.5"/>
			</defs>
			<clipPath id="SVGID_58_">
				<use xlink:href="#SVGID_57_"  overflow="visible"/>
			</clipPath>
			
				<circle id="XMLID_92_" clip-path="url(#SVGID_58_)" fill="none" stroke="#4D4E4E" stroke-width="7.581067e-02" stroke-miterlimit="10" cx="18.1" cy="25.9" r="0.5"/>
		</g>
		<g>
			<defs>
				<rect id="SVGID_59_" x="0.6" y="11.9" width="38.8" height="16.5"/>
			</defs>
			<clipPath id="SVGID_60_">
				<use xlink:href="#SVGID_59_"  overflow="visible"/>
			</clipPath>
			<path id="XMLID_91_" clip-path="url(#SVGID_60_)" fill="#FFFFFF" d="M19.7,13.6c0.1,0,0.1,0,0.1-0.1s0-0.1-0.1-0.1l-1-0.1
				c-0.1,0-0.1,0-0.1,0.1s0,0.1,0.1,0.1L19.7,13.6z"/>
		</g>
		<g>
			<defs>
				<rect id="SVGID_61_" x="0.6" y="11.9" width="38.8" height="16.5"/>
			</defs>
			<clipPath id="SVGID_62_">
				<use xlink:href="#SVGID_61_"  overflow="visible"/>
			</clipPath>
			
				<path id="XMLID_90_" clip-path="url(#SVGID_62_)" fill="none" stroke="#9A9A9A" stroke-width="7.581067e-02" stroke-miterlimit="10" d="
				M19.7,13.6c0.1,0,0.1,0,0.1-0.1s0-0.1-0.1-0.1l-1-0.1c-0.1,0-0.1,0-0.1,0.1s0,0.1,0.1,0.1L19.7,13.6z"/>
		</g>
		<g>
			<defs>
				<rect id="SVGID_63_" x="0.6" y="11.9" width="38.8" height="16.5"/>
			</defs>
			<clipPath id="SVGID_64_">
				<use xlink:href="#SVGID_63_"  overflow="visible"/>
			</clipPath>
			<path id="XMLID_89_" clip-path="url(#SVGID_64_)" fill="#9A9A9A" d="M19.3,13c0.1,0,0.1,0,0.1-0.1s0-0.1-0.1-0.1s-0.1,0-0.1,0.1
				C19.1,12.9,19.2,13,19.3,13"/>
		</g>
	</g>
	<path id="XMLID_59_" fill="none" stroke="#333333" stroke-width="8.945766e-02" stroke-miterlimit="10" d="M21.2,25.1l-6-0.6v-0.1
		l1-10.6l6,0.6v0.1L21.2,25.1z M21.2,25.1l-6-0.6v-0.1l1-10.6l6,0.6v0.1L21.2,25.1z"/>
</g>
</svg>
