<?xml version="1.0" encoding="utf-8"?>
<!-- Generator: Adobe Illustrator 18.1.1, SVG Export Plug-In . SVG Version: 6.00 Build 0)  -->
<!DOCTYPE svg PUBLIC "-//W3C//DTD SVG 1.1//EN" "http://www.w3.org/Graphics/SVG/1.1/DTD/svg11.dtd">
<svg version="1.1" id="Layer_1" xmlns="http://www.w3.org/2000/svg" xmlns:xlink="http://www.w3.org/1999/xlink" x="0px" y="0px"
	 viewBox="0 0 40 40" enable-background="new 0 0 40 40" xml:space="preserve">
<g>
	<rect x="10.4" y="22.8" fill="#FFFFCC" width="21.8" height="2.4"/>
	<rect x="7.9" y="8.9" fill="#FFE279" width="24.3" height="13.9"/>
	<rect x="19" y="15.1" fill="#CCCCCC" width="5.3" height="0.4"/>
	<rect x="14.9" y="18.3" fill="#CCCCCC" width="8.4" height="0.4"/>
	<path fill="#FF8C00" d="M22.6,13.5h-3.1c-0.2,0-0.3-0.1-0.3-0.3v-0.1c0-0.2,0.1-0.3,0.3-0.3h3.1c0.2,0,0.3,0.1,0.3,0.3v0.1
		C22.9,13.4,22.8,13.5,22.6,13.5"/>
	<path fill="#F0BA29" d="M22.6,14.2h-3.1c-0.2,0-0.3-0.1-0.3-0.3v-0.1c0-0.2,0.1-0.3,0.3-0.3h3.1c0.2,0,0.3,0.1,0.3,0.3v0.1
		C22.9,14.1,22.8,14.2,22.6,14.2"/>
	<path fill="#E32421" d="M22.5,15.1h-2.9c-0.2,0-0.4-0.2-0.4-0.4v-0.1c0-0.2,0.2-0.4,0.4-0.4h2.9c0.2,0,0.4,0.2,0.4,0.4v0.1
		C22.9,14.9,22.7,15.1,22.5,15.1"/>
	<rect x="7.8" y="10" fill="#999999" width="2.9" height="12.8"/>
	<polygon fill="#FFFFCC" points="7.7,25.3 13.8,25.3 11.1,22.8 7.7,22.8 	"/>
	<rect x="8" y="11.2" fill="#99CCFF" width="2.2" height="9.8"/>
	<path fill="#FFFFFF" d="M21.3,21.5l0.7-0.9c0-0.1,0.1-0.1,0.2-0.1l0.5,0c0.1,0,0.2,0.1,0.2,0.1l0.1,0.5c0,0.1,0,0.2-0.1,0.2
		l-0.7,0.9c-0.1,0.1-0.2,0.1-0.2,0l-0.6-0.5C21.2,21.6,21.2,21.5,21.3,21.5"/>
	<path fill="#999999" d="M21.3,21.5L21.3,21.5l0.7-0.9c0-0.1,0.1-0.1,0.2-0.1l0.5,0h0c0.1,0,0.1,0,0.1,0.1l0.1,0.5c0,0,0,0,0,0
		c0,0.1,0,0.1-0.1,0.1l-0.7,0.9c0,0-0.1,0.1-0.1,0.1c0,0-0.1,0-0.1,0l-0.6-0.5c0,0-0.1-0.1-0.1-0.1C21.3,21.5,21.3,21.5,21.3,21.5
		L21.3,21.5L21.3,21.5c-0.1,0-0.1,0.1-0.1,0.1c0,0.1,0,0.1,0.1,0.2l0.6,0.5c0,0,0.1,0,0.1,0c0.1,0,0.1,0,0.2-0.1l0.7-0.9
		c0-0.1,0.1-0.1,0.1-0.2c0,0,0,0,0-0.1l-0.1-0.5c0-0.1-0.1-0.2-0.2-0.2h0l-0.5,0c-0.1,0-0.2,0-0.2,0.1L21.3,21.5L21.3,21.5z"/>
	<rect x="22.3" y="20.7" transform="matrix(0.6258 -0.78 0.78 0.6258 -8.0688 25.2679)" fill="#333333" width="0.1" height="0.7"/>
	<rect x="22.2" y="20.8" transform="matrix(0.6258 -0.78 0.78 0.6258 -8.131 25.2537)" fill="#333333" width="0" height="0.7"/>
	<rect x="22.2" y="20.8" transform="matrix(0.6258 -0.78 0.78 0.6258 -8.2035 25.2348)" fill="#333333" width="0.1" height="0.7"/>
	
		<rect x="22.1" y="20.9" transform="matrix(0.6254 -0.7803 0.7803 0.6254 -8.3183 25.2231)" fill="#333333" width="0" height="0.7"/>
	
		<rect x="22.1" y="20.9" transform="matrix(0.6231 -0.7821 0.7821 0.6231 -8.2578 25.3253)" fill="#333333" width="0" height="0.7"/>
	<rect x="22" y="21" transform="matrix(0.6248 -0.7808 0.7808 0.6248 -8.3847 25.231)" fill="#333333" width="0.1" height="0.7"/>
	<rect x="22" y="21.1" transform="matrix(0.6258 -0.78 0.78 0.6258 -8.4522 25.1776)" fill="#333333" width="0" height="0.7"/>
	<rect x="21.9" y="21.1" transform="matrix(0.6258 -0.78 0.78 0.6258 -8.5254 25.162)" fill="#333333" width="0.1" height="0.7"/>
	<rect x="21.8" y="21.3" transform="matrix(0.6254 -0.7803 0.7803 0.6254 -8.7033 25.134)" fill="#333333" width="0" height="0.7"/>
	<rect x="21.7" y="21.4" transform="matrix(0.6258 -0.78 0.78 0.6258 -8.7873 25.1001)" fill="#333333" width="0.1" height="0.7"/>
	
		<rect x="21.9" y="21.2" transform="matrix(0.6254 -0.7803 0.7803 0.6254 -8.6437 25.1496)" fill="#333333" width="0" height="0.7"/>
	
		<rect x="21.9" y="21.2" transform="matrix(0.6231 -0.7821 0.7821 0.6231 -8.5835 25.2487)" fill="#333333" width="0" height="0.7"/>
	<path fill="#999999" d="M22.5,20.9L22.5,20.9C22.5,20.8,22.5,20.8,22.5,20.9l0-0.1l0,0c0,0,0,0,0.1,0h0
		C22.6,20.7,22.6,20.7,22.5,20.9L22.5,20.9L22.5,20.9C22.6,20.8,22.6,20.8,22.5,20.9L22.5,20.9L22.5,20.9L22.5,20.9L22.5,20.9
		c0.1,0,0.1,0,0.1-0.1l0,0v0c0-0.1-0.1-0.1-0.1-0.1h0c-0.1,0-0.1,0.1-0.1,0.1l0,0v0C22.4,20.8,22.5,20.9,22.5,20.9L22.5,20.9z"/>
	<path fill="#CCCCCC" d="M22.6,20.7C22.6,20.7,22.6,20.7,22.6,20.7c0-0.1,0-0.2,0-0.2c0-0.1,0-0.1,0.1-0.2c0,0,0.1-0.1,0.1-0.1
		c0.1-0.1,0.3-0.1,0.4-0.3c0,0,0.1-0.1,0.1-0.1c0,0,0-0.1,0-0.1c0,0,0-0.1,0-0.1c0,0-0.1-0.1-0.1-0.1c0,0,0,0,0,0
		c-0.1,0-0.1,0-0.2,0.1c0,0.1-0.1,0.1-0.1,0.2c0,0.1,0,0.2,0,0.3v0c0,0,0,0,0,0c0,0,0,0,0,0v0c0-0.1,0-0.2,0-0.3
		c0-0.1,0-0.1,0.1-0.2c0,0,0.1-0.1,0.1-0.1l0,0c0,0,0,0,0.1,0c0,0,0,0,0,0.1c0,0,0,0.1,0,0.1c0,0,0,0.1-0.1,0.1
		c-0.1,0.1-0.3,0.2-0.4,0.2c-0.1,0-0.1,0.1-0.2,0.1c0,0.1-0.1,0.1-0.1,0.2C22.5,20.6,22.5,20.6,22.6,20.7
		C22.5,20.7,22.5,20.7,22.6,20.7C22.5,20.8,22.6,20.8,22.6,20.7C22.6,20.8,22.6,20.8,22.6,20.7"/>
	<path fill="#CCCCCC" d="M11.4,26.4h-4c-0.1,0-0.2,0-0.3,0.1l-3.5,2.8c-0.4,0.4-0.5,0.6-0.5,0.9v0.3c0,0.5,0.6,1.1,1.3,1.1h31.2
		c0.7,0,1.2-0.6,1.2-1.1v-0.3c0-0.3-0.1-0.5-0.5-0.9l-3.5-2.8c-0.1-0.1-0.2-0.1-0.3-0.1h-4C28.6,26.4,11.4,26.4,11.4,26.4z"/>
	<path fill="#CCCCCC" d="M31.9,24.8c0,0.2-0.2,0.4-0.4,0.4H8.6c-0.2,0-0.4-0.2-0.4-0.4v-15c0-0.2,0.2-0.4,0.4-0.4h22.8
		c0.2,0,0.4,0.2,0.4,0.4V24.8z M32,8.5H8.1c-0.4,0-0.6,0.3-0.6,0.6v16.7c0,0.2,0.1,0.3,0.3,0.3h24.6c0.2,0,0.2-0.1,0.2-0.3V9.1
		C32.6,8.8,32.3,8.5,32,8.5"/>
	<path fill="#CCCCCC" d="M30.6,10C30.6,9.9,30.6,9.9,30.6,10c0-0.1,0.1-0.2,0.1-0.2s0.1,0,0.1,0c0.1,0,0.1,0,0.2,0.1c0,0,0,0,0,0.1
		s0,0.1,0,0.1v0l0,0c0,0,0,0.1,0,0.1c0,0.1-0.1,0.1-0.2,0.2c0,0-0.1,0.1-0.1,0.2s0,0.1,0,0.2l0,0v0l0.1,0l-0.1,0v0c0,0,0,0,0,0l0,0
		c0,0.1,0.1,0.2,0.2,0.3l2,1.7c0,0,0,0,0,0h0l0,0v0h0l0,0l0,0l0,0l0,0l0,0l0,0l0,0v0l0,0l0,0v0v0v0l0,0v0v0l0,0l-4-1c0,0,0,0,0,0
		c0,0,0,0,0,0h0l0,0v0h0l0,0l0,0l0,0l0,0l0,0l0,0l0,0l0,0l0,0l0,0l0,0l0,0l2-0.8c0.1,0,0.1-0.1,0.1-0.2c0-0.1-0.1-0.1-0.2-0.1
		l-2,0.8l0,0c0,0-0.1,0-0.1,0.1s0,0.1,0,0.1c0,0.1,0,0.1,0.1,0.2c0,0,0.1,0.1,0.2,0.1l4,1c0,0,0,0,0.1,0c0.1,0,0.1,0,0.2-0.1
		s0.1-0.1,0.1-0.2c0-0.1,0-0.2-0.1-0.2l-2-1.7c0,0-0.1-0.1-0.1-0.1l0,0v0h-0.1l0.1,0v0h-0.1l0.1,0v0l-0.1,0H31v0l-0.1,0H31
		c0-0.1,0-0.1,0-0.1c0-0.1,0.1-0.1,0.2-0.2c0,0,0.1-0.1,0.1-0.1c0-0.1,0-0.1,0-0.2l0,0v0c0-0.1,0-0.1,0-0.2c0-0.1-0.1-0.2-0.2-0.2
		s-0.2-0.1-0.3-0.1c-0.1,0-0.2,0-0.3,0.1c0,0-0.1,0.1-0.1,0.1c0,0.1,0,0.1,0,0.2c0,0.1,0.1,0.1,0.1,0.1C30.6,10.1,30.6,10,30.6,10"
		/>
	<path fill="#F27DAB" d="M29.7,11.1L30,11c0,0,0.1,0,0.1,0.1c0,0.3,0.1,1.5,0.8,1.6c0.7,0.2,0.8-1,0.8-1.3c0,0,0.1-0.1,0.1,0
		l0.3,0.2c0,0,0,0,0,0c0,0.2,0,1.1,0.4,1.6c0,0,0,0.1,0,0.1c0,0.5-0.4,1.5-0.4,2.3c0,0.8,1.1,3.8,1.2,5.5c0,0.1-0.1,0.2-0.2,0.2
		c-0.8,0-3.8-0.7-4.5-1.1c-0.1,0-0.1-0.1-0.1-0.2c0.1-2,1.2-4.1,1.2-4.9c0-0.8-0.4-2.1-0.4-2.5c0,0,0-0.1,0-0.1
		C29.6,12.1,29.7,11.3,29.7,11.1C29.7,11.1,29.7,11.1,29.7,11.1"/>
	<path fill="#F27DAB" d="M29.7,11.1L29.7,11.1l0.3,0l0,0v0h0l0,0v0v0l0,0l0,0v0l0,0l0,0h0l0,0l0,0h0c0,0.2,0,0.5,0.2,0.9
		c0.1,0.2,0.1,0.4,0.3,0.5c0.1,0.1,0.3,0.3,0.5,0.3c0.1,0,0.1,0,0.1,0c0.1,0,0.2,0,0.2-0.1c0.1-0.1,0.2-0.2,0.3-0.3
		c0.1-0.2,0.2-0.4,0.2-0.6c0-0.2,0.1-0.4,0.1-0.5h0l0,0l0,0h0l0,0l0,0v0l0,0l0,0v0v0l0,0l0,0v0l0,0l0.3,0.2l0,0h0l0,0l0,0h0
		c0,0.1,0,0.4,0.1,0.7c0.1,0.3,0.1,0.7,0.3,0.9c0,0,0,0,0,0v0l0,0c0,0.1,0,0.3-0.1,0.4c-0.1,0.3-0.1,0.6-0.2,0.9
		c-0.1,0.3-0.1,0.7-0.1,1c0,0.1,0,0.3,0.1,0.4c0.1,0.6,0.4,1.5,0.6,2.4c0.3,0.9,0.5,1.9,0.5,2.6v0c0,0,0,0.1-0.1,0.1h0
		c-0.2,0-0.5-0.1-0.9-0.1c-0.6-0.1-1.4-0.3-2-0.5c-0.3-0.1-0.7-0.2-0.9-0.3c-0.3-0.1-0.5-0.2-0.6-0.2c-0.1,0-0.1-0.1-0.1-0.1v0l0,0
		c0-1,0.3-2,0.6-2.9c0.1-0.4,0.3-0.8,0.4-1.2c0.1-0.3,0.2-0.6,0.2-0.9c0-0.4-0.1-0.9-0.2-1.4c0-0.2-0.1-0.5-0.1-0.7
		c0-0.2-0.1-0.4-0.1-0.5l0,0v0c0,0,0,0,0,0c0.1-0.1,0.2-0.2,0.2-0.3c0.1-0.2,0.1-0.4,0.1-0.6C29.7,11.4,29.7,11.2,29.7,11.1
		L29.7,11.1L29.7,11.1C29.7,11.2,29.7,11.2,29.7,11.1L29.7,11.1L29.7,11.1L29.7,11.1L29.7,11.1c-0.1-0.1-0.1,0-0.1,0.1
		c0,0.1,0,0.3-0.1,0.6c0,0.1-0.1,0.2-0.1,0.4c0,0.1-0.1,0.2-0.2,0.3c0,0-0.1,0.1-0.1,0.2v0l0,0c0,0.1,0,0.3,0.1,0.5
		c0.1,0.3,0.1,0.7,0.2,1s0.1,0.7,0.1,1c0,0.2-0.1,0.5-0.2,0.8c-0.2,0.5-0.4,1.2-0.6,1.9c-0.2,0.7-0.4,1.5-0.4,2.2l0,0v0
		c0,0.1,0.1,0.2,0.2,0.3c0.2,0.1,0.5,0.2,0.9,0.3c0.6,0.2,1.4,0.4,2,0.5c0.3,0.1,0.7,0.1,0.9,0.2c0.3,0,0.5,0.1,0.6,0.1h0
		c0.1,0,0.2-0.1,0.2-0.2v0c0-0.8-0.3-2-0.6-3.1c-0.1-0.5-0.3-1-0.4-1.5c-0.1-0.2-0.1-0.4-0.1-0.6s0-0.3,0-0.4c0-0.4,0.1-0.9,0.2-1.3
		c0-0.2,0.1-0.4,0.1-0.6s0.1-0.3,0.1-0.5l0,0v0c0-0.1,0-0.1,0-0.1c-0.2-0.2-0.2-0.6-0.3-0.9s-0.1-0.6-0.1-0.6c0,0,0-0.1-0.1-0.1
		l-0.3-0.2c0,0-0.1,0-0.1,0c0,0-0.1,0-0.1,0c0,0,0,0.1,0,0.1c0,0.2,0,0.5-0.1,0.8c0,0.1-0.1,0.3-0.2,0.4c0,0-0.1,0.1-0.1,0.1
		c0,0-0.1,0-0.2,0c0,0-0.1,0-0.1,0c-0.1,0-0.3-0.1-0.4-0.2c-0.1-0.2-0.2-0.5-0.3-0.7c-0.1-0.2-0.1-0.5-0.1-0.6c0,0,0-0.1,0-0.1
		c0,0-0.1,0-0.1,0c0,0,0,0-0.1,0L29.7,11.1L29.7,11.1z"/>
	<path fill="#CCCCCC" d="M29.2,10C29.2,9.9,29.2,9.9,29.2,10c0-0.1,0.1-0.2,0.1-0.2s0.1,0,0.1,0c0.1,0,0.1,0,0.2,0.1c0,0,0,0,0,0.1
		s0,0.1,0,0.1v0l0,0c0,0,0,0.1,0,0.1c0,0.1-0.1,0.1-0.2,0.2c0,0-0.1,0.1-0.1,0.2s0,0.1,0,0.2l0,0v0l0.1,0l-0.1,0v0c0,0,0,0,0,0l0,0
		c0,0.1,0.1,0.2,0.2,0.3l2,1.7c0,0,0,0,0,0h0l0,0v0h0l0,0l0,0l0,0l0,0l0,0l0,0l0,0v0l0,0l0,0v0v0v0l0,0v0v0h0l-4-1c0,0,0,0,0,0
		c0,0,0,0,0,0h0l0,0v0h0l0,0l0,0l0,0l0,0l0,0l0,0l0,0l0,0l0,0l0,0l0,0l0,0l2-0.8c0.1,0,0.1-0.1,0.1-0.2c0-0.1-0.1-0.1-0.2-0.1
		l-2,0.8l0,0c0,0-0.1,0-0.1,0.1c0,0,0,0.1,0,0.1c0,0.1,0,0.1,0.1,0.2c0,0,0.1,0.1,0.2,0.1l4,1c0,0,0,0,0.1,0c0.1,0,0.1,0,0.2-0.1
		s0.1-0.1,0.1-0.2c0-0.1,0-0.2-0.1-0.2l-2-1.7c0,0-0.1-0.1-0.1-0.1l0,0v0h-0.1l0.1,0v0h-0.1l0.1,0v0l-0.1,0h0.1v0l-0.1,0h0.1
		c0-0.1,0-0.1,0-0.1c0-0.1,0.1-0.1,0.2-0.2c0,0,0.1-0.1,0.1-0.1c0-0.1,0-0.1,0-0.2l0,0v0c0-0.1,0-0.1,0-0.2c0-0.1-0.1-0.2-0.2-0.2
		s-0.2-0.1-0.3-0.1c-0.1,0-0.2,0-0.3,0.1c0,0-0.1,0.1-0.1,0.1c0,0.1,0,0.1,0,0.2c0,0.1,0.1,0.1,0.1,0.1C29.2,10.1,29.2,10,29.2,10"
		/>
	<path fill="#F23B5C" d="M28.3,11.1l0.3-0.1c0,0,0.1,0,0.1,0.1c0,0.3,0.1,1.5,0.8,1.6c0.7,0.2,0.8-1,0.8-1.3c0,0,0.1-0.1,0.1,0
		l0.3,0.2c0,0,0,0,0,0c0,0.2,0,1.1,0.4,1.6c0,0,0,0.1,0,0.1c0,0.5-0.4,1.5-0.4,2.3c0,0.8,1.1,3.8,1.2,5.5c0,0.1-0.1,0.2-0.2,0.2
		c-0.8,0-3.8-0.7-4.5-1.1c-0.1,0-0.1-0.1-0.1-0.2c0.1-2,1.2-4.1,1.2-4.9c0-0.8-0.4-2.1-0.4-2.5c0,0,0-0.1,0-0.1
		C28.2,12.1,28.2,11.3,28.3,11.1C28.3,11.1,28.3,11.1,28.3,11.1"/>
	<path fill="#F23B5C" d="M28.3,11.1L28.3,11.1l0.3,0l0,0v0h0l0,0v0v0l0,0l0,0v0l0,0l0,0h0l0,0l0,0h0c0,0.2,0,0.5,0.2,0.9
		c0.1,0.2,0.1,0.4,0.3,0.5c0.1,0.1,0.3,0.3,0.5,0.3c0.1,0,0.1,0,0.1,0c0.1,0,0.2,0,0.2-0.1c0.1-0.1,0.2-0.2,0.3-0.3
		c0.1-0.2,0.2-0.4,0.2-0.6c0-0.2,0.1-0.4,0.1-0.5h0l0,0l0,0h0l0,0l0,0v0l0,0l0,0v0v0l0,0l0,0v0l0,0l0.3,0.2l0,0h0l0,0l0,0h0
		c0,0.1,0,0.4,0.1,0.7c0.1,0.3,0.1,0.7,0.3,0.9c0,0,0,0,0,0v0l0,0c0,0.1,0,0.3-0.1,0.4c-0.1,0.3-0.1,0.6-0.2,0.9
		c-0.1,0.3-0.1,0.7-0.1,1c0,0.1,0,0.3,0.1,0.4c0.1,0.6,0.4,1.5,0.6,2.4c0.3,0.9,0.5,1.9,0.5,2.6v0c0,0,0,0.1-0.1,0.1h0
		c-0.2,0-0.5-0.1-0.9-0.1c-0.6-0.1-1.4-0.3-2-0.5c-0.3-0.1-0.7-0.2-0.9-0.3c-0.3-0.1-0.5-0.2-0.6-0.2c-0.1,0-0.1-0.1-0.1-0.1v0l0,0
		c0-1,0.3-2,0.6-2.9c0.1-0.4,0.3-0.8,0.4-1.2c0.1-0.3,0.2-0.6,0.2-0.9c0-0.4-0.1-0.9-0.2-1.4c0-0.2-0.1-0.5-0.1-0.7
		c0-0.2-0.1-0.4-0.1-0.5l0,0v0c0,0,0,0,0,0c0.1-0.1,0.2-0.2,0.2-0.3c0.1-0.2,0.1-0.4,0.1-0.6C28.3,11.4,28.3,11.2,28.3,11.1
		L28.3,11.1L28.3,11.1C28.3,11.2,28.3,11.2,28.3,11.1L28.3,11.1L28.3,11.1L28.3,11.1L28.3,11.1c-0.1-0.1-0.1,0-0.1,0.1
		c0,0.1,0,0.3-0.1,0.6c0,0.1-0.1,0.2-0.1,0.4c0,0.1-0.1,0.2-0.2,0.3c0,0-0.1,0.1-0.1,0.2v0l0,0c0,0.1,0,0.3,0.1,0.5
		c0.1,0.3,0.1,0.7,0.2,1c0.1,0.4,0.1,0.7,0.1,1c0,0.2-0.1,0.5-0.2,0.8c-0.2,0.5-0.4,1.2-0.6,1.9S27,19.2,27,19.9l0,0v0
		c0,0.1,0.1,0.2,0.2,0.3c0.2,0.1,0.5,0.2,0.9,0.3c0.6,0.2,1.4,0.4,2,0.5c0.3,0.1,0.7,0.1,0.9,0.2c0.3,0,0.5,0.1,0.6,0.1h0
		c0.1,0,0.2-0.1,0.2-0.2v0c0-0.8-0.3-2-0.6-3.1c-0.1-0.5-0.3-1-0.4-1.5c-0.1-0.2-0.1-0.4-0.1-0.6s0-0.3,0-0.4c0-0.4,0.1-0.9,0.2-1.3
		c0-0.2,0.1-0.4,0.1-0.6s0.1-0.3,0.1-0.5l0,0v0c0-0.1,0-0.1,0-0.1c-0.2-0.2-0.2-0.6-0.3-0.9s-0.1-0.6-0.1-0.6c0,0,0-0.1-0.1-0.1
		l-0.3-0.2c0,0-0.1,0-0.1,0c0,0-0.1,0-0.1,0c0,0,0,0.1,0,0.1c0,0.2,0,0.5-0.1,0.8c0,0.1-0.1,0.3-0.2,0.4c0,0-0.1,0.1-0.1,0.1
		c0,0-0.1,0-0.2,0c0,0-0.1,0-0.1,0c-0.1,0-0.3-0.1-0.4-0.2c-0.1-0.2-0.2-0.5-0.3-0.7c-0.1-0.2-0.1-0.5-0.1-0.6c0,0,0-0.1,0-0.1
		s-0.1,0-0.1,0c0,0,0,0-0.1,0L28.3,11.1L28.3,11.1z"/>
	<path fill="#CCCCCC" d="M27.8,10C27.8,9.9,27.8,9.9,27.8,10c0-0.1,0.1-0.2,0.1-0.2c0,0,0.1,0,0.1,0c0.1,0,0.1,0,0.2,0.1
		c0,0,0,0,0,0.1c0,0,0,0.1,0,0.1v0l0,0c0,0,0,0.1,0,0.1c0,0.1-0.1,0.1-0.2,0.2c0,0-0.1,0.1-0.1,0.2c0,0.1,0,0.1,0,0.2l0,0v0l0.1,0
		l-0.1,0v0c0,0,0,0,0,0l0,0c0,0.1,0.1,0.2,0.2,0.3l2,1.7c0,0,0,0,0,0h0l0,0v0h0l0,0l0,0l0,0l0,0l0,0l0,0l0,0v0l0,0l0,0v0v0v0l0,0v0
		v0h0l-4-1c0,0,0,0,0,0c0,0,0,0,0,0h0l0,0v0h0l0,0l0,0l0,0l0,0l0,0l0,0l0,0l0,0l0,0l0,0l0,0l0,0l2-0.8c0.1,0,0.1-0.1,0.1-0.2
		c0-0.1-0.1-0.1-0.2-0.1l-2,0.8l0,0c0,0-0.1,0-0.1,0.1c0,0,0,0.1,0,0.1c0,0.1,0,0.1,0.1,0.2c0,0,0.1,0.1,0.2,0.1l4,1c0,0,0,0,0.1,0
		c0.1,0,0.1,0,0.2-0.1s0.1-0.1,0.1-0.2c0-0.1,0-0.2-0.1-0.2l-2-1.7c0,0-0.1-0.1-0.1-0.1l0,0v0h-0.1l0.1,0v0h-0.1l0.1,0v0l-0.1,0h0.1
		v0l-0.1,0h0.1c0-0.1,0-0.1,0-0.1c0-0.1,0.1-0.1,0.2-0.2c0,0,0.1-0.1,0.1-0.1c0-0.1,0-0.1,0-0.2l0,0v0c0-0.1,0-0.1,0-0.2
		c0-0.1-0.1-0.2-0.2-0.2S28.1,9.5,28,9.5c-0.1,0-0.2,0-0.3,0.1c0,0-0.1,0.1-0.1,0.1c0,0.1,0,0.1,0,0.2c0,0.1,0.1,0.1,0.1,0.1
		C27.8,10.1,27.8,10,27.8,10z"/>
	<path fill="#E32421" d="M26.9,11.1l0.3-0.1c0,0,0.1,0,0.1,0.1c0,0.3,0.1,1.5,0.8,1.6c0.7,0.2,0.8-1,0.8-1.3c0,0,0.1-0.1,0.1,0
		l0.3,0.2c0,0,0,0,0,0c0,0.2,0,1.1,0.4,1.6c0,0,0,0.1,0,0.1c0,0.5-0.4,1.5-0.4,2.3c0,0.8,1.1,3.8,1.2,5.5c0,0.1-0.1,0.2-0.2,0.2
		c-0.8,0-3.8-0.7-4.5-1.1c-0.1,0-0.1-0.1-0.1-0.2c0.1-2,1.2-4.1,1.2-4.9c0-0.8-0.4-2.1-0.4-2.5c0,0,0-0.1,0-0.1
		C26.8,12.1,26.8,11.3,26.9,11.1C26.8,11.1,26.9,11.1,26.9,11.1"/>
	<path fill="#E32421" d="M26.9,11.1L26.9,11.1l0.3,0l0,0v0h0l0,0v0v0l0,0l0,0v0l0,0l0,0h0l0,0l0,0h0c0,0.2,0,0.5,0.2,0.9
		c0.1,0.2,0.1,0.4,0.3,0.5c0.1,0.1,0.3,0.3,0.5,0.3c0.1,0,0.1,0,0.1,0c0.1,0,0.2,0,0.2-0.1c0.1-0.1,0.2-0.2,0.3-0.3
		c0.1-0.2,0.2-0.4,0.2-0.6c0-0.2,0.1-0.4,0.1-0.5h0l0,0l0,0h0l0,0l0,0v0l0,0l0,0v0v0l0,0l0,0v0l0,0l0.3,0.2l0,0h0l0,0l0,0h0
		c0,0.1,0,0.4,0.1,0.7c0.1,0.3,0.1,0.7,0.3,0.9c0,0,0,0,0,0v0l0,0c0,0.1,0,0.3-0.1,0.4c-0.1,0.3-0.1,0.6-0.2,0.9
		c-0.1,0.3-0.1,0.7-0.1,1c0,0.1,0,0.3,0.1,0.4c0.1,0.6,0.4,1.5,0.6,2.4c0.3,0.9,0.5,1.9,0.5,2.6v0c0,0,0,0.1-0.1,0.1h0
		c-0.2,0-0.5-0.1-0.9-0.1c-0.6-0.1-1.4-0.3-2-0.5c-0.3-0.1-0.7-0.2-0.9-0.3c-0.3-0.1-0.5-0.2-0.6-0.2c-0.1,0-0.1-0.1-0.1-0.1v0l0,0
		c0-1,0.3-2,0.6-2.9c0.1-0.4,0.3-0.8,0.4-1.2c0.1-0.3,0.2-0.6,0.2-0.9c0-0.4-0.1-0.9-0.2-1.4c0-0.2-0.1-0.5-0.1-0.7
		c0-0.2-0.1-0.4-0.1-0.5l0,0v0c0,0,0,0,0,0c0.1-0.1,0.2-0.2,0.2-0.3c0.1-0.2,0.1-0.4,0.1-0.6C26.9,11.4,26.9,11.2,26.9,11.1
		L26.9,11.1L26.9,11.1C26.9,11.2,26.9,11.2,26.9,11.1L26.9,11.1L26.9,11.1L26.9,11.1L26.9,11.1c-0.1-0.1-0.1,0-0.1,0.1
		c0,0.1,0,0.3-0.1,0.6c0,0.1-0.1,0.2-0.1,0.4c0,0.1-0.1,0.2-0.2,0.3c0,0-0.1,0.1-0.1,0.2v0l0,0c0,0.1,0,0.3,0.1,0.5
		c0.1,0.3,0.1,0.7,0.2,1c0.1,0.4,0.1,0.7,0.1,1c0,0.2-0.1,0.5-0.2,0.8c-0.2,0.5-0.4,1.2-0.6,1.9c-0.2,0.7-0.4,1.5-0.4,2.2l0,0v0
		c0,0.1,0.1,0.2,0.2,0.3c0.2,0.1,0.5,0.2,0.9,0.3c0.6,0.2,1.4,0.4,2,0.5c0.3,0.1,0.7,0.1,0.9,0.2c0.3,0,0.5,0.1,0.6,0.1h0
		c0.1,0,0.2-0.1,0.2-0.2v0c0-0.8-0.3-2-0.6-3.1c-0.1-0.5-0.3-1-0.4-1.5c-0.1-0.2-0.1-0.4-0.1-0.6s0-0.3,0-0.4c0-0.4,0.1-0.9,0.2-1.3
		c0-0.2,0.1-0.4,0.1-0.6s0.1-0.3,0.1-0.5l0,0v0c0-0.1,0-0.1,0-0.1c-0.2-0.2-0.2-0.6-0.3-0.9c-0.1-0.3-0.1-0.6-0.1-0.6
		c0,0,0-0.1-0.1-0.1L29,11.2c0,0-0.1,0-0.1,0c0,0-0.1,0-0.1,0c0,0,0,0.1,0,0.1c0,0.2,0,0.5-0.1,0.8c0,0.1-0.1,0.3-0.2,0.4
		c0,0-0.1,0.1-0.1,0.1c0,0-0.1,0-0.2,0c0,0-0.1,0-0.1,0c-0.1,0-0.3-0.1-0.4-0.2c-0.1-0.2-0.2-0.5-0.3-0.7c-0.1-0.2-0.1-0.5-0.1-0.6
		c0,0,0-0.1,0-0.1s-0.1,0-0.1,0c0,0,0,0-0.1,0L26.9,11.1L26.9,11.1z"/>
	<path fill="#CCCCCC" d="M26.4,10C26.4,9.9,26.4,9.9,26.4,10c0-0.1,0.1-0.2,0.1-0.2c0,0,0.1,0,0.1,0c0.1,0,0.1,0,0.2,0.1
		c0,0,0,0,0,0.1s0,0.1,0,0.1v0l0,0c0,0,0,0.1,0,0.1c0,0.1-0.1,0.1-0.2,0.2c0,0-0.1,0.1-0.1,0.2s0,0.1,0,0.2l0,0v0l0.1,0l-0.1,0v0
		c0,0,0,0,0,0l0,0c0,0.1,0.1,0.2,0.2,0.3l2,1.7c0,0,0,0,0,0h0l0,0v0h0l0,0l0,0l0,0l0,0l0,0l0,0l0,0v0l0,0l0,0v0v0v0l0,0v0v0h0l-4-1
		c0,0,0,0,0,0c0,0,0,0,0,0h0l0,0v0h0l0,0l0,0l0,0l0,0l0,0l0,0l0,0l0,0l0,0l0,0l0,0l0,0l2-0.8c0.1,0,0.1-0.1,0.1-0.2
		c0-0.1-0.1-0.1-0.2-0.1l-2,0.8l0,0c0,0-0.1,0-0.1,0.1s0,0.1,0,0.1c0,0.1,0,0.1,0.1,0.2c0,0,0.1,0.1,0.2,0.1l4,1c0,0,0,0,0.1,0
		c0.1,0,0.1,0,0.2-0.1s0.1-0.1,0.1-0.2c0-0.1,0-0.2-0.1-0.2l-2-1.7c0,0-0.1-0.1-0.1-0.1l0,0v0h-0.1l0.1,0v0h-0.1l0.1,0v0l-0.1,0h0.1
		v0l-0.1,0h0.1l0,0c0-0.1,0-0.1,0-0.1c0-0.1,0.1-0.1,0.2-0.2c0,0,0.1-0.1,0.1-0.1c0-0.1,0-0.1,0-0.2l0,0v0c0-0.1,0-0.1,0-0.2
		c0-0.1-0.1-0.2-0.2-0.2s-0.2-0.1-0.3-0.1c-0.1,0-0.2,0-0.3,0.1c0,0-0.1,0.1-0.1,0.1c0,0.1,0,0.1,0,0.2c0,0.1,0.1,0.1,0.1,0.1
		C26.3,10.1,26.4,10,26.4,10z"/>
	<path fill="#FF8C00" d="M25.5,11.1l0.3-0.1c0,0,0.1,0,0.1,0.1c0,0.3,0.1,1.5,0.8,1.6c0.7,0.2,0.8-1,0.8-1.3c0,0,0.1-0.1,0.1,0
		l0.3,0.2c0,0,0,0,0,0c0,0.2,0,1.1,0.4,1.6c0,0,0,0.1,0,0.1c0,0.5-0.4,1.5-0.4,2.3c0,0.8,1.1,3.8,1.2,5.5c0,0.1-0.1,0.2-0.2,0.2
		c-0.8,0-3.8-0.7-4.5-1.1c-0.1,0-0.1-0.1-0.1-0.2c0.1-2,1.2-4.1,1.2-4.9c0-0.8-0.4-2.1-0.4-2.5c0,0,0-0.1,0-0.1
		C25.4,12.1,25.4,11.3,25.5,11.1C25.4,11.1,25.5,11.1,25.5,11.1"/>
	<path fill="#FF8C00" d="M25.5,11.1L25.5,11.1l0.3,0l0,0v0h0l0,0v0v0l0,0l0,0v0l0,0l0,0h0l0,0l0,0h0c0,0.2,0,0.5,0.2,0.9
		c0.1,0.2,0.1,0.4,0.3,0.5c0.1,0.1,0.3,0.3,0.5,0.3c0.1,0,0.1,0,0.1,0c0.1,0,0.2,0,0.2-0.1c0.1-0.1,0.2-0.2,0.3-0.3
		c0.1-0.2,0.2-0.4,0.2-0.6c0-0.2,0.1-0.4,0.1-0.5h0l0,0l0,0h0l0,0l0,0v0l0,0l0,0v0v0l0,0l0,0v0l0,0l0.3,0.2l0,0h0l0,0l0,0h0
		c0,0.1,0,0.4,0.1,0.7c0.1,0.3,0.1,0.7,0.3,0.9c0,0,0,0,0,0v0l0,0c0,0.1,0,0.3-0.1,0.4c-0.1,0.3-0.1,0.6-0.2,0.9
		c-0.1,0.3-0.1,0.7-0.1,1c0,0.1,0,0.3,0.1,0.4c0.1,0.6,0.4,1.5,0.6,2.4c0.3,0.9,0.5,1.9,0.5,2.6v0c0,0,0,0.1-0.1,0.1h0
		c-0.2,0-0.5-0.1-0.9-0.1c-0.6-0.1-1.4-0.3-2-0.5c-0.3-0.1-0.7-0.2-0.9-0.3c-0.3-0.1-0.5-0.2-0.6-0.2c-0.1,0-0.1-0.1-0.1-0.1v0l0,0
		c0-1,0.3-2,0.6-2.9c0.1-0.4,0.3-0.8,0.4-1.2c0.1-0.3,0.2-0.6,0.2-0.9c0-0.4-0.1-0.9-0.2-1.4c0-0.2-0.1-0.5-0.1-0.7
		c0-0.2-0.1-0.4-0.1-0.5l0,0v0c0,0,0,0,0,0c0.1-0.1,0.2-0.2,0.2-0.3c0.1-0.2,0.1-0.4,0.1-0.6C25.5,11.4,25.5,11.2,25.5,11.1
		L25.5,11.1L25.5,11.1C25.5,11.2,25.5,11.2,25.5,11.1L25.5,11.1L25.5,11.1L25.5,11.1L25.5,11.1c-0.1-0.1-0.1,0-0.1,0.1
		c0,0.1,0,0.3-0.1,0.6c0,0.1-0.1,0.2-0.1,0.4c0,0.1-0.1,0.2-0.2,0.3c0,0-0.1,0.1-0.1,0.2v0l0,0c0,0.1,0,0.3,0.1,0.5
		c0.1,0.3,0.1,0.7,0.2,1c0.1,0.4,0.1,0.7,0.1,1c0,0.2-0.1,0.5-0.2,0.8c-0.2,0.5-0.4,1.2-0.6,1.9c-0.2,0.7-0.4,1.5-0.4,2.2l0,0v0
		c0,0.1,0.1,0.2,0.2,0.3c0.2,0.1,0.5,0.2,0.9,0.3c0.6,0.2,1.4,0.4,2,0.5c0.3,0.1,0.7,0.1,0.9,0.2c0.3,0,0.5,0.1,0.6,0.1h0
		c0.1,0,0.2-0.1,0.2-0.2v0c0-0.8-0.3-2-0.6-3.1c-0.1-0.5-0.3-1-0.4-1.5C28,16.3,28,16.1,28,16s0-0.3,0-0.4c0-0.4,0.1-0.9,0.2-1.3
		c0-0.2,0.1-0.4,0.1-0.6s0.1-0.3,0.1-0.5l0,0v0c0-0.1,0-0.1,0-0.1c-0.2-0.2-0.2-0.6-0.3-0.9c-0.1-0.3-0.1-0.6-0.1-0.6
		c0,0,0-0.1-0.1-0.1l-0.3-0.2c0,0-0.1,0-0.1,0c0,0-0.1,0-0.1,0c0,0,0,0.1,0,0.1c0,0.2,0,0.5-0.1,0.8c0,0.1-0.1,0.3-0.2,0.4
		c0,0-0.1,0.1-0.1,0.1c0,0-0.1,0-0.2,0c0,0-0.1,0-0.1,0c-0.1,0-0.3-0.1-0.4-0.2c-0.1-0.2-0.2-0.5-0.3-0.7c-0.1-0.2-0.1-0.5-0.1-0.6
		c0,0,0-0.1,0-0.1s-0.1,0-0.1,0c0,0,0,0-0.1,0L25.5,11.1L25.5,11.1z"/>
	<path fill="#CCCCCC" d="M25,10C25,9.9,25,9.9,25,10c0-0.1,0.1-0.2,0.1-0.2c0,0,0.1,0,0.1,0c0.1,0,0.1,0,0.2,0.1c0,0,0,0,0,0.1
		s0,0.1,0,0.1v0l0,0c0,0,0,0.1,0,0.1c0,0.1-0.1,0.1-0.2,0.2c0,0-0.1,0.1-0.1,0.2s0,0.1,0,0.2l0,0v0l0.1,0l-0.1,0v0c0,0,0,0,0,0l0,0
		c0,0.1,0.1,0.2,0.2,0.3l2,1.7c0,0,0,0,0,0h0l0,0v0h0l0,0l0,0l0,0l0,0l0,0l0,0l0,0v0l0,0l0,0v0v0v0l0,0v0v0h0l-4-1c0,0,0,0,0,0
		c0,0,0,0,0,0h0l0,0v0h0l0,0l0,0l0,0l0,0l0,0l0,0l0,0l0,0l0,0l0,0l0,0l0,0l2-0.8c0.1,0,0.1-0.1,0.1-0.2c0-0.1-0.1-0.1-0.2-0.1
		l-2,0.7l0,0c0,0-0.1,0-0.1,0.1s0,0.1,0,0.1c0,0.1,0,0.1,0.1,0.2c0,0,0.1,0.1,0.2,0.1l4,1c0,0,0,0,0.1,0c0.1,0,0.1,0,0.2-0.1
		s0.1-0.1,0.1-0.2c0-0.1,0-0.2-0.1-0.2l-2-1.7c0,0-0.1-0.1-0.1-0.1l0,0v0h-0.1l0.1,0v0h-0.1l0.1,0v0l-0.1,0h0.1v0l-0.1,0h0.1l0,0
		c0-0.1,0-0.1,0-0.1c0-0.1,0.1-0.1,0.2-0.2c0,0,0.1-0.1,0.1-0.1c0-0.1,0-0.1,0-0.2l0,0v0c0-0.1,0-0.1,0-0.2c0-0.1-0.1-0.2-0.2-0.2
		s-0.2-0.1-0.3-0.1c-0.1,0-0.2,0-0.3,0.1c0,0-0.1,0.1-0.1,0.1c0,0.1,0,0.1,0,0.2s0.1,0.1,0.1,0.1C24.9,10.1,25,10,25,10"/>
	<path fill="#F0BA29" d="M24.1,11.1l0.3-0.1c0,0,0.1,0,0.1,0.1c0,0.3,0.1,1.5,0.8,1.6c0.7,0.2,0.8-1,0.8-1.3c0,0,0.1-0.1,0.1,0
		l0.3,0.2c0,0,0,0,0,0c0,0.2,0,1.1,0.4,1.6c0,0,0,0.1,0,0.1c0,0.5-0.4,1.5-0.4,2.3c0,0.8,1.1,3.8,1.2,5.5c0,0.1-0.1,0.2-0.2,0.2
		c-0.8,0-3.8-0.7-4.5-1.1c-0.1,0-0.1-0.1-0.1-0.2c0.1-2,1.2-4.1,1.2-4.9c0-0.8-0.4-2.1-0.4-2.5c0,0,0-0.1,0-0.1
		C24,12.1,24,11.3,24.1,11.1C24,11.1,24,11.1,24.1,11.1"/>
	<path fill="#F0BA29" d="M24.1,11.1L24.1,11.1l0.3,0l0,0v0h0l0,0v0v0l0,0l0,0v0l0,0l0,0h0l0,0l0,0h0c0,0.2,0,0.5,0.2,0.9
		c0.1,0.2,0.1,0.4,0.3,0.5c0.1,0.1,0.3,0.3,0.5,0.3c0.1,0,0.1,0,0.1,0c0.1,0,0.2,0,0.2-0.1c0.1-0.1,0.2-0.2,0.3-0.3
		c0.1-0.2,0.2-0.4,0.2-0.6c0-0.2,0.1-0.4,0.1-0.5h0l0,0l0,0h0l0,0l0,0v0l0,0l0,0v0v0l0,0l0,0v0l0,0l0.3,0.2l0,0h0l0,0l0,0h0
		c0,0.1,0,0.4,0.1,0.7c0.1,0.3,0.1,0.7,0.3,0.9c0,0,0,0,0,0v0l0,0c0,0.1,0,0.3-0.1,0.4c-0.1,0.3-0.1,0.6-0.2,0.9
		c-0.1,0.3-0.1,0.7-0.1,1c0,0.1,0,0.3,0.1,0.4c0.1,0.6,0.4,1.5,0.6,2.4c0.3,0.9,0.5,1.9,0.5,2.6v0c0,0,0,0.1-0.1,0.1h0
		c-0.2,0-0.5-0.1-0.9-0.1c-0.6-0.1-1.4-0.3-2-0.5c-0.3-0.1-0.7-0.2-0.9-0.3c-0.3-0.1-0.5-0.2-0.6-0.2c-0.1,0-0.1-0.1-0.1-0.1v0l0,0
		c0-1,0.3-2,0.6-2.9c0.1-0.4,0.3-0.8,0.4-1.2c0.1-0.3,0.2-0.6,0.2-0.9c0-0.4-0.1-0.9-0.2-1.4c0-0.2-0.1-0.5-0.1-0.7
		c0-0.2-0.1-0.4-0.1-0.5l0,0v0c0,0,0,0,0,0c0.1-0.1,0.2-0.2,0.2-0.3c0.1-0.2,0.1-0.4,0.1-0.6C24.1,11.4,24.1,11.2,24.1,11.1
		L24.1,11.1L24.1,11.1C24.1,11.2,24.1,11.2,24.1,11.1L24.1,11.1L24.1,11.1L24.1,11.1L24.1,11.1c-0.1-0.1-0.1,0-0.1,0.1
		c0,0.1,0,0.3-0.1,0.6c0,0.1-0.1,0.2-0.1,0.4c0,0.1-0.1,0.2-0.2,0.3c0,0-0.1,0.1-0.1,0.2v0l0,0c0,0.1,0,0.3,0.1,0.5
		c0.1,0.3,0.1,0.7,0.2,1c0.1,0.4,0.1,0.7,0.1,1c0,0.2-0.1,0.5-0.2,0.8c-0.2,0.5-0.4,1.2-0.6,1.9c-0.2,0.7-0.4,1.5-0.4,2.2l0,0v0
		c0,0.1,0.1,0.2,0.2,0.3c0.2,0.1,0.5,0.2,0.9,0.3c0.6,0.2,1.4,0.4,2,0.5c0.3,0.1,0.7,0.1,0.9,0.2c0.3,0,0.5,0.1,0.6,0.1h0
		c0.1,0,0.2-0.1,0.2-0.2v0c0-0.8-0.3-2-0.6-3.1c-0.1-0.5-0.3-1-0.4-1.5c-0.1-0.2-0.1-0.4-0.1-0.6c0-0.2,0-0.3,0-0.4
		c0-0.4,0.1-0.9,0.2-1.3c0-0.2,0.1-0.4,0.1-0.6s0.1-0.3,0.1-0.5l0,0v0c0-0.1,0-0.1,0-0.1c-0.2-0.2-0.2-0.6-0.3-0.9s-0.1-0.6-0.1-0.6
		c0,0,0-0.1-0.1-0.1l-0.3-0.2c0,0-0.1,0-0.1,0c0,0-0.1,0-0.1,0c0,0,0,0.1,0,0.1c0,0.2,0,0.5-0.1,0.8c0,0.1-0.1,0.3-0.2,0.4
		c0,0-0.1,0.1-0.1,0.1c0,0-0.1,0-0.2,0c0,0-0.1,0-0.1,0c-0.1,0-0.3-0.1-0.4-0.2c-0.1-0.2-0.2-0.5-0.3-0.7s-0.1-0.5-0.1-0.6
		c0,0,0-0.1,0-0.1c0,0-0.1,0-0.1,0c0,0,0,0-0.1,0L24.1,11.1L24.1,11.1z"/>
	<rect x="8.2" y="9.9" fill="#F0BA29" width="17.3" height="0.1"/>
	<rect x="25.7" y="9.8" fill="#F0BA29" width="1.2" height="0.1"/>
	<rect x="27.1" y="9.8" fill="#F0BA29" width="1.2" height="0.1"/>
	<rect x="28.5" y="9.8" fill="#F0BA29" width="1.2" height="0.1"/>
	<rect x="29.9" y="9.8" fill="#F0BA29" width="1.2" height="0.1"/>
	<rect x="31.3" y="9.8" fill="#F0BA29" width="0.5" height="0.1"/>
	<path fill="#999999" d="M30.4,14.1L30.4,14.1c-0.1,0-0.1,0.1-0.1,0.1c0,0,0,0,0,0c0,0-0.1-0.1-0.1-0.1c0,0,0,0,0,0
		c0,0,0.1-0.1,0.1-0.1c0,0,0,0,0,0C30.3,13.9,30.3,14,30.4,14.1C30.3,14,30.3,14,30.4,14.1L30.4,14.1L30.4,14.1
		C30.4,14.1,30.4,14,30.4,14.1c0.1-0.1,0-0.2-0.1-0.2c0,0-0.1,0-0.1,0c-0.1,0-0.1,0-0.2,0.1c0,0,0,0.1,0,0.1c0,0.1,0,0.1,0.1,0.2
		c0,0,0.1,0,0.1,0C30.3,14.2,30.4,14.2,30.4,14.1L30.4,14.1z"/>
	<path fill="#FFFFFF" d="M30.4,15.2l-0.5-0.6c-0.2-0.3-0.1-0.7,0.1-0.9c0.3-0.2,0.7-0.1,0.9,0.1l0.5,0.6c0.1,0.1,0.1,0.3-0.1,0.4
		l-0.6,0.4C30.6,15.4,30.4,15.4,30.4,15.2"/>
	<path fill="#999999" d="M30.4,15.2L30.4,15.2l-0.4-0.7c-0.1-0.1-0.1-0.2-0.1-0.3c0-0.2,0.1-0.4,0.2-0.5l0,0v0h0l0,0
		c0.1-0.1,0.2-0.1,0.3-0.1c0.2,0,0.4,0.1,0.5,0.2l0.5,0.6c0,0,0,0.1,0,0.1c0,0.1,0,0.1-0.1,0.2l-0.6,0.4c0,0-0.1,0-0.1,0
		C30.5,15.3,30.4,15.3,30.4,15.2L30.4,15.2L30.4,15.2c0,0.1,0.1,0.2,0.2,0.2c0.1,0,0.1,0,0.2-0.1l0.6-0.4c0.1-0.1,0.1-0.2,0.1-0.3
		c0-0.1,0-0.1-0.1-0.2L31,13.8c-0.1-0.2-0.3-0.3-0.5-0.3c-0.1,0-0.3,0-0.4,0.1l0,0v0h0l0,0c-0.2,0.1-0.3,0.3-0.3,0.5
		c0,0.1,0,0.3,0.1,0.4L30.4,15.2L30.4,15.2z"/>
	<path fill="#FFE279" d="M30,13.5c0.1,0,0.1,0.1,0.2,0.1c0,0,0,0,0.1,0c0,0,0,0,0-0.1C30.1,13.6,30.1,13.5,30,13.5
		C30,13.5,30,13.5,30,13.5C29.9,13.5,29.9,13.5,30,13.5"/>
	<path fill="#FFE279" d="M30,13.5c0,0-0.1-0.1-0.1-0.1c-0.1,0-0.1,0-0.1,0c0,0-0.1,0-0.1-0.1c0,0,0,0,0-0.1c0,0,0-0.1,0-0.1v0l0,0
		c0,0,0,0,0,0c0,0,0,0,0.1,0c0,0,0,0,0,0c0,0,0.1,0,0.1,0c0,0,0,0.1,0.1,0.1C29.9,13.3,29.9,13.4,30,13.5
		C29.9,13.5,29.9,13.5,30,13.5L30,13.5C29.9,13.5,29.9,13.5,30,13.5c-0.1,0.1-0.1,0.2,0,0.3c0,0,0,0.1,0.1,0.1c0,0,0.1,0.1,0.1,0.1
		c0,0,0,0,0,0c0,0,0,0,0,0c0,0,0,0-0.1,0c0,0,0-0.1-0.1-0.1C30,13.7,30,13.6,30,13.5C30,13.5,30,13.5,30,13.5L30,13.5
		C30,13.5,30,13.5,30,13.5c0-0.1,0-0.2,0-0.2c0,0,0-0.1-0.1-0.1c0,0-0.1-0.1-0.1-0.1c0,0,0,0,0,0c-0.1,0-0.1,0-0.1,0c0,0,0,0,0,0
		l0,0l0,0c0,0,0,0.1,0,0.1c0,0,0,0.1,0,0.1c0,0.1,0.1,0.1,0.1,0.1c0,0,0.1,0,0.1,0C29.9,13.5,29.9,13.5,30,13.5
		C30,13.6,30,13.6,30,13.5C30,13.5,30,13.5,30,13.5"/>
	<path fill="#E32421" d="M30.2,14.4L30.2,14.4l0.2-0.1l0-0.1l0.1-0.1l0,0.1l0.1-0.1c0.1,0,0.1-0.1,0.2-0.1c0.1,0,0.1,0,0.1,0.1
		c0.1,0.1,0.1,0.2,0,0.2l-0.1,0c0-0.1,0-0.1,0-0.1c0,0,0,0-0.1,0c0,0-0.1,0-0.1,0l-0.1,0.1l0.1,0.2l-0.1,0.1l-0.1-0.2l-0.1,0.1
		l0.2,0.3l-0.1,0.1L30.2,14.4L30.2,14.4z"/>
	<polyline fill="#CCFFFF" points="8.9,14.6 9.7,16.6 9.8,16.5 9,14.5 	"/>
	<polyline fill="#CCFFFF" points="8.8,15.3 9.5,16.9 9.5,16.8 8.9,15.3 	"/>
	<polyline fill="#CCFFFF" points="8.5,15.2 9,16.4 9,16.4 8.5,15.2 	"/>
	<polygon fill="#CCCCCC" points="10.7,22.8 10.7,9.9 13.8,9.9 13.8,25.2 	"/>
	<polygon fill="#12A14A" points="20.3,12.7 20.1,13.1 20.7,13.4 21.1,12.8 	"/>
	<polygon fill="#E32421" points="20.3,12.7 20.1,13.1 20.7,13.4 21.1,12.8 	"/>
	<polygon fill="#E32421" points="21.8,12.7 22,13.1 21.4,13.4 21,12.8 	"/>
	<path fill="#F23B5C" d="M21.1,13.8c-0.1,0-0.1,0.1-0.1,0.1s0.1,0.1,0.1,0.1c0.1,0,0.1-0.1,0.1-0.1S21.1,13.8,21.1,13.8"/>
	<path fill="#F27DAB" d="M18.6,16.7h-3.1c-0.2,0-0.3-0.1-0.3-0.3v-0.1c0-0.2,0.1-0.3,0.3-0.3h3.1c0.2,0,0.3,0.1,0.3,0.3v0.1
		C18.9,16.5,18.7,16.7,18.6,16.7"/>
	<path fill="#E32421" d="M18.6,17.4h-3.1c-0.2,0-0.3-0.1-0.3-0.3V17c0-0.2,0.1-0.3,0.3-0.3h3.1c0.2,0,0.3,0.1,0.3,0.3v0.1
		C18.9,17.3,18.7,17.4,18.6,17.4"/>
	<path fill="#F29222" d="M18.5,18.3h-2.9c-0.2,0-0.4-0.2-0.4-0.4v-0.1c0-0.2,0.2-0.4,0.4-0.4h2.9c0.2,0,0.4,0.2,0.4,0.4v0.1
		C18.9,18.1,18.7,18.3,18.5,18.3"/>
	<path fill="#FFCCCC" d="M17.5,15.8L17.5,15.8C17.5,15.8,17.5,15.8,17.5,15.8C17.4,15.9,17.2,16,17,16c0,0,0,0-0.1,0c0,0,0,0,0,0
		c-0.2,0-0.3-0.1-0.4-0.2c0,0-0.1,0-0.1,0l0,0c0,0.1,0.1,0.3,0.2,0.4c0.1,0,0.3,0,0.3-0.1c0.1,0.1,0.2,0.1,0.3,0.1
		C17.5,16.1,17.6,16,17.5,15.8"/>
	<path fill="#CCFFFF" d="M16.2,17.4c0,0.4,0.3,0.7,0.7,0.7s0.7-0.3,0.7-0.7H16.2z"/>
	<path fill="#FFFFFF" d="M17.9,17.6c0-0.1-0.1-0.2-0.2-0.2h0c0,0.1,0,0.2-0.1,0.3l0,0c0,0.1-0.1,0.1-0.2,0.2l0,0
		c-0.1,0-0.1,0.1-0.2,0.1c0,0,0,0,0,0c-0.1,0-0.1,0-0.2,0c0,0,0,0,0,0s0,0,0,0c-0.1,0-0.1,0-0.2,0c0,0,0,0,0,0
		c-0.1,0-0.1-0.1-0.2-0.1l0,0c-0.1-0.1-0.1-0.1-0.2-0.2l0,0c0-0.1-0.1-0.2-0.1-0.3h0c-0.1,0-0.2,0.1-0.2,0.2c0,0.1,0.1,0.2,0.2,0.2
		c0,0,0,0,0,0c0,0,0,0.1,0,0.1c0,0.1,0.1,0.2,0.2,0.2c0,0,0,0,0.1,0c0,0,0,0,0,0.1c0,0.1,0.1,0.2,0.2,0.2c0,0,0.1,0,0.1-0.1
		c0,0.1,0.1,0.1,0.1,0.1c0.1,0,0.1,0,0.1-0.1c0,0,0.1,0.1,0.1,0.1c0.1,0,0.1-0.1,0.1-0.1c0,0,0.1,0.1,0.1,0.1c0.1,0,0.2-0.1,0.2-0.2
		c0,0,0,0,0-0.1c0,0,0,0,0.1,0c0.1,0,0.2-0.1,0.2-0.2c0,0,0-0.1,0-0.1c0,0,0,0,0,0C17.8,17.7,17.9,17.6,17.9,17.6"/>
	<path fill="#FFFFFF" d="M17.1,16.9C17.1,17,17.1,17,17.1,16.9C17,17,17,17,17,16.9S17,16.9,17.1,16.9
		C17.1,16.9,17.1,16.9,17.1,16.9"/>
	<path fill="#FFCCCC" d="M17.2,16.4c0,0.1-0.1,0.1-0.1,0.1s-0.1-0.1-0.1-0.1s0.1-0.1,0.1-0.1S17.2,16.4,17.2,16.4"/>
	<path fill="#FFFFFF" d="M17.1,17.2C17.1,17.2,17.1,17.2,17.1,17.2c-0.1,0.1-0.1,0-0.1,0C17,17.1,17,17.1,17.1,17.2
		C17.1,17.1,17.1,17.1,17.1,17.2"/>
	<polygon fill="#750024" points="11.1,22.1 8.9,20.9 8.9,20.4 11.1,21.6 	"/>
	<polygon fill="#E32421" points="11.1,21.6 8.9,20.4 10.7,20.4 12.9,21.5 	"/>
	<rect x="11.1" y="21.5" fill="#750024" width="1.8" height="0.6"/>
	<path fill="#FFCC99" d="M13.2,20.9c0,0,0.3,3.2-0.2,4.3c0,0,1.1,0.4,1.6,0.1c0,0-0.8-2.5-0.6-5c0,0,0.2-1.1,0-2.1
		c-0.3-1,0.1-8.4,0.1-8.4l0,0c-0.1-0.1-0.2-0.1-0.4-0.1c-0.1,0-0.1,0-0.3,0c-0.5,0-0.4-0.3-0.9-0.2s-0.3,0.2-0.9,0.2
		c-0.6,0-0.4-0.3-0.8-0.3c-0.4,0-0.4,0.4-0.8,0.4c-0.4,0-0.5-0.4-0.6-0.2c-0.1,0.1-0.5,6.1,2.7,8.9c0.1,0.1,0.2,0.3,0.1,0.4
		c0,0.2-0.1,0.6,0,1c0,0.1,0,0.2,0,0.3c-0.1,0.6-0.6,2.6-1.3,3.5c-0.1,0.2-0.1,0.5,0,0.6c0.2,0.2,0.5,0.4,0.9,0.4"/>
	<path fill="#FF9999" d="M12.9,25.2c-1.5,0-1.3-0.3-1.3-0.3c0.6-0.8,1-3.4,1.1-4.1c0-0.1,0.1-0.2,0.2-0.2l0.3,0.1
		c0.1,0,0.1,0,0.1,0.1c-0.1,0.2-0.1,0.4-0.1,0.6v1.4c0,0.1,0,0.2,0,0.3l0.1,1.8c0,0.1,0,0.1-0.1,0.2C13.2,25.1,13,25.2,12.9,25.2"/>
	<path fill="#FF9999" d="M12.5,18.4c0,0-1.8-2.6-2.1-6.6c-0.2-3,0.5,0,1.1,3.5C11.8,16.9,12.9,18.6,12.5,18.4"/>
	<path fill="#FF9999" d="M12.2,13.3c0-0.1-0.1-0.1-0.2,0c0,0,0,0.1,0,0.1c0,0.3,0,0.5,0,0.8c0,0.9,0.2,1.7,0.5,2.5
		c0.1,0.1,0.2,0.1,0.2-0.1c0-0.2,0-0.4,0-0.6C12.6,15.2,12.4,14.2,12.2,13.3"/>
	<path fill="#FF9999" d="M12.3,10.2c-0.2,0-0.1,0.2,0,0.4c0.1,0.1,0.2,0.2,0.2,0.4c0.3,1.1,0.1,2.2,0.3,3.3c0.1,0,0,0,0.1,0
		c0-0.9,0-1.8,0-2.7c0-0.3,0-0.7-0.1-1C12.8,10.4,12.5,10.2,12.3,10.2"/>
	<path fill="#D6FF5C" d="M13.6,29.6c-0.1,0.2,0,0.4,0.3,0.4h0h12.3h0c0.3,0,0.4-0.3,0.3-0.4L13.6,29.6z"/>
	<path fill="#12A14A" d="M24.8,29.8h-9.4c-0.2,0-0.3-0.2-0.2-0.3l1.8-2.6c0-0.1,0.2-0.1,0.3-0.1h5.6c0.1,0,0.3,0,0.3,0.1l1.8,2.6
		C25.1,29.6,25,29.8,24.8,29.8"/>
	<path fill="#F29222" d="M20,26.8C20,26.8,19.9,26.8,20,26.8c-0.1,0-0.1,0-0.1,0c0,0,0,0-0.1,0c0,0,0,0,0,0c0,0-0.1,0-0.1,0
		c0,0,0,0,0,0c0,0-0.1,0-0.2,0c0,0,0,0,0,0c0,0,0,0-0.1,0c0,0,0,0-0.1,0s-0.1,0-0.1,0c0,0,0,0,0,0c0,0,0,0,0,0c0,0,0,0,0,0
		c-0.1,0-0.2,0-0.2,0c0,0,0,0,0,0c0,0,0,0,0,0.1c0,0,0,0-0.1,0c0,0-0.1,0-0.1,0c0,0-0.1,0-0.2,0c-0.1,0-0.1,0-0.2,0c0,0,0,0,0,0
		c0,0-0.1,0-0.1,0c0,0-0.1,0-0.1,0c0,0-0.1,0-0.1,0c-0.1,0-0.1,0-0.2,0c0,0,0,0,0,0c-0.1,0-0.1,0-0.2,0c0,0,0,0,0,0c0,0,0,0-0.1,0
		c0,0,0,0,0,0c0,0-0.1,0-0.1,0c0,0,0,0,0,0.1c0,0-0.1,0-0.1,0c0,0-0.1,0-0.1,0c0,0-0.1,0-0.1,0c0,0-0.1,0-0.1,0c0,0-0.1,0-0.1,0
		c0,0,0,0,0-0.1c0,0-0.1,0-0.1,0c-0.1,0-0.1,0-0.2,0c0,0,0,0-0.1,0c0,0,0,0,0,0c0,0,0,0-0.1,0c0,0,0,0,0,0c0,0,0,0.1,0,0.1
		c0,0-0.1,0.1-0.1,0.1h3.8C20,26.9,20,26.8,20,26.8C20,26.8,20,26.8,20,26.8"/>
	<path fill="#F29222" d="M23.8,26.8C23.8,26.8,23.8,26.8,23.8,26.8C23.8,26.8,23.8,26.8,23.8,26.8C23.7,26.8,23.7,26.8,23.8,26.8
		c-0.1-0.1-0.1,0-0.1,0c0,0,0,0-0.1,0c-0.1,0-0.1,0-0.2,0c0,0,0,0-0.1,0c0,0,0,0,0,0.1c0,0-0.1,0-0.1,0c0,0-0.1,0-0.1,0
		c0,0-0.1,0-0.1,0c0,0-0.1,0-0.1,0c0,0,0,0-0.1,0c0,0,0,0,0-0.1c0,0-0.1,0-0.1,0c0,0,0,0,0,0c0,0,0,0-0.1,0c0,0,0,0,0,0
		c-0.1,0-0.1,0-0.2,0c0,0,0,0,0,0c-0.1,0-0.1,0-0.2,0c0,0-0.1,0-0.1,0c0,0-0.1,0-0.1,0c0,0-0.1,0-0.1,0c0,0,0,0,0,0c0,0-0.1,0-0.2,0
		c0,0-0.1,0-0.2,0c0,0-0.1,0-0.1,0c0,0,0,0-0.1,0c0,0,0,0,0-0.1c0,0,0,0,0,0c-0.1,0-0.2,0-0.2,0c0,0,0,0,0,0c0,0,0,0,0,0
		c0,0,0,0,0,0c0,0-0.1,0-0.1,0c0,0-0.1,0-0.1,0c0,0,0,0-0.1,0c0,0,0,0,0,0c-0.1,0-0.1,0-0.2,0c0,0,0,0,0,0c0,0-0.1,0-0.1,0l0,0
		c0,0,0,0-0.1,0c0,0,0,0,0,0c0,0-0.1,0-0.1,0c0,0,0,0-0.1,0c0,0,0,0.1,0,0.1L23.8,26.8C23.8,26.9,23.8,26.8,23.8,26.8"/>
	<path fill="#148C00" d="M15.2,27.8L15.2,27.8C15.2,27.8,15.2,27.8,15.2,27.8"/>
	<path fill="#148C00" d="M14.7,28.3L14.7,28.3C14.7,28.3,14.7,28.3,14.7,28.3"/>
	<path fill="#148C00" d="M15.2,27.7L15.2,27.7C15.2,27.7,15.2,27.7,15.2,27.7"/>
	<path fill="#F29222" d="M26.5,29.5c0,0,0-0.1,0-0.1c0,0,0,0,0,0c0,0,0-0.1-0.1-0.1c0,0-0.1-0.1-0.1-0.1c0,0,0,0,0,0l0,0
		c0-0.1-0.1-0.1-0.1-0.2c0,0,0,0,0,0l0,0L26,28.9c0,0,0-0.1,0-0.1c0,0,0,0,0,0l0,0c0,0,0-0.1,0-0.1c0,0-0.1-0.1-0.1-0.1
		c0,0-0.1-0.1-0.1-0.1c0,0,0,0,0,0c0,0-0.1,0-0.1,0c0,0-0.1-0.1-0.1-0.1c0,0,0,0,0,0l0,0v0l0,0c0,0,0,0,0-0.1l0,0c0,0,0,0,0,0
		c0,0,0-0.1-0.1-0.1c0,0-0.1,0-0.1,0c0,0-0.1-0.1-0.1-0.1l0,0c0-0.1,0-0.1-0.1-0.2c0,0,0,0,0,0c-0.1,0-0.1-0.1-0.1-0.1l0,0
		c0,0,0,0,0,0c0,0,0-0.1-0.1-0.1l0,0c0,0,0,0,0,0c0,0,0,0-0.1-0.1c0,0-0.1-0.1-0.1-0.1c0,0-0.1,0-0.1-0.1c0,0-0.1-0.1-0.1-0.1
		c0,0,0,0,0,0c0,0,0,0,0,0c0,0,0,0,0,0c0-0.1-0.1-0.1-0.1-0.2c0,0,0,0-0.1,0c0,0,0-0.1,0-0.1c0,0,0,0,0,0c-0.1-0.1-0.1-0.2-0.2-0.2
		c0,0,0,0,0,0c-0.1,0-0.1-0.1-0.2-0.1c0,0,0,0.1,0,0.1c-0.1,0-0.1,0-0.2,0h-7.3c-0.1,0-0.1,0-0.2,0c0,0,0,0,0,0
		c-0.1,0-0.1,0-0.2,0.1c0,0,0,0,0,0c0,0.1-0.1,0.2-0.2,0.2c0,0,0,0,0,0c0,0,0,0.1,0,0.1c0,0,0,0-0.1,0c0,0.1-0.1,0.1-0.1,0.2
		c0,0,0,0,0,0c0,0,0,0,0,0s0,0,0,0c0,0,0,0.1-0.1,0.1c0,0-0.1,0-0.1,0.1c0,0-0.1,0.1-0.1,0.1c0,0,0,0-0.1,0.1c0,0,0,0,0,0l0,0
		c0,0,0,0.1-0.1,0.1c0,0,0,0,0,0l0,0c0,0.1-0.1,0.1-0.1,0.1c0,0,0,0,0,0c0,0.1,0,0.1-0.1,0.2l0,0c-0.1,0-0.1,0.1-0.1,0.1
		c0,0,0,0-0.1,0c0,0,0,0.1-0.1,0.1c0,0,0,0,0,0l0,0c0,0,0,0,0,0.1l0,0v0l0,0c0,0,0,0,0,0c0,0-0.1,0.1-0.1,0.1c0,0-0.1,0-0.1,0
		s0,0,0,0c0,0.1-0.1,0.1-0.1,0.1c0,0-0.1,0.1-0.1,0.1c0,0,0,0.1,0,0.1l0,0c0,0,0,0,0,0c0,0,0,0.1,0,0.1L14.1,29l0,0c0,0,0,0,0,0
		c0,0.1-0.1,0.1-0.1,0.2l0,0c0,0,0,0,0,0c0,0-0.1,0.1-0.1,0.1c0,0,0,0.1-0.1,0.1c0,0,0,0,0,0c0,0,0,0.1,0,0.2
		c-0.1,0.1,0,0.3,0.3,0.3h12.3C26.5,29.9,26.6,29.7,26.5,29.5"/>
	<path fill="#148C00" d="M25.5,28.3L25.5,28.3C25.5,28.3,25.5,28.3,25.5,28.3"/>
	<path fill="#148C00" d="M24.9,27.7L24.9,27.7C25,27.7,25,27.7,24.9,27.7"/>
	<path fill="#148C00" d="M25,27.8L25,27.8C25,27.8,25,27.8,25,27.8"/>
	<path fill="#666666" d="M19.7,28.5l0.2,0l0,0.1l-0.2,0V28.5z M19.9,28.4l0.2,0l0,0.1l-0.2,0L19.9,28.4z M19.5,28.6l0.2,0v0.1
		l-0.2,0L19.5,28.6z M21,28.8L21,29l-0.5,0l0,0.2l0.5,0l0-0.2l0.2,0l-0.1-0.3L21,28.8l-0.1-0.3l-0.2,0l0,0.3L21,28.8z M21.5,28.3
		l-0.1-0.2l-0.2,0l0,0.1l-0.8,0l0,0.2l0.2,0l0-0.1L21.5,28.3z M20.1,28.5l0.2,0l0,0.3l-0.2,0L20.1,28.5z M19.4,27.3l0.2,0l0-0.1
		L19.4,27.3l0-0.2l-0.2,0L19,28.9l0.4,0l0-0.1l-0.2,0L19.4,27.3z M20.3,28.8l0.2,0l0,0.3l-0.2,0L20.3,28.8z M20.4,27.7l0.2,0l0,0.1
		L20.4,27.7L20.4,27.7z M20.8,27.9l0,0.1l0.2,0l0-0.1L20.8,27.9l0-0.1l-0.2,0l0,0.1L20.8,27.9z M21,28l0.2,0l0,0.1l-0.2,0L21,28z
		 M19.5,27.3l0.2,0v0.1L19.5,27.3L19.5,27.3z M19.7,27.4l0.2,0l0,0.1L19.7,27.4L19.7,27.4z M19.9,27.4l0.2,0l0,0.1L19.9,27.4
		L19.9,27.4z M20.2,27.6l0.2,0l0,0.1L20.2,27.6L20.2,27.6z M20,27.5l0.2,0l0,0.1L20,27.5L20,27.5z"/>
	<polyline fill="#FFFFFF" points="20.6,27.8 20.4,27.8 20.4,27.7 20.2,27.7 20.2,27.6 20,27.6 20,27.5 19.9,27.5 19.9,27.4 
		19.7,27.4 19.7,27.4 19.5,27.4 19.5,27.3 19.4,27.3 19.2,28.8 19.5,28.8 19.5,28.6 19.7,28.6 19.7,28.5 19.9,28.5 19.9,28.4 
		20.1,28.4 20.1,28.5 20.3,28.5 20.3,28.8 20.5,28.8 20.6,29.1 21,29 21,28.8 20.8,28.8 20.7,28.5 20.5,28.5 20.5,28.2 21.3,28.2 
		21.2,28.1 21,28.1 21,28 20.8,28 20.8,27.9 20.6,27.9 20.6,27.8 	"/>
	<path fill="#F79433" d="M24.9,29.7L24.9,29.7C24.9,29.7,24.9,29.7,24.9,29.7L24.9,29.7C25,29.6,25,29.6,24.9,29.7
		c0.1-0.1,0.1-0.1,0.1-0.1v0c0,0,0,0,0,0c0,0,0,0,0,0c0,0,0,0.1,0,0.1C25,29.7,25,29.7,24.9,29.7C24.9,29.8,24.9,29.8,24.9,29.7
		C24.9,29.7,24.9,29.7,24.9,29.7"/>
	<path fill="#F79433" d="M15.4,29.7C15.4,29.7,15.4,29.7,15.4,29.7C15.4,29.7,15.4,29.7,15.4,29.7C15.4,29.7,15.3,29.6,15.4,29.7
		L15.4,29.7c-0.1-0.1-0.1-0.1-0.1-0.1c0,0,0,0,0,0v0c0,0,0,0,0,0c0,0,0,0,0,0c0,0,0,0.1,0,0.1C15.2,29.7,15.3,29.8,15.4,29.7
		C15.3,29.8,15.4,29.8,15.4,29.7C15.4,29.7,15.4,29.7,15.4,29.7"/>
	<path fill="#D6FF5C" d="M18,29.8C18,29.8,17.9,29.8,18,29.8c-0.1,0-0.1,0-0.1,0c0,0,0,0-0.1,0c0,0,0,0,0,0c0,0-0.1,0-0.1,0
		c0,0,0,0,0,0c0,0-0.1,0-0.2,0c0,0,0,0-0.1,0c0,0,0,0-0.1,0c0,0-0.1,0-0.1,0c0,0-0.1,0-0.1,0c0,0,0,0,0,0c0,0,0,0,0,0c0,0,0,0,0,0
		c-0.1,0-0.2,0-0.3,0c0,0,0,0,0,0c0,0,0,0-0.1,0.1c0,0,0,0-0.1,0c0,0-0.1,0-0.1,0c-0.1,0-0.2,0-0.2,0c-0.1,0-0.1,0-0.2,0
		c0,0,0,0,0,0c0,0-0.1,0-0.1,0c0,0-0.1,0-0.1,0c0,0-0.1,0-0.1,0c-0.1,0-0.1,0-0.2,0c0,0,0,0,0,0c-0.1,0-0.1,0-0.2,0c0,0,0,0,0,0
		c0,0-0.1,0-0.1,0c0,0,0,0,0,0c0,0-0.1,0-0.1,0c0,0,0,0-0.1,0.1c0,0-0.1,0-0.1,0c0,0-0.1,0-0.1,0c0,0-0.1,0-0.1,0
		c-0.1,0-0.1,0-0.1,0c0,0-0.1,0-0.1,0c0,0,0,0,0-0.1c0,0-0.1,0-0.1,0c-0.1,0-0.1,0-0.2,0c0,0,0,0-0.1,0c0,0,0,0,0,0c0,0,0,0-0.1,0
		c0,0,0,0,0,0c0,0,0,0.1,0,0.1c0,0-0.1,0.1-0.1,0.1h4.2C18.1,30,18.1,29.9,18,29.8C18.1,29.9,18,29.8,18,29.8"/>
	<path fill="#D6FF5C" d="M18,29.8L18,29.8C18,29.8,18,29.8,18,29.8C18,29.8,18,29.8,18,29.8C17.9,29.8,17.9,29.8,18,29.8
		c-0.1-0.1-0.1-0.1-0.1,0L18,29.8L18,29.8L18,29.8L18,29.8L18,29.8L18,29.8L18,29.8L18,29.8L18,29.8c-0.1-0.1-0.1-0.1-0.1-0.1
		c0,0-0.1,0-0.1,0l0,0l0,0c0,0,0,0,0,0c0,0,0,0,0,0c0,0-0.1,0-0.1,0l0,0l0,0c0,0,0,0,0,0c0,0,0,0-0.1,0c0,0,0,0-0.1,0
		c0,0-0.1,0-0.1,0c0,0,0,0,0,0c0,0,0,0,0,0c0,0,0,0,0,0l0,0l0,0c0,0,0,0-0.1,0c0,0,0,0,0,0c0,0,0,0,0,0l0,0h0v0l0,0h0h0l0,0l0,0h0
		l0,0l0,0l0,0l0,0l0,0l0,0l0,0c0,0,0,0-0.1,0h0l0,0c0,0-0.1,0-0.1,0c0,0,0,0,0,0l0,0l0,0c0,0,0,0,0,0c0,0,0,0,0,0c0,0,0,0,0,0
		s0,0,0,0l0,0v0h0l0,0l0,0l0,0l0,0l0,0l0,0h0c0,0,0,0,0,0l0,0h0h0l0,0l0,0h0l0,0c0,0,0,0,0,0c0,0,0,0,0,0c0,0-0.1,0-0.1,0
		c0,0-0.1,0-0.1,0l0,0l0,0c0,0,0,0,0,0c0,0,0,0-0.1,0c0,0-0.1,0.1-0.1,0.1l0,0l0,0c0,0,0,0-0.1,0c0,0,0,0,0,0c0,0,0,0,0,0l0,0l0,0
		c0,0,0,0,0,0l0,0l0,0l0,0l0,0l0,0l0,0l0,0l0,0c0,0,0,0,0,0c0,0,0,0,0,0l0,0l0,0l0,0h0l0,0l0,0l0,0l0,0l0,0l0,0l0,0c0,0,0,0,0,0
		c0,0,0,0,0,0c0,0,0,0-0.1,0c0,0,0,0-0.1,0c0,0,0,0,0,0c0,0,0,0,0,0c-0.1,0-0.1,0-0.2,0l0,0l0,0c0,0,0,0,0,0c0,0,0,0,0,0
		c0,0-0.1,0-0.1,0c0,0,0,0,0,0c0,0,0,0,0,0h0l0,0l0,0l0,0l0,0l0,0l0,0h0c0,0,0,0,0,0l0,0h0h0l0,0v0h0l0,0c0,0,0,0,0,0c0,0,0,0,0,0
		c0,0,0,0,0,0c0,0,0,0,0,0l0,0h0c0,0,0,0,0,0c-0.1,0-0.1,0-0.2,0l0,0l0,0c0,0,0,0,0,0c0,0,0,0,0,0c0,0-0.1,0-0.1,0c0,0,0,0-0.1,0
		l0,0l0,0c0,0,0,0,0,0c0,0,0,0,0,0c0,0-0.1,0-0.1,0l0,0l0,0c0,0,0,0,0,0c0,0,0,0,0,0c0,0,0,0,0,0c0,0,0,0,0,0l0,0l0,0l0,0
		c0,0,0,0,0,0c0,0,0,0,0,0c0,0,0,0,0,0h0c0,0,0,0,0,0l0,0l0,0l0,0l0,0l0,0l0,0l0,0h0c0,0,0,0,0,0l0,0h0h0l0,0l0,0h0l0,0c0,0,0,0,0,0
		c0,0,0,0-0.1,0h0c0,0,0,0,0,0c0,0,0,0,0,0c0,0,0,0,0,0c0,0-0.1,0-0.1,0l0,0l0,0c-0.1,0-0.1,0-0.1,0c0,0,0,0,0,0c0,0-0.1,0-0.1,0
		l0,0l0,0c0,0,0,0,0,0c0,0,0,0,0,0h0c0,0,0,0-0.1,0c0,0,0,0,0,0l0,0v0c-0.1,0-0.1,0-0.2,0h0c0,0,0,0-0.1,0l0,0l0,0v0c0,0,0,0,0,0
		c0,0,0,0,0,0c0,0,0,0-0.1,0l0,0l0,0h0l0,0l0,0c0,0,0,0,0,0c0,0,0,0,0,0c0,0,0,0,0,0c0,0,0,0,0,0c0,0,0,0,0,0.1c0,0,0,0,0,0v0l0,0
		l0,0l0,0l0,0l0,0l0,0l0,0l0,0l0,0l0,0l0,0l0,0c0,0,0,0,0,0c0,0,0,0,0,0c0,0,0,0,0,0c0,0,0,0,0,0.1c0,0,0,0,0,0l0,0l0,0l0,0l0,0l0,0
		l0,0l0,0l0,0l0,0l0,0l0,0l0,0v0c0,0,0,0,0,0l0,0v0c0,0,0,0,0,0c0,0,0,0,0,0c0,0,0,0,0,0c0,0,0,0,0,0h4.1c0,0,0,0,0,0s0,0,0,0
		c0,0,0,0,0,0C18.1,29.9,18.1,29.9,18,29.8l0.1,0.1l0,0C18.1,29.9,18.1,29.9,18,29.8l0.1,0.1l0,0l0,0l0,0c0,0,0,0,0,0l0,0l0,0l0,0
		l0,0l0,0l0,0l0,0l0,0l0,0l0,0l0,0l0,0c0,0,0,0,0,0c0,0,0,0,0-0.1c0,0,0,0,0,0s0,0,0,0C18.1,29.8,18.1,29.8,18,29.8
		C18.1,29.8,18.1,29.8,18,29.8L18,29.8L18,29.8L18,29.8L18,29.8L18,29.8L18,29.8L18,29.8L18,29.8L18,29.8L18,29.8L18,29.8L18,29.8
		L18,29.8L18,29.8L18,29.8C18.1,29.8,18.1,29.8,18,29.8C18.1,29.8,18,29.8,18,29.8C18,29.8,18,29.8,18,29.8L18,29.8L18,29.8L18,29.8
		L18,29.8L18,29.8L18,29.8L18,29.8L18,29.8L18,29.8L18,29.8L18,29.8L18,29.8L18,29.8L18,29.8L18,29.8L18,29.8L18,29.8L18,29.8
		L18,29.8C18,29.9,18,29.9,18,29.8C18,29.9,18,29.9,18,29.8C18.1,29.9,18.1,29.9,18,29.8L18,29.8L18,29.8L18,29.8c0,0,0,0.1,0,0.1
		c0,0,0,0,0,0v0v0l0,0l0,0c0,0,0,0,0,0c0,0,0,0,0,0c0,0,0,0,0,0c0,0,0,0,0,0c0,0,0,0,0,0h-4.2c0,0,0,0,0,0s0,0,0,0c0,0,0,0,0,0
		c0,0,0,0,0,0c0,0,0,0,0,0c0,0,0,0,0,0c0,0,0,0,0,0c0,0,0,0,0-0.1l0,0l0,0l0,0v0c0,0,0,0,0,0l0,0v0v0l0,0l0,0v0l0,0c0,0,0,0,0,0
		c0,0,0,0,0,0c0,0,0,0,0,0c0,0,0,0,0-0.1c0,0,0,0,0,0v0l0,0l0,0l0,0l0,0l0,0l0,0l0,0l0,0l0,0l0,0l0,0l0,0c0,0,0,0,0,0c0,0,0,0,0,0h0
		c0,0,0,0,0.1,0c0,0,0,0,0,0l0,0l0,0h0l0,0l0,0h0l0,0l0,0h0h0l0,0v0h0l0,0c0,0,0,0,0,0c0,0,0,0,0,0c0,0,0,0,0.1,0l0,0v0
		c0.1,0,0.1,0,0.2,0c0,0,0,0,0,0l0,0l0,0l0,0l0,0l0,0l0,0l0,0l0,0l0,0l0,0c0,0,0,0,0,0l0,0v0l0,0c0,0,0,0.1,0,0.1c0,0,0,0,0,0
		c0,0,0.1,0,0.1,0l0,0l0,0c0.1,0,0.1,0,0.1,0h0c0,0,0.1,0,0.1,0l0,0l0,0c0,0,0.1,0,0.1,0c0,0,0.1,0,0.1,0l0,0l0,0l0,0c0,0,0,0,0,0
		c0,0,0,0,0,0c0,0,0,0,0,0c0,0,0,0,0,0c0,0,0.1,0,0.1-0.1l0,0l0,0c0,0,0,0,0.1,0s0,0,0.1,0c0,0,0,0,0.1,0l0,0l0,0c0,0,0,0,0,0
		c0,0,0,0,0,0c0,0,0,0,0,0c0,0,0,0,0,0l0,0l0,0c0,0,0,0,0,0c0,0,0,0,0,0c0,0,0,0,0.1,0c0,0,0.1,0,0.1,0l0,0l0,0c0,0,0,0,0,0
		c0,0,0,0,0,0c0.1,0,0.1,0,0.2,0l0,0l0,0c0,0,0,0,0,0c0,0,0,0,0.1,0c0,0,0,0,0.1,0l0,0l0,0v0c0,0,0,0,0,0c0,0,0,0,0,0c0,0,0,0,0,0
		c0,0,0,0,0.1,0c0,0,0.1,0,0.1,0l0,0l0,0c0,0,0,0,0,0c0,0,0,0,0,0c0.1,0,0.1,0,0.2,0l0,0l0,0c0,0,0,0,0.1,0c0,0,0.1,0,0.1,0
		c0,0,0.1,0,0.1,0l0,0l0,0c0,0,0,0,0,0c0,0,0,0,0.1,0c0,0,0,0,0.1,0c0,0,0,0,0,0s0,0,0,0l0,0l0,0c0,0,0,0,0.1,0c0,0,0,0,0.1,0
		c0,0,0,0,0,0l0,0l0,0c0,0,0,0,0,0c0,0,0,0,0,0c0,0,0.1,0,0.1,0c0.1,0,0.1,0,0.2,0l0,0l0,0c0,0,0,0,0,0c0,0,0,0,0,0c0,0,0,0,0,0
		c0,0,0,0,0,0c0,0,0,0,0,0c0,0,0,0,0,0l0,0l0,0c0,0,0,0,0,0c0,0,0,0,0,0c0,0,0,0,0,0c0,0,0.1,0,0.1,0l0,0h0c0,0,0.1,0,0.1,0
		c0,0,0,0,0,0c0,0,0,0,0,0v0l0,0l0,0c0,0,0,0,0.1,0c0,0,0,0,0,0c0,0,0,0,0,0l0,0l0,0l0,0l0,0l0,0l0,0l0,0l0,0l0,0l0,0c0,0,0,0,0,0
		l0,0l0,0c0,0,0.1,0,0.1,0c0.1,0,0.1,0,0.1,0l0,0l0,0c0,0,0,0,0,0c0,0,0,0,0,0c0,0,0.1,0,0.1,0l0,0l0,0c0,0,0,0,0,0c0,0,0,0,0.1,0
		c0,0,0,0,0,0l0,0l0,0C17.9,29.8,17.9,29.9,18,29.8C17.9,29.9,17.9,29.9,18,29.8L18,29.8L18,29.8L18,29.8L18,29.8L18,29.8L18,29.8
		L18,29.8L18,29.8L18,29.8L18,29.8L18,29.8L18,29.8L18,29.8L18,29.8L18,29.8L18,29.8L18,29.8L18,29.8L18,29.8
		C18,29.9,18,29.9,18,29.8C18,29.9,18,29.9,18,29.8L18,29.8z"/>
	<path fill="#D6FF5C" d="M22.2,29.9C22.2,29.9,22.2,29.8,22.2,29.9C22.2,29.8,22.2,29.8,22.2,29.9C22.1,29.8,22.1,29.8,22.2,29.9
		c-0.1-0.1-0.1-0.1-0.1-0.1c0,0,0,0-0.1,0c-0.1,0-0.1,0-0.2,0c0,0,0,0-0.1,0c0,0,0,0,0,0.1c0,0-0.1,0-0.1,0c-0.1,0-0.1,0-0.1,0
		c0,0-0.1,0-0.1,0c0,0-0.1,0-0.1,0c0,0,0,0-0.1,0c0,0-0.1,0-0.1-0.1c0,0-0.1,0-0.1,0c0,0,0,0,0,0c0,0,0,0-0.1,0c0,0,0,0,0,0
		c-0.1,0-0.1,0-0.2,0c0,0,0,0,0,0c-0.1,0-0.1,0-0.2,0c0,0-0.1,0-0.1,0c0,0-0.1,0-0.1,0c0,0-0.1,0-0.1,0c0,0,0,0,0,0
		c-0.1,0-0.1,0-0.2,0c0,0-0.1,0-0.2,0c0,0-0.1,0-0.1,0c0,0,0,0-0.1,0c0,0,0,0-0.1-0.1c0,0,0,0,0,0c-0.1,0-0.2,0-0.3,0c0,0,0,0,0,0
		c0,0,0,0,0,0c0,0,0,0,0,0c0,0-0.1,0-0.1,0c0,0-0.1,0-0.1,0c0,0,0,0-0.1,0c0,0,0,0-0.1,0c-0.1,0-0.2,0-0.2,0c0,0,0,0,0,0
		c0,0-0.1,0-0.1,0c0,0,0,0,0,0c0,0,0,0-0.1,0c0,0,0,0,0,0c0,0-0.1,0-0.1,0c0,0,0,0-0.1,0c0,0,0,0.1,0,0.1h4.2
		C22.2,30,22.2,29.9,22.2,29.9"/>
	<path fill="#D6FF5C" d="M22.2,29.9L22.2,29.9L22.2,29.9L22.2,29.9L22.2,29.9L22.2,29.9L22.2,29.9L22.2,29.9L22.2,29.9L22.2,29.9
		L22.2,29.9L22.2,29.9C22.2,29.9,22.2,29.9,22.2,29.9L22.2,29.9C22.2,29.8,22.2,29.8,22.2,29.9c0-0.1,0-0.1,0-0.1
		C22.2,29.8,22.1,29.8,22.2,29.9L22.2,29.9L22.2,29.9L22.2,29.9L22.2,29.9L22.2,29.9L22.2,29.9L22.2,29.9L22.2,29.9L22.2,29.9
		L22.2,29.9C22.1,29.8,22.1,29.8,22.2,29.9C22.1,29.8,22.1,29.8,22.2,29.9L22.2,29.9L22.2,29.9L22.2,29.9L22.2,29.9l-0.1-0.1
		c0,0,0,0-0.1,0c0,0,0,0,0,0c0,0,0,0,0,0v0l0,0l0,0c0,0,0,0-0.1,0h0c-0.1,0-0.1,0-0.2,0v0l0,0c0,0,0,0,0,0c0,0,0,0-0.1,0h0
		c0,0,0,0,0,0c0,0,0,0,0,0l0,0l0,0c0,0-0.1,0-0.1,0c0,0,0,0,0,0c-0.1,0-0.1,0-0.1,0l0,0l0,0c0,0-0.1,0-0.1,0c0,0,0,0,0,0
		c0,0,0,0,0,0c0,0,0,0,0,0l0,0h0c0,0,0,0-0.1,0c0,0,0,0,0,0l0,0h0l0,0l0,0h0h0l0,0c0,0,0,0,0,0h0l0,0l0,0l0,0l0,0l0,0l0,0l0,0
		c0,0,0,0,0,0h0c0,0,0,0,0,0c0,0,0,0,0,0c0,0,0,0,0,0l0,0c0,0,0,0-0.1,0c0,0,0,0,0,0c0,0,0,0,0,0c0,0,0,0,0,0l0,0l0,0
		c0,0-0.1,0-0.1,0c0,0,0,0,0,0c0,0,0,0,0,0l0,0l0,0c0,0,0,0-0.1,0c0,0-0.1,0-0.1,0c0,0,0,0,0,0c0,0,0,0,0,0l0,0l0,0
		c-0.1,0-0.1,0-0.2,0c0,0,0,0,0,0h0c0,0,0,0,0,0c0,0,0,0,0,0c0,0,0,0,0,0c0,0,0,0,0,0h0h0l0,0h0h0h0l0,0c0,0,0,0,0,0h0l0,0l0,0l0,0
		l0,0l0,0l0,0c0,0,0,0,0,0c0,0,0,0,0,0c0,0,0,0,0,0c0,0-0.1,0-0.1,0c0,0,0,0,0,0c0,0,0,0,0,0l0,0l0,0c-0.1,0-0.1,0-0.2,0
		c0,0,0,0,0,0c0,0,0,0,0,0s0,0-0.1,0c0,0,0,0-0.1,0c0,0,0,0,0,0c0,0,0,0,0,0l0,0l0,0l0,0l0,0l0,0l0,0l0,0l0,0l0,0l0,0h0h0
		c0,0,0,0,0,0l0,0l0,0l0,0l0,0l0,0l0,0l0,0l0,0l0,0l0,0l0,0c0,0,0,0,0,0c0,0,0,0,0,0c0,0,0,0-0.1,0l0,0l0,0c0,0,0-0.1-0.1-0.1
		c0,0,0,0-0.1,0c0,0,0,0,0,0l0,0l0,0c0,0-0.1,0-0.1,0c-0.1,0-0.1,0-0.1,0c0,0,0,0,0,0c0,0,0,0,0,0l0,0h0l0,0l0,0h0h0l0,0
		c0,0,0,0,0,0h0l0,0l0,0l0,0l0,0l0,0l0,0l0,0l0,0l0,0l0,0l0,0h0v0l0,0c0,0,0,0,0,0c0,0,0,0,0,0s0,0,0,0c0,0,0,0,0,0l0,0l0,0
		c0,0,0,0,0,0c0,0-0.1,0-0.1,0h0c0,0,0,0-0.1,0l0,0l0,0l0,0l0,0l0,0l0,0l0,0h0l0,0l0,0h0h0l0,0v0h0l0,0c0,0,0,0,0,0c0,0,0,0,0,0
		c0,0,0,0-0.1,0l0,0l0,0c0,0,0,0,0,0c0,0,0,0,0,0c0,0,0,0,0,0c0,0,0,0-0.1,0c0,0-0.1,0-0.1,0c0,0,0,0-0.1,0c0,0,0,0,0,0l0,0l0,0
		c0,0-0.1,0-0.1,0c0,0,0,0,0,0c0,0,0,0,0,0l0,0l0,0c0,0-0.1,0-0.1,0c0,0,0,0,0,0l0,0l0,0v0l0,0l0,0l0,0l0,0l0,0l0,0c0,0,0,0,0,0
		s0,0,0,0c0,0,0,0,0,0c0,0,0,0,0,0l0,0l0,0c0,0,0,0,0,0c0,0,0,0,0,0c0,0,0,0,0,0h0l0,0l0,0v0h0l0,0v0v0l0,0l0,0v0l0,0c0,0,0,0,0,0
		c0,0,0,0,0,0l0,0c0,0,0,0.1,0,0.1c0,0,0,0,0,0v0l0,0l0,0l0,0v0l0,0l0,0l0,0l0,0l0,0l0,0l0,0l0,0l0,0l0,0l0,0l0,0l0,0v0c0,0,0,0,0,0
		l0,0v0c0,0,0,0,0,0c0,0,0,0,0,0c0,0,0,0,0,0c0,0,0,0,0,0h4.2c0,0,0,0,0,0c0,0,0,0,0,0c0,0,0,0,0,0C22.3,30,22.3,30,22.2,29.9
		l0.1,0.1L22.2,29.9C22.3,30,22.3,30,22.2,29.9l0.1,0.1L22.2,29.9l0.1,0.1l0,0L22.2,29.9l0.1,0.1l0,0L22.2,29.9l0.1,0.1l0,0
		L22.2,29.9l0.1,0.1C22.3,30,22.3,30,22.2,29.9C22.3,29.9,22.3,29.9,22.2,29.9C22.2,29.9,22.2,29.9,22.2,29.9L22.2,29.9
		C22.2,29.9,22.2,29.9,22.2,29.9C22.2,29.9,22.2,29.9,22.2,29.9L22.2,29.9L22.2,29.9L22.2,29.9L22.2,29.9L22.2,29.9L22.2,29.9
		L22.2,29.9L22.2,29.9L22.2,29.9L22.2,29.9L22.2,29.9C22.2,29.9,22.2,29.9,22.2,29.9L22.2,29.9L22.2,29.9L22.2,29.9
		C22.2,29.9,22.2,30,22.2,29.9c0,0.1,0,0.1,0,0.1l0,0l0,0c0,0,0,0,0,0c0,0,0,0,0,0c0,0,0,0,0,0c0,0,0,0,0,0
		C22.3,30,22.3,30,22.2,29.9L18.1,30c0,0,0,0,0,0c0,0,0,0,0,0c0,0,0,0,0,0s0,0,0,0s0,0,0,0c0,0,0,0,0,0l0,0l0,0c0,0,0,0,0-0.1
		c0,0,0,0,0,0v0v0l0,0l0,0l0,0l0,0l0,0l0,0l0,0l0,0c0,0,0,0,0,0c0,0,0,0,0,0c0,0,0,0,0,0h0l0,0l0,0v0h0l0,0v0v0l0,0l0,0v0l0,0
		c0,0,0,0,0,0c0,0,0,0,0,0l0,0l0,0l0,0l0,0l0,0l0,0l0,0l0,0l0,0l0,0c0,0,0,0,0,0h0l0,0l0,0l0,0l0,0l0,0l0,0c0,0,0,0,0,0
		c0,0,0,0,0.1-0.1l0,0l0,0c0,0,0,0,0,0c0,0,0,0,0.1,0c0,0,0,0,0,0l0,0l0,0c0,0,0.1,0,0.1,0c0,0,0,0,0,0c0,0,0,0,0,0l0,0l0,0
		c0,0,0.1,0,0.1,0c0,0,0.1,0,0.1,0l0,0l0,0l0,0l0,0l0,0l0,0l0,0l0,0l0,0l0,0c0,0,0,0,0,0c0,0,0,0,0,0c0,0,0,0,0.1,0l0,0l0,0l0,0
		c0,0,0,0,0,0c0,0,0,0,0.1,0c0,0,0,0,0.1,0h0c0,0,0.1,0,0.1,0c0,0,0,0,0,0c0,0,0,0,0,0c0,0,0,0,0,0l0,0l0,0c0,0,0,0,0,0s0,0,0,0
		c0,0,0,0,0.1,0c0,0,0,0,0,0c0,0,0,0,0,0c0,0,0,0,0,0l0,0l0,0c0.1,0,0.1,0,0.2,0c0,0,0.1,0,0.1,0c0,0,0,0,0,0c0,0,0,0,0,0l0,0l0,0
		c0,0,0,0,0,0c0,0,0,0,0.1,0c0,0,0,0,0.1,0l0,0l0,0c0,0,0,0,0,0c0,0,0,0,0,0c0,0,0,0,0,0s0,0,0,0c0,0,0,0,0,0c0,0,0,0,0,0l0,0l0,0
		c0,0,0.1,0,0.1,0c0,0,0.1,0,0.1,0c0,0,0,0,0.1,0l0,0l0,0c0.1,0,0.1,0,0.2,0c0,0,0,0,0,0c0,0,0,0,0,0l0,0l0,0c0,0,0.1,0,0.1,0
		c0,0,0,0,0.1,0s0,0,0.1,0c0,0,0,0,0,0c0,0,0,0,0,0v0l0,0l0,0c0,0,0,0,0.1,0c0,0,0,0,0.1,0c0,0,0,0,0,0l0,0l0,0c0.1,0,0.1,0,0.2,0
		c0,0,0,0,0,0c0,0,0,0,0,0l0,0l0,0c0,0,0.1,0,0.1,0c0,0,0,0,0.1,0c0,0,0,0,0,0c0,0,0,0,0,0l0,0l0,0c0,0,0,0,0,0c0,0,0,0,0,0
		c0,0,0,0,0,0c0,0,0,0,0,0l0,0l0,0c0,0,0,0,0.1,0c0,0,0,0,0.1,0c0,0,0,0,0.1,0l0,0l0,0c0,0,0,0.1,0.1,0.1c0,0,0,0,0,0c0,0,0,0,0.1,0
		c0,0,0,0,0,0c0,0,0,0,0,0l0,0l0,0l0,0c0,0,0.1,0,0.1,0c0,0,0.1,0,0.1,0l0,0l0,0c0,0,0.1,0,0.1,0h0c0.1,0,0.1,0,0.1,0l0,0l0,0
		c0,0,0.1,0,0.1,0c0,0,0,0,0,0c0,0,0,0,0-0.1l0,0v0l0,0c0,0,0,0,0,0h0l0,0l0,0l0,0l0,0l0,0l0,0c0,0,0,0,0,0c0.1,0,0.1,0,0.2,0v0l0,0
		c0,0,0,0,0.1,0c0,0,0,0,0,0C22.1,29.8,22.1,29.8,22.2,29.9l-0.1-0.1L22.2,29.9L22.2,29.9l-0.1-0.1L22.2,29.9l-0.1-0.1L22.2,29.9
		C22.1,29.8,22.1,29.8,22.2,29.9l-0.1-0.1L22.2,29.9L22.2,29.9L22.2,29.9L22.2,29.9L22.2,29.9L22.2,29.9L22.2,29.9l-0.1-0.1l0,0
		c0,0,0,0,0,0C22.1,29.9,22.1,29.9,22.2,29.9L22.2,29.9C22.2,29.9,22.2,29.9,22.2,29.9L22.2,29.9L22.2,29.9L22.2,29.9L22.2,29.9
		L22.2,29.9L22.2,29.9L22.2,29.9L22.2,29.9L22.2,29.9L22.2,29.9C22.2,29.9,22.2,29.9,22.2,29.9C22.2,29.9,22.2,29.9,22.2,29.9
		L22.2,29.9L22.2,29.9L22.2,29.9L22.2,29.9L22.2,29.9L22.2,29.9L22.2,29.9L22.2,29.9L22.2,29.9L22.2,29.9L22.2,29.9L22.2,29.9
		C22.1,29.8,22.1,29.9,22.2,29.9L22.2,29.9C22.1,29.9,22.1,29.9,22.2,29.9C22.1,29.9,22.2,29.9,22.2,29.9
		C22.2,29.9,22.2,29.9,22.2,29.9L22.2,29.9z"/>
	<path fill="#D6FF5C" d="M26.3,29.8C26.3,29.8,26.2,29.8,26.3,29.8c-0.1,0-0.1,0-0.1,0c0,0,0,0-0.1,0c0,0,0,0,0,0c0,0-0.1,0-0.1,0
		c0,0,0,0,0,0c0,0-0.1,0-0.2,0c0,0,0,0-0.1,0c0,0,0,0-0.1,0c0,0-0.1,0-0.1,0c0,0-0.1,0-0.1,0c0,0,0,0,0,0c0,0,0,0,0,0c0,0,0,0,0,0
		c-0.1,0-0.2,0-0.3,0c0,0,0,0,0,0c0,0,0,0-0.1,0.1c0,0,0,0-0.1,0c0,0-0.1,0-0.1,0c-0.1,0-0.2,0-0.2,0c-0.1,0-0.1,0-0.2,0
		c0,0,0,0,0,0c0,0-0.1,0-0.1,0c0,0-0.1,0-0.1,0c0,0-0.1,0-0.1,0c-0.1,0-0.1,0-0.2,0c0,0,0,0,0,0c-0.1,0-0.1,0-0.2,0c0,0,0,0,0,0
		c0,0-0.1,0-0.1,0c0,0,0,0,0,0c0,0-0.1,0-0.1,0c0,0,0,0-0.1,0.1c0,0-0.1,0-0.1,0c0,0-0.1,0-0.1,0c0,0-0.1,0-0.1,0
		c-0.1,0-0.1,0-0.1,0c0,0-0.1,0-0.1,0c0,0,0,0,0-0.1c0,0-0.1,0-0.1,0c-0.1,0-0.1,0-0.2,0c0,0,0,0-0.1,0c0,0,0,0,0,0c0,0,0,0-0.1,0
		c0,0,0,0,0,0c0,0,0,0.1,0,0.1c0,0-0.1,0.1-0.1,0.1h4.2C26.4,30,26.4,29.9,26.3,29.8C26.4,29.9,26.3,29.8,26.3,29.8"/>
	<path fill="#D6FF5C" d="M26.3,29.8L26.3,29.8C26.3,29.8,26.3,29.8,26.3,29.8C26.3,29.8,26.3,29.8,26.3,29.8
		C26.3,29.8,26.2,29.8,26.3,29.8c-0.1-0.1-0.1-0.1-0.1,0L26.3,29.8L26.3,29.8L26.3,29.8L26.3,29.8L26.3,29.8L26.3,29.8L26.3,29.8
		L26.3,29.8L26.3,29.8c-0.1-0.1-0.1-0.1-0.1-0.1c0,0-0.1,0-0.1,0l0,0l0,0c0,0,0,0,0,0c0,0,0,0,0,0c0,0-0.1,0-0.1,0l0,0l0,0
		c0,0,0,0,0,0c0,0,0,0-0.1,0c0,0,0,0-0.1,0c0,0-0.1,0-0.1,0c0,0,0,0,0,0c0,0,0,0,0,0c0,0,0,0,0,0l0,0l0,0c0,0,0,0-0.1,0c0,0,0,0,0,0
		c0,0,0,0,0,0l0,0h0v0l0,0h0h0l0,0l0,0h0l0,0l0,0l0,0l0,0l0,0l0,0l0,0c0,0,0,0-0.1,0h0c0,0-0.1,0-0.1,0c0,0,0,0,0,0l0,0l0,0
		c0,0,0,0,0,0s0,0,0,0c0,0,0,0,0,0c0,0,0,0,0,0l0,0v0h0l0,0l0,0l0,0l0,0l0,0l0,0h0c0,0,0,0,0,0l0,0h0h0l0,0l0,0h0l0,0c0,0,0,0,0,0
		c0,0,0,0,0,0c0,0-0.1,0-0.1,0c0,0-0.1,0-0.1,0l0,0l0,0c0,0,0,0,0,0c0,0,0,0-0.1,0c0,0-0.1,0.1-0.1,0.1l0,0l0,0c0,0,0,0-0.1,0
		c0,0,0,0,0,0c0,0,0,0,0,0l0,0l0,0c0,0,0,0,0,0l0,0l0,0l0,0l0,0l0,0l0,0l0,0l0,0c0,0,0,0,0,0c0,0,0,0,0,0l0,0l0,0l0,0h0l0,0l0,0l0,0
		l0,0l0,0l0,0l0,0c0,0,0,0,0,0s0,0,0,0c0,0,0,0-0.1,0c0,0,0,0-0.1,0c0,0,0,0,0,0c0,0,0,0,0,0c-0.1,0-0.1,0-0.2,0l0,0l0,0
		c0,0,0,0,0,0c0,0,0,0,0,0c0,0-0.1,0-0.1,0c0,0,0,0,0,0s0,0,0,0h0l0,0l0,0l0,0l0,0l0,0l0,0h0c0,0,0,0,0,0l0,0h0h0l0,0v0h0l0,0
		c0,0,0,0,0,0c0,0,0,0,0,0c0,0,0,0,0,0c0,0,0,0,0,0l0,0h0c0,0,0,0,0,0c-0.1,0-0.1,0-0.2,0l0,0l0,0c0,0,0,0,0,0c0,0,0,0,0,0
		c0,0-0.1,0-0.1,0c0,0,0,0-0.1,0l0,0l0,0c0,0,0,0,0,0c0,0,0,0,0,0c0,0-0.1,0-0.1,0l0,0l0,0c0,0,0,0,0,0c0,0,0,0,0,0c0,0,0,0,0,0
		c0,0,0,0,0,0l0,0l0,0l0,0c0,0,0,0,0,0c0,0,0,0,0,0c0,0,0,0,0,0h0c0,0,0,0,0,0l0,0l0,0l0,0l0,0l0,0l0,0l0,0h0c0,0,0,0,0,0l0,0h0h0
		l0,0l0,0h0l0,0c0,0,0,0,0,0c0,0,0,0-0.1,0h0c0,0,0,0,0,0c0,0,0,0,0,0c0,0,0,0,0,0c0,0-0.1,0-0.1,0l0,0l0,0c-0.1,0-0.1,0-0.1,0
		c0,0,0,0,0,0c0,0-0.1,0-0.1,0l0,0l0,0c0,0,0,0,0,0c0,0,0,0,0,0h0c0,0,0,0-0.1,0c0,0,0,0,0,0l0,0v0c-0.1,0-0.1,0-0.2,0h0
		c0,0,0,0-0.1,0l0,0l0,0v0c0,0,0,0,0,0c0,0,0,0,0,0c0,0,0,0-0.1,0l0,0l0,0h0l0,0l0,0c0,0,0,0,0,0c0,0,0,0,0,0s0,0,0,0c0,0,0,0,0,0
		c0,0,0,0,0,0.1c0,0,0,0,0,0v0l0,0l0,0l0,0l0,0l0,0l0,0l0,0l0,0l0,0l0,0l0,0l0,0c0,0,0,0,0,0c0,0,0,0,0,0c0,0,0,0,0,0c0,0,0,0,0,0.1
		c0,0,0,0,0,0l0,0l0,0l0,0l0,0l0,0l0,0l0,0l0,0l0,0l0,0l0,0l0,0v0c0,0,0,0,0,0l0,0v0c0,0,0,0,0,0c0,0,0,0,0,0c0,0,0,0,0,0
		c0,0,0,0,0,0h4.2c0,0,0,0,0,0c0,0,0,0,0,0c0,0,0,0,0,0c0,0,0,0,0,0v0l0,0c0,0,0,0,0,0v0l0,0l0,0l0,0c0,0,0,0,0,0l0,0l0,0l0,0l0,0
		l0,0l0,0l0,0l0,0l0,0l0,0l0,0l0,0c0,0,0,0,0,0c0,0,0,0,0-0.1c0,0,0,0,0,0s0,0,0,0c0,0,0,0,0,0C26.4,29.8,26.4,29.8,26.3,29.8
		L26.3,29.8L26.3,29.8L26.3,29.8L26.3,29.8L26.3,29.8L26.3,29.8L26.3,29.8L26.3,29.8L26.3,29.8L26.3,29.8L26.3,29.8L26.3,29.8
		L26.3,29.8L26.3,29.8L26.3,29.8C26.4,29.8,26.4,29.8,26.3,29.8C26.4,29.8,26.4,29.8,26.3,29.8C26.3,29.8,26.3,29.8,26.3,29.8
		L26.3,29.8L26.3,29.8L26.3,29.8L26.3,29.8L26.3,29.8L26.3,29.8L26.3,29.8L26.3,29.8L26.3,29.8L26.3,29.8L26.3,29.8L26.3,29.8
		L26.3,29.8L26.3,29.8L26.3,29.8L26.3,29.8L26.3,29.8L26.3,29.8L26.3,29.8C26.3,29.9,26.3,29.9,26.3,29.8
		C26.3,29.9,26.4,29.9,26.3,29.8C26.4,29.9,26.4,29.9,26.3,29.8L26.3,29.8L26.3,29.8L26.3,29.8c0,0,0,0.1,0,0.1c0,0,0,0,0,0v0v0l0,0
		l0,0c0,0,0,0,0,0c0,0,0,0,0,0c0,0,0,0,0,0c0,0,0,0,0,0c0,0,0,0,0,0h-4.2c0,0,0,0,0,0s0,0,0,0c0,0,0,0,0,0c0,0,0,0,0,0c0,0,0,0,0,0
		c0,0,0,0,0,0c0,0,0,0,0,0c0,0,0,0,0-0.1l0,0l0,0l0,0v0c0,0,0,0,0,0l0,0v0v0l0,0l0,0v0l0,0c0,0,0,0,0,0c0,0,0,0,0,0c0,0,0,0,0,0
		c0,0,0,0,0-0.1c0,0,0,0,0,0v0l0,0l0,0l0,0l0,0l0,0l0,0l0,0l0,0l0,0l0,0l0,0l0,0c0,0,0,0,0,0c0,0,0,0,0,0h0c0,0,0,0,0.1,0
		c0,0,0,0,0,0l0,0l0,0h0l0,0l0,0h0l0,0l0,0h0h0l0,0v0h0l0,0c0,0,0,0,0,0c0,0,0,0,0,0c0,0,0,0,0.1,0l0,0v0c0.1,0,0.1,0,0.2,0
		c0,0,0,0,0,0l0,0l0,0l0,0l0,0l0,0l0,0l0,0l0,0l0,0l0,0c0,0,0,0,0,0l0,0v0l0,0c0,0,0,0.1,0,0.1c0,0,0,0,0,0c0,0,0.1,0,0.1,0l0,0l0,0
		c0.1,0,0.1,0,0.1,0h0c0,0,0.1,0,0.1,0l0,0l0,0c0,0,0.1,0,0.1,0c0,0,0.1,0,0.1,0l0,0l0,0l0,0c0,0,0,0,0,0c0,0,0,0,0,0c0,0,0,0,0,0
		c0,0,0,0,0,0c0,0,0.1,0,0.1-0.1l0,0l0,0c0,0,0,0,0.1,0s0,0,0.1,0c0,0,0,0,0.1,0l0,0l0,0c0,0,0,0,0,0c0,0,0,0,0,0c0,0,0,0,0,0
		c0,0,0,0,0,0l0,0l0,0c0,0,0,0,0,0c0,0,0,0,0,0c0,0,0,0,0.1,0c0,0,0.1,0,0.1,0l0,0l0,0c0,0,0,0,0,0c0,0,0,0,0,0c0.1,0,0.1,0,0.2,0
		l0,0l0,0c0,0,0,0,0,0c0,0,0,0,0.1,0c0,0,0,0,0.1,0l0,0l0,0v0c0,0,0,0,0,0c0,0,0,0,0,0c0,0,0,0,0,0c0,0,0,0,0.1,0c0,0,0.1,0,0.1,0
		l0,0l0,0c0,0,0,0,0,0s0,0,0,0c0.1,0,0.1,0,0.2,0l0,0l0,0c0,0,0,0,0.1,0c0,0,0.1,0,0.1,0c0,0,0.1,0,0.1,0l0,0l0,0c0,0,0,0,0,0
		c0,0,0,0,0.1,0c0,0,0,0,0.1,0c0,0,0,0,0,0c0,0,0,0,0,0l0,0l0,0c0,0,0,0,0.1,0c0,0,0,0,0.1,0c0,0,0,0,0,0l0,0l0,0c0,0,0,0,0,0
		c0,0,0,0,0,0c0,0,0.1,0,0.1,0c0.1,0,0.1,0,0.2,0l0,0l0,0c0,0,0,0,0,0c0,0,0,0,0,0c0,0,0,0,0,0c0,0,0,0,0,0s0,0,0,0c0,0,0,0,0,0l0,0
		l0,0c0,0,0,0,0,0c0,0,0,0,0,0c0,0,0,0,0,0c0,0,0.1,0,0.1,0h0c0,0,0.1,0,0.1,0c0,0,0,0,0,0c0,0,0,0,0,0v0l0,0l0,0c0,0,0,0,0.1,0
		c0,0,0,0,0,0c0,0,0,0,0,0l0,0l0,0l0,0l0,0l0,0l0,0l0,0l0,0l0,0l0,0c0,0,0,0,0,0l0,0l0,0c0,0,0.1,0,0.1,0c0.1,0,0.1,0,0.1,0l0,0l0,0
		c0,0,0,0,0,0c0,0,0,0,0,0c0,0,0.1,0,0.1,0l0,0l0,0c0,0,0,0,0,0c0,0,0,0,0.1,0c0,0,0,0,0,0l0,0l0,0c0,0,0,0,0.1,0.1
		C26.2,29.9,26.2,29.9,26.3,29.8L26.3,29.8L26.3,29.8L26.3,29.8L26.3,29.8L26.3,29.8L26.3,29.8L26.3,29.8L26.3,29.8L26.3,29.8
		L26.3,29.8L26.3,29.8L26.3,29.8L26.3,29.8L26.3,29.8L26.3,29.8L26.3,29.8L26.3,29.8L26.3,29.8L26.3,29.8
		C26.3,29.9,26.3,29.9,26.3,29.8C26.3,29.9,26.3,29.9,26.3,29.8L26.3,29.8z"/>
	<path fill="#F79433" d="M17.4,29C17.4,29,17.4,29,17.4,29C17.5,29,17.5,29,17.4,29C17.5,28.9,17.5,28.9,17.4,29
		C17.4,28.9,17.4,28.9,17.4,29C17.4,28.9,17.4,28.9,17.4,29C17.4,28.9,17.4,28.9,17.4,29C17.4,29,17.4,29,17.4,29
		C17.4,29,17.4,29,17.4,29"/>
</g>
</svg>
