<?xml version="1.0" encoding="utf-8"?>
<!-- Generator: Adobe Illustrator 18.0.0, SVG Export Plug-In . SVG Version: 6.00 Build 0)  -->
<!DOCTYPE svg PUBLIC "-//W3C//DTD SVG 1.1//EN" "http://www.w3.org/Graphics/SVG/1.1/DTD/svg11.dtd">
<svg version="1.1" id="Layer_1" xmlns="http://www.w3.org/2000/svg" xmlns:xlink="http://www.w3.org/1999/xlink" x="0px" y="0px"
	 viewBox="0 0 1024 768" enable-background="new 0 0 1024 768" xml:space="preserve">
<g>
	<path fill="#333333" d="M398.4,742.1l-0.2-13.7c-0.1-6.8,5.2-12.4,12-12.5l36.8-0.5v0l2.5,0l1.2,0l0.3,0l12.3-0.1l0.1,15.8h0
		l0.1,10.1L398.4,742.1z"/>
	<g>
		<path fill="#BF1F42" d="M565.9,535.3c-2.7,0-5.2-1.8-5.9-4.6L437.4,33c-0.3-1.2,2.2,0.1,2.6-1c0.5-1.3-1.1-4.8,0.1-5.6
			c0.5-0.3,2.9,3.5,3.6,3.3c1.3-0.3,0.7-4.2,1.8-3.8c1.8,0.7,3.2,2.2,3.6,4.2l122.6,497.6c0.8,3.2-1.2,6.5-4.4,7.3
			C566.8,535.2,566.3,535.3,565.9,535.3"/>
		<polygon fill="#BF1F42" points="197.2,428.2 202.7,429 198.5,433.5 202.1,433.5 199.6,437.9 202.6,439.3 825.6,284.8 821.9,282.1 
			826.8,278.5 823.4,276.5 825.6,272.3 		"/>
		<polygon fill="#BF1F42" points="242.6,182.3 235.6,180.1 240.4,188.5 235,187.7 788.9,523.1 785.7,517.1 788.9,515.5 786.3,511.7 
			788.9,508.9 241.2,177.4 		"/>
		<path fill="#BF1F42" d="M439.9,383c-0.7,0-1.5-0.1-2.2-0.4c-3.1-1.2-4.7-4.7-3.5-7.8c4.2-11,7.2-22.8,9.2-36
			c1.5-10,2.2-19.4,2.1-28.1c0-3.3,2.6-6.1,6-6.1c3.4,0,6.1,2.6,6.1,6c0.1,9.3-0.6,19.4-2.2,30.1c-2.1,14.1-5.4,26.7-9.9,38.5
			C444.7,381.5,442.4,383,439.9,383"/>
		<path fill="#BF1F42" d="M449.3,345.8c-0.3,0-0.6,0-0.9-0.1c-3.3-0.5-5.6-3.6-5.1-6.9c1.4-9.1,2-18.6,1.9-28c0-3.3,2.6-6.1,6-6.1
			c3.4,0,6.1,2.6,6.1,6c0.1,10.1-0.5,20.2-2,30C454.8,343.7,452.3,345.8,449.3,345.8"/>
		<path fill="#BF1F42" d="M361.3,399.7c-0.9,0-1.8-0.2-2.6-0.6c-3-1.5-4.2-5.1-2.8-8.1c9.1-18.6,14.4-36.7,18.3-62.5
			c3-19.6,3.3-39.6,1.1-59.4c-0.4-3.3,2-6.3,5.3-6.7c3.3-0.4,6.3,2,6.7,5.3c2.4,20.8,2,41.9-1.1,62.6c-4.1,27.2-9.7,46.3-19.3,66.1
			C365.7,398.5,363.5,399.7,361.3,399.7"/>
		<path fill="#BF1F42" d="M274.4,423.7c-1,0-2.1-0.3-3.1-0.8c-2.9-1.7-3.8-5.4-2.1-8.3c17.6-29.8,29.2-62.3,34.4-96.8
			c4.7-31.1,3.9-62.4-2.2-93c-0.7-3.3,1.5-6.5,4.7-7.1c3.3-0.7,6.5,1.5,7.1,4.7c6.4,32,7.2,64.7,2.3,97.2
			c-5.4,36-17.5,70-35.9,101.1C278.5,422.7,276.5,423.7,274.4,423.7"/>
		<path fill="#BF1F42" d="M380.1,335.4c-0.3,0-0.6,0-0.9-0.1c-3.3-0.5-5.6-3.6-5.1-6.9c3-19.6,3.3-39.6,1.1-59.4
			c-0.4-3.3,2-6.3,5.3-6.7c3.3-0.4,6.3,2,6.7,5.3c2.4,20.8,2,41.9-1.1,62.6C385.6,333.3,383,335.4,380.1,335.4"/>
		<path fill="#BF1F42" d="M274.4,423.7c-1,0-2.1-0.3-3.1-0.8c-2.9-1.7-3.8-5.4-2.1-8.3c17.6-29.8,29.2-62.3,34.4-96.8
			c4.7-31.1,3.9-62.4-2.2-93c-0.7-3.3,1.5-6.5,4.7-7.1c3.3-0.7,6.5,1.5,7.1,4.7c6.4,32,7.2,64.7,2.3,97.2
			c-5.4,36-17.5,70-35.9,101.1C278.5,422.7,276.5,423.7,274.4,423.7"/>
		<path fill="#BF1F42" d="M594.3,404.8c-3.3,0-6-2.4-6-5.8c-0.2-11.5,0.4-21,1.7-29.8c1.9-12.8,3.7-22.8,8.5-35.5
			c1.2-3.1,4.7-4.6,7.8-3.4c3.1,1.2,4.7,4.7,3.5,7.8c-4.4,11.5-6.1,21-7.9,33c-1.2,8.2-1.7,16.9-1.6,27.8
			C600.4,402.2,597.7,404.8,594.3,404.8L594.3,404.8z"/>
		<path fill="#BF1F42" d="M663.8,447.7c-3,0-5.6-2.3-6-5.4c-2.4-20.8-2-41.9,1.1-62.6c0.5-3.3,3.6-5.6,6.9-5.1
			c3.3,0.5,5.6,3.6,5.1,6.9c-3,19.6-3.3,39.6-1.1,59.4c0.4,3.3-2,6.3-5.3,6.7C664.2,447.7,664,447.7,663.8,447.7"/>
		<path fill="#BF1F42" d="M663.8,447.7c-3,0-5.6-2.3-6-5.4c-2.4-20.8-2-41.9,1.1-62.6c4.1-27.2,9.7-46.3,19.3-66.1
			c1.5-3,5.1-4.2,8.1-2.8c3,1.5,4.2,5.1,2.8,8.1c-9.1,18.6-14.4,36.7-18.3,62.5c-3,19.6-3.3,39.6-1.1,59.4c0.4,3.3-2,6.3-5.3,6.7
			C664.2,447.7,664,447.7,663.8,447.7"/>
		<path fill="#BF1F42" d="M564,289.8c-9.3,0-18.4-0.7-27.2-2c-13.2-2-23.3-4.1-35.6-8.8c-3.1-1.2-4.7-4.7-3.5-7.8
			c1.2-3.1,4.7-4.7,7.8-3.5c11.3,4.3,20.3,6,33,7.9c9,1.3,18.4,1.6,28,1.6h0.1c3.3,0,6,2.9,6,6.2c0,3.3-2.6,6.2-6,6.2
			C565.9,289.7,564.9,289.8,564,289.8"/>
		<path fill="#BF1F42" d="M582.7,221.3c-11.9,0-23.7-0.9-35.5-2.7c-27.2-4.1-46.3-9.7-66.1-19.3c-3-1.5-4.2-5.1-2.8-8.1
			c1.5-3,5.1-4.2,8.1-2.8c18.6,9.1,36.7,14.4,62.5,18.3c19.6,3,39.6,3.3,59.4,1.1c3.3-0.4,6.3,2,6.7,5.3c0.4,3.3-2,6.3-5.3,6.7
			C600.8,220.8,591.8,221.3,582.7,221.3"/>
		<path fill="#BF1F42" d="M599.9,151.2c-14,0-28.1-1.1-42.1-3.2c-39.1-5.9-69.2-16-97.7-32.9c-2.9-1.7-3.8-5.4-2.1-8.3
			c1.7-2.9,5.4-3.8,8.3-2.1c27.1,16.1,55.9,25.7,93.4,31.4c31.1,4.7,62.4,3.9,93-2.2c3.3-0.7,6.5,1.5,7.1,4.7
			c0.7,3.3-1.5,6.5-4.7,7.1C636.9,149.4,618.4,151.2,599.9,151.2"/>
		<path fill="#BF1F42" d="M582.7,221.3c-11.9,0-23.7-0.9-35.5-2.7c-3.3-0.5-5.6-3.6-5.1-6.9c0.5-3.3,3.6-5.6,6.9-5.1
			c19.6,3,39.6,3.3,59.4,1.1c3.3-0.4,6.3,2,6.7,5.3c0.4,3.3-2,6.3-5.3,6.7C600.8,220.8,591.8,221.3,582.7,221.3"/>
		<path fill="#BF1F42" d="M599.9,151.2c-14,0-28.1-1.1-42.1-3.2c-3.3-0.5-5.6-3.6-5.1-6.9c0.5-3.3,3.6-5.6,6.9-5.1
			c31.1,4.7,62.4,3.9,93-2.2c3.3-0.7,6.5,1.5,7.1,4.7c0.7,3.3-1.5,6.5-4.7,7.1C636.9,149.4,618.4,151.2,599.9,151.2"/>
		<path fill="#BF1F42" d="M507.3,434.3c-0.3,0-0.6,0-0.9-0.1c-9-1.4-18.4-2-28-1.8c-3.4,0.1-6.1-2.6-6.1-6c0-3.3,2.6-6.1,6-6.1
			c10.3-0.1,20.4,0.5,30,2c3.3,0.5,5.6,3.6,5.1,6.9C512.8,432.2,510.2,434.3,507.3,434.3"/>
		<path fill="#BF1F42" d="M541.6,442.8c-0.7,0-1.5-0.1-2.2-0.4c-11.4-4.4-20.4-6.3-33.1-8.2c-9.1-1.4-18.6-2-28-1.9
			c-3.4,0.1-6.1-2.6-6.1-6c0-3.3,2.6-6.1,6-6.1c10.1-0.1,20.2,0.5,30,2c13.1,2,23.2,4.1,35.6,8.8c3.1,1.2,4.7,4.7,3.5,7.8
			C546.3,441.3,544,442.8,541.6,442.8"/>
		<path fill="#BF1F42" d="M581.8,606.2c-1,0-2.1-0.3-3.1-0.8c-27.1-16.1-55.9-25.7-93.4-31.4c-31.1-4.7-62.4-3.9-93,2.2
			c-3.3,0.7-6.5-1.5-7.1-4.7c-0.7-3.3,1.5-6.5,4.7-7.1c32-6.4,64.7-7.2,97.2-2.3c39.1,5.9,69.2,16,97.7,32.9
			c2.9,1.7,3.8,5.4,2.1,8.3C585.8,605.1,583.8,606.2,581.8,606.2"/>
		<path fill="#BF1F42" d="M561.1,522.3c-0.9,0-1.8-0.2-2.6-0.6c-18.6-9.1-36.7-14.4-62.5-18.3c-3.3-0.5-5.6-3.6-5.1-6.9
			c0.5-3.3,3.6-5.6,6.9-5.1c27.2,4.1,46.3,9.7,66.1,19.3c3,1.5,4.2,5.1,2.8,8.1C565.5,521,563.4,522.3,561.1,522.3"/>
		<path fill="#BF1F42" d="M391.1,576.3c-2.8,0-5.3-2-5.9-4.9c-0.7-3.3,1.5-6.5,4.7-7.1c32-6.4,64.7-7.2,97.2-2.3
			c3.3,0.5,5.6,3.6,5.1,6.9c-0.5,3.3-3.6,5.6-6.9,5.1c-31.1-4.7-62.4-3.9-93,2.2C391.9,576.3,391.5,576.3,391.1,576.3"/>
		<path fill="#BF1F42" d="M604.2,342c-1.5,0-3-0.6-4.2-1.7c-7.3-7.1-13.9-14.7-19.8-22.6c-7.9-10.7-13.5-19.2-18.9-31.5
			c-1.4-3,0-6.6,3.1-8c3-1.4,6.6,0,8,3.1c5,11.3,10.3,19.2,17.6,29.2c5.5,7.4,11.7,14.5,18.5,21.1c2.4,2.3,2.4,6.2,0.1,8.5
			C607.3,341.4,605.7,342,604.2,342"/>
		<path fill="#BF1F42" d="M604.2,342c-1.5,0-3-0.6-4.2-1.7c-7.3-7.1-13.9-14.7-19.8-22.6c-2-2.7-1.4-6.5,1.3-8.5
			c2.7-2,6.5-1.4,8.5,1.3c5.5,7.4,11.7,14.5,18.5,21.1c2.4,2.3,2.4,6.2,0.1,8.5C607.3,341.4,605.7,342,604.2,342"/>
		<path fill="#BF1F42" d="M683.7,322.4c-1.3,0-2.6-0.4-3.8-1.3c-16.4-13.1-31-28.2-43.5-45c-16.3-22.1-25.9-39.6-33-60.4
			c-1.1-3.2,0.6-6.6,3.8-7.7c3.2-1.1,6.6,0.6,7.7,3.8c6.7,19.5,15.8,36.1,31.3,57.1c11.8,16,25.7,30.4,41.3,42.8
			c2.6,2.1,3,5.9,1,8.5C687.2,321.7,685.4,322.4,683.7,322.4"/>
		<path fill="#BF1F42" d="M767.6,301.8"/>
		<path fill="#BF1F42" d="M764.2,300.8c-27.2-18.1-50.9-40.6-70.4-67.1c-23.5-31.8-37.6-60.3-45.8-92.4c-0.8-3.2,1.1-6.5,4.4-7.4
			c3.2-0.8,6.5,1.1,7.4,4.4c7.8,30.6,21.4,57.8,43.8,88.2c18.7,25.3,41.4,46.9,67.4,64.2"/>
		<path fill="#BF1F42" d="M734.9,487.1c-8-31.6-10.3-64.3-6.9-97c4-39.3,12.7-69.9,28.3-99.2c1.6-2.9,5.2-4.1,8.2-2.5
			c3,1.6,4.1,5.2,2.5,8.2c-14.8,27.9-23.1,57.1-26.9,94.8c-3.2,31.3-1,62.5,6.6,92.8"/>
		<path fill="#BF1F42" d="M683.7,322.4c-1.3,0-2.6-0.4-3.8-1.3c-16.4-13.1-31-28.2-43.5-45c-2-2.7-1.4-6.5,1.3-8.5
			c2.7-2,6.5-1.4,8.5,1.3c11.8,16,25.7,30.4,41.3,42.8c2.6,2.1,3,5.9,1,8.5C687.2,321.7,685.4,322.4,683.7,322.4"/>
		<path fill="#BF1F42" d="M451.7,316.7c-2.3,0-4.5-1.3-5.5-3.6c-1.4-3.1,0-6.6,3.1-8c10.7-4.8,17.8-9.4,28.7-17.5
			c7.4-5.5,14.5-11.7,21.1-18.5c2.3-2.4,6.2-2.4,8.5-0.1c2.4,2.3,2.4,6.2,0.1,8.5c-7.1,7.3-14.7,13.9-22.6,19.8
			c-11.4,8.4-19.3,13.6-31,18.8C453.3,316.6,452.5,316.7,451.7,316.7"/>
		<path fill="#BF1F42" d="M451.7,316.7c-2.3,0-4.5-1.3-5.5-3.6c-1.4-3.1,0-6.6,3.1-8c10.7-4.8,17.8-9.4,28.7-17.5
			c7.4-5.5,14.5-11.7,21.1-18.5c2.3-2.4,6.2-2.4,8.5-0.1c2.4,2.3,2.4,6.2,0.1,8.5c-7.1,7.3-14.7,13.9-22.6,19.8
			c-11.4,8.4-19.3,13.6-31,18.8C453.3,316.6,452.5,316.7,451.7,316.7"/>
		<path fill="#BF1F42" d="M381.2,274.4c-2.5,0-4.9-1.6-5.7-4.1c-1.1-3.2,0.6-6.6,3.8-7.7c19.5-6.7,36.1-15.8,57.1-31.3
			c16-11.8,30.4-25.7,42.8-41.3c2.1-2.6,5.9-3,8.5-1c2.6,2.1,3,5.9,1,8.5c-13.1,16.4-28.2,31-45,43.5c-22.1,16.3-39.6,25.9-60.4,33
			C382.5,274.3,381.8,274.4,381.2,274.4"/>
		<path fill="#BF1F42" d="M439.9,242.3c-1.9,0-3.7-0.8-4.9-2.5c-2-2.7-1.4-6.5,1.3-8.4c16-11.8,30.4-25.7,42.8-41.3
			c2.1-2.6,5.9-3,8.5-1c2.6,2.1,3,5.9,1,8.5c-13.1,16.4-28.2,31-45,43.5C442.5,241.9,441.2,242.3,439.9,242.3"/>
		<path fill="#BF1F42" d="M397.6,184.9c-1.9,0-3.7-0.8-4.9-2.5c-2-2.7-1.4-6.5,1.3-8.5c25.3-18.7,46.9-41.4,64.2-67.4
			c1.8-2.8,5.6-3.5,8.4-1.7c2.8,1.8,3.5,5.6,1.7,8.4c-18.1,27.2-40.6,50.8-67.1,70.4C400.1,184.5,398.8,184.9,397.6,184.9"/>
		<path fill="#BF1F42" d="M307.3,229.7c-2.7,0-5.1-1.8-5.8-4.5c-0.8-3.2,1.1-6.5,4.4-7.4c30.6-7.8,57.8-21.4,88.2-43.8
			c25.3-18.7,46.9-41.4,64.2-67.4c1.8-2.8,5.6-3.5,8.4-1.7c2.8,1.8,3.5,5.6,1.7,8.4c-18.1,27.2-40.6,50.8-67.1,70.4
			c-31.8,23.5-60.3,37.6-92.4,45.8C308.3,229.6,307.8,229.7,307.3,229.7"/>
		<path fill="#BF1F42" d="M541.6,442.8c-1.5,0-3-0.6-4.2-1.7c-2.4-2.3-2.4-6.2-0.1-8.5c7.1-7.3,14.7-13.9,22.6-19.8
			c9.9-7.3,19.1-13.4,32-19.1c3.1-1.4,6.6,0,8,3.1c1.4,3,0,6.6-3.1,8c-10.3,4.6-18.6,9.5-29.7,17.7c-7.4,5.5-14.5,11.7-21.1,18.5
			C544.7,442.1,543.1,442.8,541.6,442.8"/>
		<path fill="#BF1F42" d="M561.1,522.3c-1.3,0-2.6-0.4-3.8-1.3c-2.6-2.1-3-5.9-1-8.5c13.1-16.4,28.2-31,45-43.5
			c22.1-16.3,39.6-25.9,60.4-33c3.2-1.1,6.6,0.6,7.7,3.8c1.1,3.2-0.6,6.6-3.8,7.7c-19.5,6.7-36.1,15.8-57.1,31.3
			c-16,11.8-30.4,25.7-42.8,41.3C564.7,521.5,562.9,522.3,561.1,522.3"/>
		<path fill="#BF1F42" d="M581.8,606.2c-1.1,0-2.3-0.3-3.3-1c-2.8-1.8-3.5-5.6-1.7-8.4c18.1-27.2,40.6-50.8,67.1-70.4
			c31.8-23.5,60.3-37.6,92.4-45.8c3.2-0.8,6.5,1.1,7.4,4.3c0.8,3.2-1.1,6.5-4.4,7.4c-30.6,7.8-57.8,21.4-88.2,43.8
			c-25.3,18.7-46.9,41.4-64.2,67.3C585.6,605.2,583.7,606.2,581.8,606.2"/>
		<path fill="#BF1F42" d="M561.1,522.3c-1.3,0-2.6-0.4-3.8-1.3c-2.6-2.1-3-5.9-1-8.5c13.1-16.4,28.2-31,45-43.5
			c2.7-2,6.5-1.4,8.5,1.3c2,2.7,1.4,6.5-1.3,8.5c-16,11.8-30.4,25.7-42.8,41.3C564.7,521.5,562.9,522.3,561.1,522.3"/>
		<polygon fill="#BF1F42" points="703.7,43.6 454.4,455.4 464.7,461.7 717.8,43.6 711.8,46.3 710.3,41 704.7,45.5 		"/>
		<path fill="#F0BA29" d="M396.9,406.8l-36,25.9c-7.2,5.2-17.3,3.5-22.5-3.7l-27.7-38.5c-5.2-7.2-3.5-17.3,3.7-22.5l36-25.9
			c7.2-5.2,17.3-3.5,22.5,3.7l27.7,38.5C405.8,391.5,404.1,401.6,396.9,406.8"/>
		<path fill="#F0BA29" d="M396.9,406.8l-36,25.9c-7.2,5.2-17.3,3.5-22.5-3.7l-27.7-38.5c-5.2-7.2-3.5-17.3,3.7-22.5l36-25.9
			c7.2-5.2,17.3-3.5,22.5,3.7l27.7,38.5C405.8,391.5,404.1,401.6,396.9,406.8"/>
		<path fill="#F79433" d="M360.2,336.5c-2,0-4.1,0.6-5.8,1.8l-45,32.4c-4.7,3.4-4.8,10.3-1.4,15l0.8,1.1c-0.7-1.8-1-3.7-1-5.6
			c0-5,2.3-10,6.7-13.1l36-25.9c2.8-2,6.1-3,9.4-3c4.3,0,8.5,1.7,11.6,4.9c0-0.1,0-0.2,0-0.2l-1.8-2.5
			C367.5,338.2,363.8,336.5,360.2,336.5 M380.9,356.9C380.9,356.9,380.9,356.9,380.9,356.9l2.3,3.2c0,0,0,0,0,0L380.9,356.9z"/>
		<path fill="#BA120D" d="M371.5,343.7c0,0.1,0,0.2,0,0.2c0.5,0.6,1,1.2,1.5,1.8l8,11.1c0,0,0,0,0,0L371.5,343.7z"/>
		<path fill="#E86B08" d="M359.9,336.5c-3.3,0-7,2.8-9.8,4.9L310.2,370c-4.4,3.1-4.6,4.3-4.6,9.3c0,2.8,2.9,6.8,3.6,8.6l11.6,16.5
			c3.3-4.5,9.1-14.4,8.7-26.6c0,0,2.2,0.9,6.8,0.9c8.1,0,23.5-2.8,46.9-18.5l-2.3-3.2l-8-11.1c-0.5-0.6-1-0.8-1.3-1.5
			C368.9,338.9,364.2,336.5,359.9,336.5"/>
		<path fill="#3882C2" d="M655.4,588.1l2.7-7.8c2.4-6.7-1.2-14.2-7.9-16.6l-132.6-47c-6.7-2.4-14.2,1.2-16.6,7.9l-2.7,7.8
			c-2.4,6.7,1.2,14.2,7.9,16.6L638.8,596C645.6,598.4,653,594.8,655.4,588.1"/>
		<path fill="#001254" d="M513.3,516c-5.4,0-10.4,3.3-12.3,8.7l-2.7,7.8c-0.5,1.4-0.7,2.9-0.7,4.3c0,5.4,3.3,10.4,8.7,12.3
			L638.8,596c1.4,0.5,2.9,0.7,4.3,0.7c5.4,0,10.4-3.3,12.3-8.7l2.7-7.8c0.5-1.4,0.7-2.9,0.7-4.3c0-5.4-3.3-10.4-8.7-12.3l-22.8-8.1
			l-12.8-4.5l-46.3-16.4l-7.9-2.8l-42.8-15.2C516.2,516.3,514.8,516,513.3,516"/>
		<path fill="#333333" d="M678.3,541l-12.9-4.5c-6.4-2.2-13.5,1.2-15.7,7.5l-12.2,34.9l0,0l-0.7,2.2l-0.4,1l-0.1,0.3l-3.9,11.6
			l15,5.1l0,0l9.4,3.3L678.3,541z"/>
		<path fill="#3882C2" d="M450.3,735.4l-8.2,0.1c-7.2,0.1-13.1-5.7-13.2-12.8l-2.2-140.7c-0.1-7.2,5.7-13.1,12.8-13.2l8.2-0.1
			c7.2-0.1,13.1,5.7,13.2,12.8l2.2,140.7C463.2,729.4,457.5,735.3,450.3,735.4"/>
		<path fill="#001254" d="M448,568.7c-0.1,0-0.1,0-0.2,0l-8.2,0.1c-7.1,0.1-12.8,6-12.8,13c0,0.1,0,0.1,0,0.2l2.2,140.7
			c0.1,7.1,5.9,12.8,13,12.8c0.1,0,0.1,0,0.2,0l8.2-0.1c7.1-0.1,12.8-6,12.8-13c0-0.1,0-0.1,0-0.2L461,581.5
			C460.9,574.5,455,568.7,448,568.7"/>
		<path fill="#3882C2" d="M487.8,530.2L449,558c-7.2,5.2-17.3,3.5-22.5-3.7l-63-87.7c-5.2-7.2-3.5-17.3,3.7-22.5l38.8-27.9
			c7.2-5.2,17.3-3.5,22.5,3.7l63,87.7C496.6,514.9,495,525,487.8,530.2"/>
		<path fill="#001254" d="M415.3,413.3c-3.3,0-6.5,1-9.4,3l-38.8,27.9c-4.4,3.1-6.7,8.1-6.7,13.1c0,3.3,1,6.6,3,9.4l39.2,54.5
			c4.8-26.7,17.5-43.2,28.1-52.7c8.7-7.8,17.3-12.1,22.4-14.2L428.5,420C425.3,415.6,420.4,413.3,415.3,413.3 M460.5,464.6
			c-5.5,1.7-43.7,15.7-47.4,71.1l13.4,18.7c3.1,4.4,8.1,6.7,13.1,6.7c3.3,0,6.5-1,9.4-3l38.8-27.9c4.4-3.1,6.7-8.1,6.7-13.1
			c0-3.3-1-6.6-3-9.4L460.5,464.6z"/>
		<polygon fill="#FFFFFF" points="373.8,439.7 400,420.8 428.4,488 		"/>
		<path fill="#333333" d="M439.4,499.1c0.9,1.3,0.6,3.1-0.7,4c-1.3,0.9-3.1,0.6-4-0.7c-0.9-1.3-0.6-3.1,0.7-4
			C436.6,497.6,438.4,497.9,439.4,499.1"/>
		<path fill="#333333" d="M447,509.9c0.9,1.3,0.6,3.1-0.7,4c-1.3,0.9-3.1,0.6-4-0.7c-0.9-1.3-0.6-3.1,0.7-4
			C444.3,508.3,446.1,508.6,447,509.9"/>
		<path fill="#333333" d="M454.7,520.6c0.9,1.3,0.6,3.1-0.7,4c-1.3,0.9-3.1,0.6-4-0.7c-0.9-1.3-0.6-3.1,0.7-4
			C452,519,453.8,519.3,454.7,520.6"/>
		<path fill="#BF1F42" d="M397.9,442l-3.4,2.5c-1.1,0.8-2.8,0.6-3.8-0.5l-6-6.5c-1.7-1.8-1.8-4.3-0.3-5.4l4.9-3.5
			c1.6-1.1,3.9-0.1,5.1,2l4.2,7.7C399.3,439.5,399,441.2,397.9,442"/>
		<path fill="#BF1F42" d="M428.4,488l-5.6-3.9c-1.6,1.1-5.9-0.9-7.1-2.8l-21.3-32.8c-0.6-0.9-0.2-2.3,0.8-3l3.3-2.4
			c1-0.8,2.4-0.7,3.1,0.2l24.3,30.6C427.4,475.6,429.9,486.8,428.4,488"/>
		<polygon fill="#666666" points="391.3,474.5 397.5,468.4 397.3,475.4 428.2,488.1 378.9,436 367.9,443.9 		"/>
		<polygon fill="#666666" points="427.5,448.4 419.7,452.5 426.4,454.5 428.7,487.8 395,424.4 406,416.6 		"/>
		<path fill="#3882C2" d="M341.6,494.8l-89.8-14.7c-6.7-1.1-11.2-7.5-10.1-14.1l1.3-7.7c1.1-6.7,7.5-11.2,14.1-10.2l89.8,14.7
			c6.7,1.1,11.2,7.5,10.2,14.1l-1.3,7.7C354.6,491.4,348.3,495.9,341.6,494.8"/>
		<path fill="#001254" d="M255.1,448c-5.9,0-11.2,4.3-12.1,10.3l-1.3,7.7c-0.1,0.7-0.2,1.4-0.2,2c0,5.9,4.3,11.1,10.3,12.1
			l89.8,14.7c0.7,0.1,1.3,0.2,2,0.2c5.9,0,11.2-4.3,12.1-10.3l1.3-7.7c0.1-0.7,0.2-1.4,0.2-2c0-5.9-4.3-11.1-10.3-12.1l-89.8-14.7
			C256.4,448.1,255.7,448,255.1,448"/>
		<path fill="#F0BA29" d="M259.5,481.3l-16.8-2.7c-5.7-0.9-9.6-6.4-8.7-12.1l1.8-11.1c0.9-5.7,6.4-9.6,12.1-8.7l16.7,2.7
			L259.5,481.3z"/>
		<path fill="#F0BA29" d="M259.5,481.3l-16.8-2.7c-5.7-0.9-9.6-6.4-8.7-12.1l1.8-11.1c0.9-5.7,6.4-9.6,12.1-8.7l16.7,2.7
			L259.5,481.3z"/>
		<path fill="#3882C2" d="M430.2,403l14.7-89.8c1.1-6.7,7.5-11.2,14.1-10.1l7.7,1.3c6.7,1.1,11.2,7.5,10.1,14.1l-14.7,89.8
			c-1.1,6.7-7.5,11.2-14.1,10.2l-7.7-1.3C433.7,416,429.1,409.7,430.2,403"/>
		<path fill="#001254" d="M457.1,302.9c-5.9,0-11.2,4.3-12.1,10.3L430.2,403c-0.1,0.7-0.2,1.4-0.2,2c0,5.9,4.3,11.1,10.3,12.1
			l7.7,1.3c0.7,0.1,1.3,0.2,2,0.2c5.9,0,11.2-4.3,12.1-10.3l14.7-89.8c0.1-0.7,0.2-1.4,0.2-2c0-5.9-4.3-11.1-10.3-12.1l-7.7-1.3
			C458.4,303,457.7,302.9,457.1,302.9"/>
		<path fill="#F0BA29" d="M443.7,320.9l2.7-16.7c0.9-5.7,6.4-9.6,12.1-8.7l11.1,1.8c5.7,0.9,9.6,6.4,8.7,12.1l-2.7,16.7L443.7,320.9
			z"/>
		<path fill="#F0BA29" d="M443.7,320.9l2.7-16.7c0.9-5.7,6.4-9.6,12.1-8.7l11.1,1.8c5.7,0.9,9.6,6.4,8.7,12.1l-2.7,16.7L443.7,320.9
			z"/>
		<path fill="#BF1F42" d="M507.3,434.3c-0.3,0-0.6,0-0.9-0.1c-9-1.4-18.4-2-28-1.8c-3.4,0.1-6.1-2.6-6.1-6c0-3.3,2.6-6.1,6-6.1
			c10.3-0.1,20.4,0.5,30,2c3.3,0.5,5.6,3.6,5.1,6.9C512.8,432.2,510.2,434.3,507.3,434.3"/>
		<path fill="#BF1F42" d="M507.3,434.3c-0.3,0-0.6,0-0.9-0.1c-9.1-1.4-18.6-2-28-1.9c-3.4,0.1-6.1-2.6-6.1-6c0-3.3,2.6-6.1,6-6.1
			c10.1-0.1,20.2,0.5,30,2c3.3,0.5,5.6,3.6,5.1,6.9C512.8,432.1,510.2,434.3,507.3,434.3"/>
		<path fill="#BF1F42" d="M496.8,503.5c-1,0-2-0.2-2.9-0.8c-1.9-1-3.7-2-5.4-3c-16.4-9.2-28.3-15.9-58-13.7
			c-3.3,0.2-6.2-2.3-6.5-5.6c-0.2-3.3,2.3-6.2,5.6-6.5c33.4-2.5,47.3,5.3,64.9,15.2c1.7,1,3.5,2,5.3,3c2.9,1.6,4,5.3,2.4,8.2
			C501,502.3,499,503.5,496.8,503.5"/>
		<path fill="#BF1F42" d="M581.8,606.2c-1,0-2.1-0.3-3.1-0.8c-27.1-16.1-55.9-25.7-93.4-31.4c-31.1-4.7-62.4-3.9-93,2.2
			c-3.3,0.7-6.5-1.5-7.1-4.7c-0.7-3.3,1.5-6.5,4.7-7.1c32-6.4,64.7-7.2,97.2-2.3c39.1,5.9,69.2,16,97.7,32.9
			c2.9,1.7,3.8,5.4,2.1,8.3C585.8,605.1,583.8,606.2,581.8,606.2"/>
		<path fill="#BF1F42" d="M391.1,576.3c-2.8,0-5.3-2-5.9-4.9c-0.7-3.3,1.5-6.5,4.7-7.1c32-6.4,64.7-7.2,97.2-2.3
			c3.3,0.5,5.6,3.6,5.1,6.9c-0.5,3.3-3.6,5.6-6.9,5.1c-31.1-4.7-62.4-3.9-93,2.2C391.9,576.3,391.5,576.3,391.1,576.3"/>
		<path fill="#BF1F42" d="M478.2,432.4c-2.3,0-4.5-1.3-5.5-3.6c-1.8-4-3.2-7.8-4.5-11.5c-2.5-7-4.9-13.6-9.7-20
			c-5.6-7.5-11.3-15.3-30.6-13.6c-3.3,0.3-6.3-2.1-6.6-5.5c-0.3-3.3,2.1-6.3,5.5-6.6c26-2.4,35.3,10.1,41.4,18.4
			c5.8,7.8,8.6,15.6,11.3,23.1c1.3,3.5,2.6,7.1,4.2,10.7c1.4,3,0,6.6-3.1,8C479.9,432.2,479.1,432.4,478.2,432.4"/>
		<path fill="#BF1F42" d="M391.1,576.3c-2.7,0-5.1-1.8-5.8-4.5c-8.3-32.5-16.8-47.6-38.2-76.5c-0.7-0.9-1.1-2.1-1.2-3.2
			c0-0.7-1.4-18.9-17.8-29.5c-0.2-0.1-0.3-0.2-0.5-0.3c-0.4-0.3-39.8-31.2-57-38.8c-3.1-1.3-4.4-4.9-3.1-8c1.3-3.1,4.9-4.4,8-3.1
			c18.1,8,55.8,37.4,59.4,40.2c18.2,11.8,22.1,30.8,22.9,36.9c21.3,29,30.6,45.7,39.2,79.3c0.8,3.2-1.1,6.5-4.4,7.4
			C392.1,576.2,391.6,576.3,391.1,576.3"/>
		<path fill="#BF1F42" d="M481.5,298.6c-1.9,0-3.7-0.8-4.9-2.5c-2-2.7-1.4-6.5,1.3-8.5c7.4-5.5,14.5-11.7,21.1-18.5
			c2.3-2.4,6.2-2.4,8.5-0.1c2.4,2.3,2.4,6.2,0.1,8.5c-7.1,7.3-14.7,13.9-22.6,19.8C484,298.2,482.8,298.6,481.5,298.6"/>
		<path fill="#BF1F42" d="M595.7,588.2c-2.9,0-5.5-2.1-6-5.1c-1.8-10.9,1.4-21.8,8.6-29.3c6.6-6.8,15.9-10,25.5-8.8
			c3.3,0.4,5.6,3.5,5.2,6.8c-0.4,3.3-3.5,5.6-6.8,5.2c-5.9-0.8-11.3,1.1-15.3,5.2c-4.5,4.7-6.5,11.8-5.4,18.9c0.5,3.3-1.7,6.4-5,7
			C596.4,588.1,596,588.2,595.7,588.2"/>
		<path fill="#BF1F42" d="M585.5,644.4l-13.9-59.1c-7.7-7.9-20.9-33.1-12.1-58.1l11.4,4c-7.5,21.4,6.1,42.9,9.2,45.7l2.2,1.1
			l14.9,63.6l-3.4-3.5l-3,7.9l-3.6-5L585.5,644.4z"/>
		<path fill="#BF1F42" d="M347.9,658.8l-10.7-5.7l63.8-119c2.5-34.5,17.5-54.6,29.7-65.5c10.3-9.2,20.3-13.4,24.8-15.1l2.4-4
			l10.3,6.3l-4.9,8l-2.4,0.6c-1.8,0.5-44.3,12.9-48,71.8l-0.1,1.3L347.9,658.8z"/>
		<path fill="#BF1F42" d="M317.5,670.3c-15.3-0.5-26.1-17.5-25.4-39.3c0.7-21.8,13.1-38.1,28.3-37.6l10.9,0.4l-0.5,15.3l-1.5,0
			c0.4,2.2,0.7,0,0.9,2.6c-2-3-4.5-2.8-7.5-2.6c-0.9,0.1-1.8,0.1-2.7,0.1c-8.3-0.3-15.4,9.3-15.8,21.6c-0.4,12.3,6.1,22.4,14.4,22.7
			c4,0.1,7.4,4.1,10.2,0.4c-0.2,1.4-0.3,1-0.5,0.7c-0.1-0.3-0.3-0.7-0.5,0.4l1.5,0l-0.5,15.3L317.5,670.3z"/>
		<path fill="#F79433" d="M329.8,612.1c0,0,8.9,2.5,8.3,20.7c0,0-0.3,15.7-9.3,19.8l7.1,0.2l11.5-13.7l1.6-14.1l-4.2-8.9l-10.9-7.9
			L329.8,612.1z"/>
		<path fill="#F0570A" d="M332.1,610l-2.3,2.1c0,0,8.4,2.4,8.4,19.1c0,0.5,0,1.1,0,1.7v0c0,0.1-0.3,15.7-9.3,19.8l4.9,0.2
			c6-2.8,10.6-10.8,10.9-20.5c0-0.3,0-0.7,0-1C344.7,620.5,339.3,611.5,332.1,610"/>
		<path fill="#BF1F42" d="M314.5,631.3c0.4-12.2,7.5-21.8,15.8-21.5c8.4,0.3,14.8,10.3,14.4,22.5c-0.4,12.2-7.5,21.8-15.8,21.5
			C320.5,653.5,314.1,643.5,314.5,631.3 M302.7,630.9c-0.7,21.6,10.8,39.5,25.6,40c14.8,0.5,27.4-16.6,28.1-38.2s-10.8-39.5-25.6-40
			C316,592.2,303.4,609.3,302.7,630.9"/>
		<path fill="#8F0512" d="M330.2,592.7c-2,0-3.9,0.3-5.7,0.9c-11.9,3.7-21.2,18.9-21.8,37.4c0,0.6,0,1.2,0,1.8
			c0,20.8,11.2,37.7,25.6,38.2c0.2,0,0.4,0,0.6,0c14.6,0,26.8-16.9,27.5-38.2c0-0.6,0-1.2,0-1.8c0-4-0.4-7.8-1.2-11.5
			c-3.2-15.2-12.8-26.4-24.5-26.7C330.6,592.7,330.4,592.7,330.2,592.7 M314.5,632.3c0-0.3,0-0.7,0-1c0.4-12,7.3-21.5,15.5-21.5
			c0.1,0,0.2,0,0.3,0c8.1,0.3,14.4,9.8,14.4,21.5c0,0.3,0,0.7,0,1c-0.4,12-7.3,21.5-15.5,21.5c-0.1,0-0.2,0-0.3,0h0c0,0,0,0-0.1,0
			C320.7,653.5,314.4,644,314.5,632.3"/>
		<path fill="#F79433" d="M316,631.4c-0.4,10.9,5.5,20,13,20.3c7.5,0.2,13.9-8.5,14.3-19.4c0.4-10.9-5.5-20-13-20.3
			C322.7,611.7,316.3,620.4,316,631.4 M313,631.3c0.4-13.3,8.2-23.9,17.4-23.7c9.2,0.3,16.3,11.4,15.8,24.7
			c-0.4,13.3-8.2,23.9-17.4,23.7C319.6,655.7,312.5,644.6,313,631.3"/>
	</g>
</g>
</svg>
