<?xml version="1.0" encoding="utf-8"?>
<!-- Generator: Adobe Illustrator 18.0.0, SVG Export Plug-In . SVG Version: 6.00 Build 0)  -->
<!DOCTYPE svg PUBLIC "-//W3C//DTD SVG 1.1//EN" "http://www.w3.org/Graphics/SVG/1.1/DTD/svg11.dtd">
<svg version="1.1" id="Layer_1" xmlns="http://www.w3.org/2000/svg" xmlns:xlink="http://www.w3.org/1999/xlink" x="0px" y="0px"
	 viewBox="0 0 1024 768" enable-background="new 0 0 1024 768" xml:space="preserve">
<text transform="matrix(1 0 0 1 902.3965 745.1836)" fill="#646464" font-family="'ProximaNova-Bold'" font-size="14">3</text>
<g>
	<defs>
		<rect id="SVGID_1_" width="1024" height="768"/>
	</defs>
	<clipPath id="SVGID_2_">
		<use xlink:href="#SVGID_1_"  overflow="visible"/>
	</clipPath>
	<path clip-path="url(#SVGID_2_)" fill="#323232" d="M878.7,66.8c0.2-1.3,0.5-2.2,0.9-2.6c0.3-0.4,1-0.6,1.9-0.6
		c1,0,1.6,0.2,1.8,0.6c0.2,0.4,0.2,1.2,0,2.5c-0.3,1.6-0.6,2.5-0.9,3c-0.4,0.4-1,0.6-2,0.6c-1,0-1.5-0.2-1.7-0.7
		C878.4,69.3,878.4,68.3,878.7,66.8 M879.2,72.4c1.6,0,2.8-0.6,3.5-1.8l0,0l-0.4,1.7h2.4l2.6-14.9h-2.5l-1,6l0,0
		c-0.2-1.1-1.2-1.6-2.9-1.6c-1.5,0-2.5,0.4-3.2,1.1c-0.7,0.7-1.2,2-1.5,3.9c-0.4,2.3-0.4,3.8,0,4.6C876.6,72,877.6,72.4,879.2,72.4"
		/>
	<polygon clip-path="url(#SVGID_2_)" fill="#323232" points="875.7,57.3 873.3,57.3 870.6,72.3 873.1,72.3 	"/>
	<path clip-path="url(#SVGID_2_)" fill="#323232" d="M858.2,60.3c1,0,1.8-0.8,1.8-1.8c0-1-0.8-1.8-1.8-1.8c-1,0-1.8,0.8-1.8,1.8
		C856.4,59.5,857.2,60.3,858.2,60.3"/>
	<path clip-path="url(#SVGID_2_)" fill="#323232" d="M863.4,64c0.3-0.3,1-0.4,1.9-0.4c1,0,1.6,0.1,1.8,0.4c0.2,0.2,0.3,0.8,0.1,1.6
		l-0.1,0.4h-4.5C862.8,64.9,863.1,64.3,863.4,64 M860.1,71.3c0.5,0.7,1.8,1.1,3.9,1.1c3,0,4.7-1,5.1-3.1l0.1-0.4h-2.5
		c-0.1,0.7-0.3,1.1-0.6,1.3c-0.3,0.2-0.9,0.3-1.8,0.3c-0.9,0-1.5-0.2-1.8-0.5c-0.3-0.3-0.3-1-0.1-2.1c0-0.1,0-0.2,0.1-0.5h7l0.1-0.8
		c0.3-2,0.3-3.3-0.2-4c-0.5-0.7-1.7-1-3.5-1c-1.9,0-3.3,0.3-4.1,1c-0.8,0.7-1.4,2.1-1.7,4.1C859.6,69.1,859.6,70.6,860.1,71.3"/>
	<polygon clip-path="url(#SVGID_2_)" fill="#323232" points="856.9,72.3 858.8,61.8 856.3,61.8 854.5,72.3 	"/>
	<path clip-path="url(#SVGID_2_)" fill="#323232" d="M894.2,63.7l-1.5,8.6h2.5l1.5-8.6h2.6l0.3-1.9H897l0.2-1.1
		c0.2-1.1,0.8-1.6,1.9-1.6c0.2,0,0.5,0,0.8,0.1l0.3-2c-0.4,0-0.8,0-1,0c-1.5,0-2.6,0.3-3.2,0.8c-0.7,0.5-1.1,1.4-1.3,2.8l-0.2,1.1
		H893l-0.3,1.9H894.2z"/>
	<path clip-path="url(#SVGID_2_)" fill="#323232" d="M845,72.3h2.8l1-5.7l7.1-9.2h-3.3l-2.9,3.9c-0.2,0.3-0.5,0.7-0.9,1.2l-0.4,0.6
		l-0.4,0.6h-0.1l-0.2-0.6l-0.2-0.6c-0.2-0.6-0.3-1-0.4-1.2l-1.5-3.9h-3.3l3.7,9.2L845,72.3z"/>
	<polygon clip-path="url(#SVGID_2_)" fill="#323232" points="889.7,72.3 891.6,61.8 889.1,61.8 887.2,72.3 	"/>
	<path clip-path="url(#SVGID_2_)" fill="#323232" d="M890.9,60.2c1,0,1.8-0.8,1.8-1.8c0-0.4-0.1-0.8-0.4-1.1l0,0h0
		c-0.3-0.4-0.8-0.6-1.4-0.6c-1,0-1.8,0.8-1.8,1.8C889.2,59.5,890,60.2,890.9,60.2"/>
	<path clip-path="url(#SVGID_2_)" fill="#323232" d="M909.8,57.5l-3.8,3l1.2,0.5l-1.3,3.4l-0.7,1.9l-0.9,2.2
		c-0.1,0.2-0.2,0.5-0.4,1.1l-0.4,1.1h-0.1l-0.1-1.1c-0.1-0.6-0.1-1-0.1-1.1l-0.3-2.2l-0.5-4.4h-2.7l1.6,10.5h1.3
		c-0.6,1.9-1.4,2.8-2.5,2.8c-0.1,0-0.1,0-0.2,0v0h-55.1v1.9h55.1v0c0.1,0,0.2,0,0.2,0c1.3,0,2.2-0.3,2.9-0.8c0.7-0.5,1.3-1.6,2-3.2
		l2.8-6.8l0,0l1-2.5l0.7-1.8l1.2,0.5L909.8,57.5z"/>
	<path clip-path="url(#SVGID_2_)" fill="#323232" d="M838.7,67.8c-0.1,0.5-0.5,1-1.2,1.4c0-0.1-0.1-0.1-0.1-0.2
		c-0.1-0.1-0.1-0.3-0.2-0.4c-0.1-0.1-0.1-0.2-0.2-0.3c-0.1-0.1-0.1-0.3-0.2-0.4c-0.1-0.1-0.1-0.2-0.2-0.3c-0.1-0.1-0.2-0.3-0.2-0.4
		c-0.1-0.1-0.2-0.2-0.2-0.4c-0.1-0.1-0.2-0.3-0.3-0.4c-0.1-0.1-0.2-0.2-0.3-0.3c-0.1-0.1-0.2-0.3-0.4-0.5c-0.1-0.1-0.2-0.2-0.2-0.3
		v0c0-0.1,0-0.2,0.1-0.3c0.4,0.1,0.8,0.2,1.2,0.4c0.1,0.6,0.7,1.1,1.3,1.1c0.2,0,0.3,0,0.5-0.1C838.6,66.8,838.8,67.3,838.7,67.8
		 M836.9,72.1c0,0,0,0.1,0,0.1c0,0.1,0,0.2-0.1,0.2c0,0,0,0.1-0.1,0.1c0,0.1-0.1,0.1-0.1,0.2c0,0,0,0.1-0.1,0.1
		c-0.1,0.1-0.1,0.2-0.2,0.2c-0.1,0.1-0.2,0.1-0.4,0.2c0,0-0.1,0-0.1,0c-0.1,0-0.2,0.1-0.3,0.1c-0.1,0-0.1,0-0.2,0
		c-0.1,0-0.2,0-0.3,0c-0.1,0-0.1,0-0.2,0c-0.1,0-0.2,0-0.4,0c-0.1,0-0.1,0-0.2,0c-0.1,0-0.3-0.1-0.4-0.1c0,0-0.1,0-0.1,0
		c-0.2,0-0.3-0.1-0.5-0.2c0,0-0.1,0-0.1,0c-0.2-0.1-0.4-0.2-0.6-0.2c0,0,0,0-0.1,0c-0.2-0.1-0.5-0.2-0.7-0.3
		c0.2-0.2,0.3-0.4,0.5-0.7c1.7-0.2,3.3-0.5,4.6-1c0,0,0,0,0,0c0,0.1,0,0.2,0.1,0.3c0,0.1,0,0.1,0,0.2c0,0.1,0,0.1,0,0.2
		c0,0.1,0,0.2,0,0.3c0,0,0,0.1,0,0.1C836.9,71.9,836.9,72,836.9,72.1 M829.2,70.7c-0.8-0.6-1.7-1.4-2.5-2.2c-0.4-0.4-0.7-0.7-1-1.1
		c0.4-1,0.8-1.9,1.3-2.9c0,0,0,0,0-0.1c0.9-0.1,1.9-0.1,2.9-0.1c1,0,1.9,0.1,2.8,0.2c0.3,0.3,0.6,0.7,0.9,1c-0.3,1-0.8,2.1-1.3,3.2
		c-0.3,0.7-0.7,1.3-1.1,1.9C830.5,70.7,829.8,70.7,829.2,70.7 M826.9,74.9c-0.2-0.4-0.7-0.6-1.2-0.6c-0.2,0-0.4,0.1-0.6,0.2
		c-0.5-0.7-0.6-1.8-0.4-3.2c1.1,0.2,2.3,0.4,3.5,0.5c0.5,0.4,1,0.7,1.5,1C828.7,73.8,827.7,74.6,826.9,74.9 M825.4,69.4
		c0.4,0.4,0.8,0.8,1.2,1.1c-0.7-0.1-1.3-0.2-1.8-0.3c0.1-0.4,0.2-0.8,0.3-1.2C825.2,69.1,825.3,69.2,825.4,69.4 M824.2,65.6
		c-0.1-0.1-0.2-0.2-0.2-0.3c-0.1-0.1-0.1-0.2-0.2-0.3c0.6-0.2,1.2-0.3,1.9-0.4c-0.3,0.6-0.6,1.2-0.8,1.9c-0.1-0.1-0.1-0.1-0.2-0.2
		c-0.1-0.1-0.2-0.3-0.3-0.4C824.3,65.8,824.2,65.7,824.2,65.6 M823.8,69.9c-2.3-0.7-3.7-1.7-3.4-2.7c0.1-0.7,0.8-1.2,1.9-1.7
		c0.5,0.9,1.2,1.7,2,2.6C824.1,68.7,823.9,69.3,823.8,69.9 M822.3,61.1c0-0.1,0-0.2,0-0.3c0,0,0-0.1,0-0.1c0-0.1,0-0.1,0.1-0.2
		c0,0,0-0.1,0.1-0.1c0-0.1,0.1-0.1,0.1-0.2c0,0,0-0.1,0.1-0.1c0.1-0.1,0.2-0.2,0.2-0.2c0.1-0.1,0.2-0.1,0.3-0.2c0,0,0,0,0.1,0
		c0,0,0.1,0,0.1,0c0.2,0.4,0.7,0.7,1.2,0.7c0.4,0,0.8-0.2,1.1-0.5c0.1,0,0.2,0.1,0.3,0.1c0,0,0.1,0,0.1,0c0.6,0.2,1.2,0.5,1.9,0.9
		l0,0c-0.5,0.7-1.1,1.5-1.6,2.4c-1.2,0.2-2.3,0.4-3.2,0.7c0,0-0.1-0.1-0.1-0.1c-0.1-0.2-0.2-0.4-0.3-0.5c0-0.1-0.1-0.1-0.1-0.2
		c0-0.1-0.1-0.2-0.1-0.3c0-0.1,0-0.1-0.1-0.2c0-0.1-0.1-0.2-0.1-0.3c0-0.1,0-0.1,0-0.2c0-0.1,0-0.2-0.1-0.3c0,0,0-0.1,0-0.1
		C822.3,61.5,822.3,61.3,822.3,61.1C822.3,61.2,822.3,61.1,822.3,61.1 M828.9,61.5c0.7,0.5,1.4,1,2.1,1.6c-0.3,0-0.6,0-0.9,0
		c-0.8,0-1.6,0-2.4,0.1C828.2,62.5,828.5,62,828.9,61.5 M833.6,59c0.8,0.7,0.9,2.3,0.5,4.5c-0.4-0.1-0.8-0.1-1.1-0.2
		c-1.1-1-2.2-1.9-3.4-2.6C831.2,58.9,832.7,58.2,833.6,59 M834.6,66.7C834.6,66.7,834.6,66.7,834.6,66.7c0.4,0.5,0.8,1,1.1,1.5
		c0,0,0,0,0,0c0.1,0.2,0.2,0.3,0.3,0.4c0,0,0,0.1,0.1,0.1c0.1,0.1,0.1,0.3,0.2,0.4c0,0,0,0.1,0,0.1c0.1,0.1,0.1,0.3,0.2,0.4
		c-1,0.4-2.2,0.6-3.6,0.8c0.2-0.3,0.3-0.6,0.5-0.9C833.8,68.6,834.2,67.6,834.6,66.7 M839,65.3c0-0.1,0-0.1,0-0.2
		c0-0.8-0.6-1.4-1.4-1.4c-0.4,0-0.7,0.2-1,0.4c-0.4-0.1-0.8-0.3-1.3-0.4c0.4-2.6,0.1-4.8-1-5.8c-1.4-1.1-3.5-0.2-5.7,2.1
		c-0.1-0.1-0.2-0.1-0.4-0.2c-0.1-0.1-0.2-0.1-0.3-0.2c-0.1-0.1-0.2-0.1-0.4-0.2c-0.2-0.1-0.4-0.2-0.5-0.2c-0.1,0-0.2-0.1-0.3-0.1
		c-0.1-0.1-0.3-0.1-0.4-0.1c-0.1,0-0.2-0.1-0.4-0.1c-0.1-0.7-0.6-1.3-1.4-1.3c-0.6,0-1.1,0.4-1.3,0.9c0,0,0,0-0.1,0
		c-0.1,0-0.3,0-0.4,0.1c0,0-0.1,0-0.1,0c-0.2,0-0.3,0.1-0.4,0.1c0,0-0.1,0-0.1,0c-0.1,0.1-0.3,0.1-0.4,0.2c-0.1,0.1-0.3,0.2-0.4,0.3
		c0,0-0.1,0.1-0.1,0.1c-0.1,0.1-0.1,0.2-0.2,0.2c0,0.1-0.1,0.1-0.1,0.2c0,0.1-0.1,0.2-0.1,0.2c0,0.1,0,0.1-0.1,0.2
		c0,0.1,0,0.2-0.1,0.3c0,0.1,0,0.2,0,0.3c0,0.1,0,0.2,0,0.3c0,0.1,0,0.2,0,0.3c0,0.1,0,0.2,0,0.2c0,0.1,0,0.2,0,0.4
		c0,0.1,0,0.1,0,0.2c0,0.1,0.1,0.3,0.1,0.4c0,0,0,0.1,0,0.1c0.2,0.6,0.4,1.2,0.7,1.8c-1.5,0.7-2.5,1.6-2.7,2.5
		c-0.3,1.6,1.5,3.1,4.6,3.9c-0.2,1.9,0,3.6,0.7,4.6c0,0,0,0,0,0.1c0,0.8,0.6,1.4,1.4,1.4c0.5,0,0.9-0.2,1.1-0.6
		c1.3-0.3,2.7-1.4,4.1-3.1h0c0.5,0.2,1,0.5,1.4,0.6c0,0,0,0,0,0c0.3,0.1,0.5,0.2,0.8,0.3c0.1,0,0.1,0,0.2,0.1c0.2,0,0.3,0.1,0.5,0.1
		c0.1,0,0.2,0,0.3,0.1c0.1,0,0.2,0,0.3,0c0.2,0,0.3,0,0.5,0.1c0.1,0,0.1,0,0.2,0c0.1,0,0.3,0,0.4,0c0,0,0.1,0,0.1,0
		c0.2,0,0.3,0,0.5-0.1c0,0,0.1,0,0.1,0c0.2,0,0.3-0.1,0.4-0.1c0,0,0.1,0,0.1,0c0.1-0.1,0.3-0.1,0.4-0.2c0.1-0.1,0.2-0.2,0.4-0.3
		c0,0,0.1-0.1,0.1-0.1c0.1-0.1,0.1-0.2,0.2-0.3c0-0.1,0.1-0.1,0.1-0.2c0-0.1,0.1-0.2,0.1-0.3c0-0.1,0-0.1,0.1-0.2
		c0-0.1,0-0.2,0.1-0.3c0-0.1,0-0.1,0-0.2c0-0.1,0-0.2,0-0.3c0-0.1,0-0.1,0-0.2c0-0.1,0-0.2,0-0.4c0-0.1,0-0.1,0-0.2
		c0-0.2-0.1-0.3-0.1-0.5c0,0,0-0.1,0-0.1c0-0.1-0.1-0.3-0.1-0.4c1.3-0.7,2.2-1.5,2.4-2.4C840.4,66.8,839.9,66,839,65.3"/>
	<path clip-path="url(#SVGID_2_)" fill="#323232" d="M829.7,65.2c-0.9,0-1.7,0.8-1.7,1.7c0,0.9,0.8,1.7,1.7,1.7
		c0.9,0,1.7-0.8,1.7-1.7C831.3,66,830.6,65.2,829.7,65.2"/>
</g>
<rect fill="#323232" width="1024" height="768"/>
<rect fill="none" width="1024" height="768"/>
<rect fill="none" width="1024" height="768"/>
<rect fill="none" width="1024" height="768"/>
<rect fill="none" width="1024" height="768"/>
<g>
	<polyline fill="none" stroke="#FFFFFF" stroke-width="2.6325" stroke-miterlimit="10" points="58.3,638 388.6,368.2 535.2,512.3 
		965.7,110.4 	"/>
	
		<path fill="none" stroke="#FFFFFF" stroke-width="2.6325" stroke-linecap="round" stroke-linejoin="round" stroke-miterlimit="10" d="
		M149.9,506.3l0.1,21.6c0,0.5-0.3,0.9-0.4,1.1c-0.2,0.2-0.5,0.5-1.1,0.5l-44.6-0.2c-0.8,0-1.5-0.7-1.5-1.6l-0.1-21.6
		c0-0.5,0.3-0.9,0.4-1.1c0.2-0.2,0.4-0.3,0.6-0.4l0.1,0l0.1-0.1c6.5-1.6,14.3-2.5,22.5-2.4c8.2,0,15.9,0.9,22.4,2.6l0,0l0.4,0.1
		C149.4,505.1,149.9,505.6,149.9,506.3z M149.9,632l0.1,21.6c0,0.5-0.3,0.9-0.4,1.1c-0.2,0.2-0.4,0.3-0.6,0.4l-0.2,0.1l-0.1,0
		c-6.5,1.6-14.3,2.5-22.5,2.4c-8.2,0-15.9-0.9-22.4-2.6l0,0l-0.4-0.1c-0.5-0.2-1-0.7-1-1.4l-0.1-21.6c0-0.5,0.3-0.9,0.4-1.1
		c0.2-0.2,0.5-0.5,1.1-0.5l44.6,0.2c0.5,0,0.9,0.3,1.1,0.5C149.7,631.1,149.9,631.5,149.9,632z M177.7,573.1c-0.3,0-0.6,0.1-0.9,0.4
		c-0.2,0.2-0.4,0.5-0.4,0.9l0,11c0,0.7,0.5,1.2,1.2,1.2l3.6,0c0.3,0,0.6-0.1,0.9-0.4c0.2-0.2,0.4-0.5,0.4-0.9l0-11
		c0-0.7-0.5-1.2-1.2-1.2L177.7,573.1z"/>
	<path fill="#333333" d="M97.9,618.5v16.6h-0.8c-1.2-1.4-3.3-4.5-4.9-7.3c-0.3-2-1.2-9.6-1.7-15.8"/>
	<path fill="none" stroke="#FFAB30" stroke-width="2.6325" stroke-miterlimit="10" d="M97.9,618.5v16.6h-0.8
		c-1.2-1.4-3.3-4.5-4.9-7.3c-0.3-2-1.2-9.6-1.7-15.8"/>
	<path fill="#333333" d="M90.6,547.7c0.5-6.2,1.4-13.8,1.7-15.8c1.6-2.7,3.7-5.9,4.9-7.3l0.8,0l0,16.6"/>
	<path fill="none" stroke="#FFAB30" stroke-width="2.6325" stroke-miterlimit="10" d="M90.6,547.7c0.5-6.2,1.4-13.8,1.7-15.8
		c1.6-2.7,3.7-5.9,4.9-7.3l0.8,0l0,16.6"/>
	<path fill="#333333" d="M161.5,612c-0.5,6.2-1.4,13.8-1.7,15.8c-1.6,2.7-3.7,5.9-4.9,7.3h-0.8l0-16.6"/>
	<path fill="none" stroke="#FFAB30" stroke-width="2.6325" stroke-miterlimit="10" d="M161.5,612c-0.5,6.2-1.4,13.8-1.7,15.8
		c-1.6,2.7-3.7,5.9-4.9,7.3h-0.8l0-16.6"/>
	<path fill="#333333" d="M154.1,541.2v-16.6h0.8c1.2,1.4,3.3,4.5,4.9,7.3c0.3,2,1.2,9.6,1.7,15.8"/>
	<path fill="none" stroke="#FFAB30" stroke-width="2.6325" stroke-miterlimit="10" d="M154.1,541.2v-16.6h0.8
		c1.2,1.4,3.3,4.5,4.9,7.3c0.3,2,1.2,9.6,1.7,15.8"/>
	<path fill="#333333" d="M92.6,546.4c-8.6,8.6-13.9,20.4-13.9,33.5c0,26.1,21.2,47.3,47.3,47.3c13.1,0,24.9-5.3,33.5-13.9
		c8.6-8.6,13.9-20.4,13.9-33.5c0-26.1-21.2-47.3-47.3-47.3C113,532.5,101.1,537.8,92.6,546.4"/>
	<path fill="none" stroke="#FFAB30" stroke-width="2.6325" stroke-miterlimit="10" d="M92.6,546.4c-8.6,8.6-13.9,20.4-13.9,33.5
		c0,26.1,21.2,47.3,47.3,47.3c13.1,0,24.9-5.3,33.5-13.9c8.6-8.6,13.9-20.4,13.9-33.5c0-26.1-21.2-47.3-47.3-47.3
		C113,532.5,101.1,537.8,92.6,546.4z"/>
	<path fill="#333333" d="M96.1,549.9c-7.7,7.7-12.4,18.2-12.4,29.9c0,23.4,19,42.3,42.3,42.3c11.7,0,22.3-4.7,29.9-12.4
		c7.7-7.7,12.4-18.2,12.4-29.9c0-23.4-19-42.3-42.3-42.3C114.4,537.5,103.8,542.2,96.1,549.9"/>
	
		<path fill="none" stroke="#FFFFFF" stroke-width="2.6325" stroke-linecap="round" stroke-linejoin="round" stroke-miterlimit="10" d="
		M96.1,549.9c-7.7,7.7-12.4,18.2-12.4,29.9c0,23.4,19,42.3,42.3,42.3c11.7,0,22.3-4.7,29.9-12.4c7.7-7.7,12.4-18.2,12.4-29.9
		c0-23.4-19-42.3-42.3-42.3C114.4,537.5,103.8,542.2,96.1,549.9z"/>
	
		<rect x="108.7" y="547.2" transform="matrix(0.8662 -0.4997 0.4997 0.8662 -261.2352 128.9304)" fill="#FFFFFF" width="2.9" height="10.2"/>
	
		<rect x="93.5" y="562.5" transform="matrix(0.8661 0.4999 -0.4999 0.8661 295.126 26.2661)" fill="#FFFFFF" width="10.2" height="2.9"/>
	<rect x="124.6" y="543" fill="#FFFFFF" width="2.9" height="10.2"/>
	<rect x="89.2" y="578.4" fill="#FFFFFF" width="10.2" height="2.9"/>
	
		<rect x="136.8" y="550.9" transform="matrix(-0.5001 0.866 -0.866 -0.5001 691.1894 705.6207)" fill="#FFFFFF" width="10.2" height="2.9"/>
	
		<rect x="148.4" y="562.5" transform="matrix(-0.866 0.5001 -0.5001 -0.866 568.499 975.5468)" fill="#FFFFFF" width="10.2" height="2.9"/>
	<rect x="93.5" y="594.2" transform="matrix(0.866 -0.5 0.5 0.866 -284.6562 129.0874)" fill="#FFFFFF" width="10.2" height="2.9"/>
	<polygon fill="#FFFFFF" points="127.2,573.2 125.3,577.8 111.7,571 110.4,573.6 124.2,580.5 115.5,602.2 118.2,603.3 126.8,581.8 
		130.8,583.7 132.1,581.1 128.6,579.4 153.9,554.2 151.9,552.1 129.7,574.2 	"/>
	<rect x="124.6" y="606.5" fill="#FFFFFF" width="2.9" height="10.2"/>
	
		<rect x="105.1" y="605.9" transform="matrix(0.5 -0.866 0.866 0.5 -470.8682 399.0522)" fill="#FFFFFF" width="10.2" height="2.9"/>
	<rect x="152.7" y="578.4" fill="#FFFFFF" width="10.2" height="2.9"/>
	
		<rect x="140.5" y="602.2" transform="matrix(-0.8662 0.4997 -0.4997 -0.8662 568.2962 1062.4857)" fill="#FFFFFF" width="2.9" height="10.2"/>
	
		<rect x="148.4" y="594.2" transform="matrix(-0.8661 -0.4999 0.4999 -0.8661 -11.272 1188.3763)" fill="#FFFFFF" width="10.2" height="2.9"/>
	<path fill="#333333" d="M572.7,633.6v4.6c0,0-3.2,14.3,17.4,14.3h28.4h2.3h0h1.7h29c20.6,0,17.4-14.3,17.4-14.3v-4.6l0-83.3v-29.5
		c0-30.4-14.7-65.4-14.7-65.4c-0.9-2.5-1.7-4.9-2.5-7.4l-5.2-18.4c-10.2-42.2-7.1-76.9-7.1-76.9c3.1-5.1-0.3-14.7-0.3-14.7
		c0.9-6.9-0.5-24.4-0.5-24.4c-3.4-3.4-12.3-4-16.1-4.1v0H619v0c-3.8,0.1-12.7,0.7-16,4.1c0,0-1.4,17.5-0.5,24.4
		c0,0-3.4,9.7-0.3,14.7c0,0,3.1,34.6-7.1,76.9l-5.2,18.4c-0.8,2.4-1.6,4.9-2.5,7.4c0,0-14.7,35-14.7,65.4v29.5L572.7,633.6z"/>
	
		<path fill="none" stroke="#FFFFFF" stroke-width="2.6325" stroke-linecap="round" stroke-linejoin="round" stroke-miterlimit="10" d="
		M572.7,633.6v4.6c0,0-3.2,14.3,17.4,14.3h28.4h2.3h0h1.7h29c20.6,0,17.4-14.3,17.4-14.3v-4.6l0-83.3v-29.5
		c0-30.4-14.7-65.4-14.7-65.4c-0.9-2.5-1.7-4.9-2.5-7.4l-5.2-18.4c-10.2-42.2-7.1-76.9-7.1-76.9c3.1-5.1-0.3-14.7-0.3-14.7
		c0.9-6.9-0.5-24.4-0.5-24.4c-3.4-3.4-12.3-4-16.1-4.1v0H619v0c-3.8,0.1-12.7,0.7-16,4.1c0,0-1.4,17.5-0.5,24.4
		c0,0-3.4,9.7-0.3,14.7c0,0,3.1,34.6-7.1,76.9l-5.2,18.4c-0.8,2.4-1.6,4.9-2.5,7.4c0,0-14.7,35-14.7,65.4v29.5L572.7,633.6z"/>
	
		<path fill="none" stroke="#FFFFFF" stroke-width="2.6325" stroke-linecap="round" stroke-linejoin="round" stroke-miterlimit="10" d="
		M620.8,627.3c41.7-12.9,33-72,33-72s-21.3,7.2-33-8.3c-11.7,15.5-33,8.3-33,8.3S579.1,614.4,620.8,627.3z"/>
	<path fill="none" stroke="#FFAB30" stroke-width="2.6325" stroke-miterlimit="10" d="M650.7,446.4c-1.7-5.1-3.1-10.2-4.3-15.1
		h-16.7c-2.1-2.5-5.3-4.1-8.8-4.1v0c0,0-0.1,0-0.1,0c0,0-0.1,0-0.1,0v0c-3.5,0.1-6.7,1.7-8.8,4.1h-16.7c-1.2,4.9-2.6,10-4.3,15.1h21
		c2.1,2.5,5.3,4.1,8.8,4.1v0c0,0,0.1,0,0.1,0c0,0,0.1,0,0.1,0v0c3.5-0.1,6.6-1.7,8.8-4.1H650.7z"/>
	<rect x="243.4" y="417.4" fill="#333333" width="206.9" height="239.3"/>
	
		<rect x="243.4" y="417.4" fill="none" stroke="#FFFFFF" stroke-width="2.6325" stroke-linecap="round" stroke-linejoin="round" stroke-miterlimit="10" width="206.9" height="239.3"/>
	<path fill="none" stroke="#FFAB30" stroke-width="2.6325" stroke-miterlimit="10" d="M394.6,439.3c0,0-3.3,72.9-47.8,72.9h-0.3
		c-44.4,0-47.8-72.9-47.8-72.9 M401.5,439.3c0,3.6-2.9,6.6-6.6,6.6s-6.6-2.9-6.6-6.6s2.9-6.6,6.6-6.6S401.5,435.7,401.5,439.3z
		 M305.4,439.3c0,3.6-2.9,6.6-6.6,6.6s-6.6-2.9-6.6-6.6s2.9-6.6,6.6-6.6S305.4,435.7,305.4,439.3z"/>
	<polygon fill="#333333" points="440.6,397.8 253.1,397.8 260.7,416.8 432.1,416.8 	"/>
	
		<polygon fill="none" stroke="#FFFFFF" stroke-width="2.6325" stroke-linecap="round" stroke-linejoin="round" stroke-miterlimit="10" points="
		440.6,397.8 253.1,397.8 260.7,416.8 432.1,416.8 	"/>
	<path fill="none" stroke="#FFFFFF" stroke-width="2.6325" stroke-miterlimit="10" d="M766.5,491c4.1,0.8,9.6,1.6,16.4,2.2
		l11.1,29.8L766.5,491z M776.2,475.8l4.3,11.1c-6.7-0.7-11.9-1.6-15.5-2.3L776.2,475.8z M795.1,461l-10.3,20.2l-3.6-9.3L795.1,461z
		 M819.8,487.5c-4.7,0.3-10,0.5-15.7,0.5c-5.8,0-11-0.2-15.7-0.5l15.7-30.8L819.8,487.5z M826.9,471.9l-3.6,9.3L813,461L826.9,471.9
		z M831.9,475.8l11.2,8.8c-3.6,0.7-8.8,1.6-15.5,2.3L831.9,475.8z M789.5,493.6c4.4,0.3,9.3,0.4,14.5,0.4c5.3,0,10.1-0.2,14.5-0.4
		l-14.5,39L789.5,493.6z M814.1,522.9l11.1-29.8c6.8-0.6,12.3-1.4,16.4-2.2L814.1,522.9z"/>
	<path fill="none" stroke="#FFAB30" stroke-width="2.6325" stroke-miterlimit="10" d="M820.3,527.5c29.4,7.4,49.8,33.7,49.8,64
		c0,36.4-29.6,66.1-66.1,66.1c-36.4,0-66.1-29.6-66.1-66.1c0-30.4,20.5-56.6,49.8-64"/>
	<path fill="#FFFFFF" d="M852.3,445.5c0.2,6.3,0.7,12.4,1.5,17.1c0.9,5.7,2.2,9.5,2.2,9.5s1.3-3.8,2.2-9.5
		c0.8-4.8,1.3-10.8,1.5-17.1c6.3-0.2,12.4-0.7,17.1-1.5c5.7-0.9,9.5-2.1,9.5-2.1s-3.8-1.2-9.5-2.1c-4.8-0.8-10.8-1.3-17.1-1.5
		c-0.2-6.3-0.7-12.4-1.5-17.1c-0.9-5.7-2.1-9.5-2.1-9.5s-1.2,3.8-2.1,9.5c-0.8,4.8-1.3,10.8-1.5,17.1c-6.3,0.2-12.4,0.7-17.1,1.5
		c-5.7,0.9-9.5,2.2-9.5,2.2s3.8,1.3,9.5,2.2C839.9,444.8,846,445.3,852.3,445.5"/>
	<path fill="#FFFFFF" d="M742.1,457.4c0.2,2.5,0.6,4.8,1.3,6.7c0.9,2.8,2.2,4.6,2.2,4.6s1.3-1.8,2.2-4.6c0.7-1.9,1.1-4.3,1.3-6.7
		c2.5-0.3,4.8-0.7,6.7-1.3c2.8-0.9,4.6-2.1,4.6-2.1s-1.8-1.2-4.6-2.1c-1.9-0.6-4.3-1.1-6.7-1.3c-0.3-2.5-0.7-4.8-1.3-6.7
		c-0.9-2.8-2.1-4.6-2.1-4.6s-1.2,1.8-2.1,4.6c-0.6,1.9-1.1,4.2-1.3,6.7c-2.5,0.2-4.8,0.6-6.7,1.3c-2.8,0.9-4.6,2.2-4.6,2.2
		s1.8,1.3,4.6,2.2C737.3,456.8,739.6,457.2,742.1,457.4"/>
	
		<polyline fill="none" stroke="#FFFFFF" stroke-width="2.6325" stroke-linecap="round" stroke-linejoin="round" stroke-miterlimit="10" points="
		911.2,114.8 965.6,110.5 962,165.6 	"/>
</g>
</svg>
